<svg width="571" height="567" viewBox="0 0 571 567" fill="none" xmlns="http://www.w3.org/2000/svg">
<path fill-rule="evenodd" clip-rule="evenodd" d="M5.2498 338.849C20.6669 416.171 53.8372 468.412 115.039 516.341C171.102 558.996 250.678 576.25 318.421 562.192C367.631 551.966 416.997 526.406 452.504 489.501C463.032 478.808 472.525 467.09 480.845 454.514C506.697 414.095 522.736 368.883 523.048 319.677C512.458 305.938 500.623 312.489 493.615 308.814C485.362 353.227 459.666 404.03 426.029 433.426C415.439 443.969 395.039 458.508 380.245 464.738C345.517 479.755 325.117 486.146 288.521 486.146C258.464 486.146 225.295 475.602 199.132 461.544C198.51 461.224 198.043 460.905 197.419 460.585C187.452 454.673 177.33 448.443 168.61 440.455C163.938 436.301 157.708 431.349 153.971 426.396C120.956 384.059 104.605 347.954 104.605 290.282C104.605 269.673 109.744 247.625 116.907 228.934C119.71 221.585 123.292 215.035 126.718 208.006C151.011 158.481 207.542 120.937 259.088 114.867C279.488 112.63 299.577 112.63 312.971 117.263C313.725 117.778 314.641 117.983 315.537 117.834C316.432 117.686 317.239 117.197 317.798 116.464C342.091 91.382 366.229 66.1401 390.211 41.058C400.489 30.514 403.76 28.9163 396.752 25.7212C382.26 18.9591 367.262 13.4029 351.903 9.10624C337.731 4.633 315.462 0.639035 293.971 0H274.972C264.963 0.215149 254.977 1.06884 245.072 2.55613C239.934 3.35494 235.573 3.83421 230.59 4.79277C221.401 6.70986 212.057 8.78673 203.337 11.3429C192.712 14.3801 182.305 18.1701 172.191 22.6858C170.166 23.6443 168.297 24.4431 166.274 25.4016C162.38 27.3187 158.955 29.0762 155.061 30.9932C44.9607 87.3881 -19.3553 214.716 5.2498 338.849Z" fill="white"/>
<path fill-rule="evenodd" clip-rule="evenodd" d="M215.468 277.343C215.468 304.023 236.024 329.744 262.653 332.94C282.431 335.336 298.626 328.785 311.708 315.365L481.141 141.388C489.394 132.921 494.845 129.726 494.845 118.862C494.845 115.667 493.91 111.354 491.73 108.957L454.2 71.2542C451.241 68.2188 448.438 65.0237 445.478 62.148L436.602 53.5209C431.619 48.5685 429.594 46.9708 422.586 46.9708C416.514 46.9708 411.842 53.5211 407.014 58.4735L258.604 210.723C249.416 220.15 240.696 229.256 231.507 238.522C230.262 239.8 229.638 240.758 228.393 242.037C227.879 242.582 227.411 243.17 226.991 243.793C224.364 247.111 222.166 250.762 220.451 254.658C218.938 257.923 217.789 261.352 217.024 264.882C216.063 268.965 215.541 273.143 215.468 277.343Z" fill="white"/>
<path fill-rule="evenodd" clip-rule="evenodd" d="M493.754 307.06C493.599 308.498 493.132 310.415 492.976 312.172C497.959 313.45 508.237 316.325 512.598 318.882L522.72 324.632C523.031 322.716 523.343 307.06 523.343 303.544C523.343 284.055 518.36 265.522 514 247.31C513.873 246.05 513.445 244.843 512.754 243.795C510.106 240.44 509.017 241.878 503.877 243.636C495.468 246.511 495.312 245.233 496.246 251.624C498.738 268.079 496.559 290.765 493.754 307.06Z" fill="white"/>
</svg>
