<svg width="983" height="143" viewBox="0 0 983 143" fill="none" xmlns="http://www.w3.org/2000/svg">
<g clip-path="url(#clip0_115_186)">
<path fill-rule="evenodd" clip-rule="evenodd" d="M0 77.1913C0 54.0883 30.0339 53.137 41.5855 53.137H44.5753V52.1857C44.5753 40.3624 39.9546 36.0135 29.3544 36.0135C26.0928 36.0135 18.0747 36.8289 18.0747 41.3137V45.2548H5.57191V38.3238C5.57191 27.3159 22.8312 25.5492 29.0826 25.5492C51.778 25.5492 57.7576 37.1007 57.7576 52.4575V81.676C57.7576 83.7145 58.8448 84.6658 60.7474 84.6658H66.3193V95.9455H53.8165C47.701 95.9455 45.3907 92.9557 45.3907 88.0633C45.3907 85.6171 45.5266 83.9863 45.5266 83.9863H45.2548C45.3907 83.9863 39.4111 97.5763 23.103 97.5763C11.1438 97.5763 0 90.3736 0 77.1913ZM13.1823 75.9682C13.1823 81.5401 17.5311 87.112 26.0928 87.112C37.5084 87.112 44.5753 75.4246 44.5753 65.2321V62.65H41.0418C31.1211 62.65 13.1823 63.6013 13.1823 75.9682Z" fill="white"/>
<path d="M79.5419 87.248V41.4496C79.5419 39.4111 78.4547 38.4598 76.5521 38.4598H70.9802V27.1801H83.8907C90.1421 27.1801 92.7243 29.7622 92.7243 35.8777V81.6761C92.7243 83.7146 93.8115 84.6659 95.7141 84.6659H101.286V95.9456H88.2395C82.124 95.9456 79.5419 93.3635 79.5419 87.248Z" fill="white"/>
<path d="M133.718 95.9454V82.899H146.765V95.9454H133.718Z" fill="#111111"/>
<path d="M146.765 74.7452H133.718V38.4598H120.4C118.498 38.4598 117.41 39.547 117.41 41.4496V46.0703H106.538V35.6059C106.538 29.4904 109.12 27.1801 115.236 27.1801H165.247C171.363 27.1801 173.945 29.4904 173.945 35.6059V46.0703H163.073V41.4496C163.073 39.547 161.986 38.4598 160.083 38.4598H146.765V74.7452Z" fill="white"/>
<path d="M187.837 95.9456V41.4496C187.837 39.4111 186.75 38.4598 184.983 38.4598H179.547V27.1801H191.643C197.758 27.1801 200.34 29.6263 200.34 35.7418V68.4938C200.34 72.1631 199.932 77.3273 199.797 78.0068H200.068C200.612 76.9196 204.145 71.6195 206.456 68.4938L236.082 27.1801H249.128V81.6761C249.128 83.7146 250.216 84.6659 251.982 84.6659H257.418V95.9456H245.323C239.208 95.9456 236.626 93.3635 236.626 87.248V54.632C236.626 51.2345 237.033 46.0703 237.169 44.9831H236.897C236.354 46.2062 232.82 51.5063 230.51 54.632L200.884 95.9456H187.837Z" fill="white"/>
<path fill-rule="evenodd" clip-rule="evenodd" d="M265.184 61.4269C265.184 40.9059 280.676 27.3159 303.779 27.18V14.2695C303.779 12.231 302.692 11.2797 300.79 11.2797H295.218V0H308.264C314.38 0 316.962 2.5821 316.962 8.69761V27.18C340.065 27.3159 355.557 40.9059 355.557 61.4269C355.557 81.9478 340.065 95.8096 316.962 95.9455V123.126H303.779V95.9455C280.676 95.8096 265.184 81.9478 265.184 61.4269ZM316.962 85.2094C332.454 85.2094 342.103 75.4246 342.103 61.4269C342.103 47.5651 332.454 38.052 316.962 38.052V85.2094ZM278.502 61.4269C278.502 75.4246 288.151 85.2094 303.779 85.2094V38.052C288.151 38.052 278.502 47.5651 278.502 61.4269Z" fill="white"/>
<path fill-rule="evenodd" clip-rule="evenodd" d="M364.717 61.4269C364.717 40.6341 381.161 25.5492 401.682 25.5492C422.203 25.5492 438.782 40.6341 438.782 61.4269C438.782 82.3555 422.203 97.5763 401.682 97.5763C381.161 97.5763 364.717 82.3555 364.717 61.4269ZM378.035 61.4269C378.035 75.8323 388.771 86.1607 401.682 86.1607C414.728 86.1607 425.328 75.8323 425.328 61.4269C425.328 47.1574 414.728 36.9648 401.682 36.9648C388.771 36.9648 378.035 47.1574 378.035 61.4269Z" fill="white"/>
<path d="M454.863 95.9456V41.4496C454.863 39.4111 453.776 38.4598 451.873 38.4598H446.301V27.1801H459.348C465.463 27.1801 468.045 29.7622 468.045 35.8777V55.3115H502.836V27.1801H516.018V81.6761C516.018 83.7146 517.105 84.6659 519.008 84.6659H524.444V95.9456H511.533C505.418 95.9456 502.836 93.3635 502.836 87.248V66.3194H468.045V95.9456H454.863Z" fill="white"/>
<path fill-rule="evenodd" clip-rule="evenodd" d="M528.945 93.4994C528.945 87.6557 531.255 84.9377 537.235 84.9377H538.322C549.33 72.1631 549.737 51.6422 549.737 41.5856V38.4598H541.312V27.1801H586.838C592.954 27.1801 595.536 29.7622 595.536 35.8777V84.9377H597.71C603.69 84.9377 606 87.6557 606 93.4994V112.254H593.905V98.9354C593.905 97.0328 592.818 95.9456 591.051 95.9456H543.894C542.127 95.9456 541.04 97.0328 541.04 98.9354V112.254H528.945V93.4994ZM551.64 84.9377H582.353V41.4496C582.353 39.4111 581.266 38.4598 579.364 38.4598H562.24V41.4496C562.24 50.9627 561.968 71.8913 551.64 84.9377Z" fill="white"/>
<path d="M334.088 130.088C334.088 126.096 337.245 123.199 341.185 123.199C345.126 123.199 348.309 126.096 348.309 130.088C348.309 134.106 345.126 137.029 341.185 137.029C337.245 137.029 334.088 134.106 334.088 130.088ZM336.645 130.088C336.645 132.854 338.707 134.837 341.185 134.837C343.69 134.837 345.726 132.854 345.726 130.088C345.726 127.348 343.69 125.391 341.185 125.391C338.707 125.391 336.645 127.348 336.645 130.088Z" fill="white"/>
<path d="M351.083 130.114C351.083 126.226 353.927 123.199 358.18 123.199C359.772 123.199 362.929 123.852 362.929 126.096V127.453H360.633V126.722C360.633 125.783 359.12 125.365 358.18 125.365C355.597 125.365 353.64 127.296 353.64 130.088C353.64 133.089 355.832 134.785 358.311 134.785C360.79 134.785 362.408 132.958 362.408 132.958L363.477 134.759C363.477 134.759 361.625 137.029 358.128 137.029C353.98 137.029 351.083 134.08 351.083 130.114Z" fill="white"/>
<path d="M367.32 136.716V126.252C367.32 125.861 367.111 125.678 366.746 125.678H365.676V123.513H368.181C369.355 123.513 369.851 124.008 369.851 125.183V128.914H376.531V123.513H379.062V133.976C379.062 134.367 379.271 134.55 379.636 134.55H380.68V136.716H378.201C377.027 136.716 376.531 136.22 376.531 135.046V131.027H369.851V136.716H367.32Z" fill="white"/>
<path d="M383.188 130.088C383.188 126.096 386.345 123.199 390.285 123.199C394.225 123.199 397.408 126.096 397.408 130.088C397.408 134.106 394.225 137.029 390.285 137.029C386.345 137.029 383.188 134.106 383.188 130.088ZM385.745 130.088C385.745 132.854 387.806 134.837 390.285 134.837C392.79 134.837 394.825 132.854 394.825 130.088C394.825 127.348 392.79 125.391 390.285 125.391C387.806 125.391 385.745 127.348 385.745 130.088Z" fill="white"/>
<path d="M401.487 135.28V125.678H399.843V123.513H406.941C409.602 123.513 411.324 124.687 411.324 126.905C411.324 128.392 410.541 129.331 409.472 129.775V129.827C411.115 130.192 411.977 131.523 411.977 132.958C411.977 135.411 409.994 136.716 407.123 136.716H402.948C401.905 136.716 401.487 136.272 401.487 135.28ZM404.018 129.07H406.497C407.984 129.07 408.767 128.314 408.767 127.139C408.767 125.939 407.958 125.287 406.419 125.287H404.018V129.07ZM404.018 134.393C404.018 134.733 404.201 134.915 404.514 134.915H406.706C408.532 134.915 409.393 134.106 409.393 132.828C409.393 131.523 408.428 130.766 406.706 130.766H404.018V134.393Z" fill="white"/>
<path d="M414.626 133.115C414.626 128.679 420.393 128.496 422.611 128.496H423.185V128.314C423.185 126.044 422.298 125.209 420.262 125.209C419.636 125.209 418.097 125.365 418.097 126.226V126.983H415.696V125.652C415.696 123.539 419.01 123.199 420.21 123.199C424.568 123.199 425.716 125.417 425.716 128.366V133.976C425.716 134.367 425.925 134.55 426.29 134.55H427.36V136.716H424.959C423.785 136.716 423.341 136.142 423.341 135.202C423.341 134.733 423.367 134.419 423.367 134.419H423.315C423.341 134.419 422.193 137.029 419.062 137.029C416.766 137.029 414.626 135.646 414.626 133.115ZM417.157 132.88C417.157 133.95 417.992 135.02 419.636 135.02C421.828 135.02 423.185 132.776 423.185 130.819V130.323H422.506C420.602 130.323 417.157 130.505 417.157 132.88Z" fill="white"/>
<path d="M430.968 136.716V126.252C430.968 125.861 430.76 125.678 430.394 125.678H429.324V123.513H431.829C433.003 123.513 433.499 124.008 433.499 125.183V128.914H440.179V123.513H442.71V133.976C442.71 134.367 442.919 134.55 443.284 134.55H444.328V136.716H441.849C440.675 136.716 440.179 136.22 440.179 135.046V131.027H433.499V136.716H430.968Z" fill="white"/>
<path d="M456.191 135.28V125.678H454.548V123.513H461.645C464.306 123.513 466.028 124.687 466.028 126.905C466.028 128.392 465.246 129.331 464.176 129.775V129.827C465.82 130.192 466.681 131.523 466.681 132.958C466.681 135.411 464.698 136.716 461.828 136.716H457.653C456.609 136.716 456.191 136.272 456.191 135.28ZM458.722 129.07H461.201C462.689 129.07 463.471 128.314 463.471 127.139C463.471 125.939 462.662 125.287 461.123 125.287H458.722V129.07ZM458.722 134.393C458.722 134.733 458.905 134.915 459.218 134.915H461.41C463.237 134.915 464.098 134.106 464.098 132.828C464.098 131.523 463.132 130.766 461.41 130.766H458.722V134.393Z" fill="white"/>
<path d="M477.617 134.602C477.617 127.818 486.984 128.288 486.984 123.304C486.984 121.608 485.731 120.381 483.748 120.381C482.105 120.381 480.904 121.216 480.904 122.13V122.939H478.504V121.373C478.504 118.972 481.713 117.981 483.853 117.981C487.219 117.981 489.645 120.121 489.645 123.278C489.645 129.618 480.304 129.723 480.304 133.976C480.304 134.341 480.513 134.472 480.956 134.472H487.506C487.871 134.472 488.08 134.263 488.08 133.898V132.723H490.48V135.046C490.48 136.22 489.985 136.716 488.81 136.716H479.365C477.93 136.716 477.617 136.089 477.617 134.602Z" fill="white"/>
<path d="M500.378 137.029C495.472 137.029 493.881 132.802 493.881 127.479C493.881 122.182 495.472 117.981 500.378 117.981C505.309 117.981 506.901 122.182 506.901 127.479C506.901 132.802 505.309 137.029 500.378 137.029ZM500.378 134.654C503.404 134.654 504.265 131.497 504.265 127.479C504.265 123.486 503.404 120.355 500.378 120.355C497.377 120.355 496.516 123.486 496.516 127.479C496.516 131.497 497.377 134.654 500.378 134.654Z" fill="white"/>
<path d="M510.388 136.716V134.472H514.432V122.573C514.432 121.999 514.458 121.451 514.458 121.451H514.406C514.406 121.451 514.197 121.843 513.545 122.495L511.797 124.191L510.257 122.573L514.641 118.294H517.041V134.472H521.034V136.716H510.388Z" fill="white"/>
<path d="M530.449 137.029C526.535 137.029 523.561 133.689 523.561 128.548C523.561 123.747 526.17 117.981 531.858 117.981C534.05 117.981 535.433 118.738 535.433 118.738L534.598 120.955C534.598 120.955 533.45 120.355 531.988 120.355C528.596 120.355 526.848 123.513 526.457 126.67H526.509C527.24 125.548 528.962 124.869 530.579 124.869C534.05 124.869 536.372 127.505 536.372 130.871C536.372 134.498 533.893 137.029 530.449 137.029ZM526.3 129.644C526.3 131.993 528.101 134.654 530.449 134.654C532.563 134.654 533.815 133.01 533.815 130.871C533.815 128.653 532.406 127.061 530.031 127.061C527.97 127.061 526.3 128.314 526.3 129.644Z" fill="white"/>
<path d="M548.632 136.716V125.678H546.988V123.513H555.729C556.929 123.513 557.425 123.93 557.425 125.13V127.139H555.311V126.252C555.311 125.887 555.103 125.678 554.737 125.678H551.163V136.716H548.632Z" fill="white"/>
<path d="M559.785 130.088C559.785 126.096 562.942 123.199 566.882 123.199C570.822 123.199 574.006 126.096 574.006 130.088C574.006 134.106 570.822 137.029 566.882 137.029C562.942 137.029 559.785 134.106 559.785 130.088ZM562.342 130.088C562.342 132.854 564.404 134.837 566.882 134.837C569.387 134.837 571.422 132.854 571.422 130.088C571.422 127.348 569.387 125.391 566.882 125.391C564.404 125.391 562.342 127.348 562.342 130.088Z" fill="white"/>
<path d="M575.67 136.246C575.67 135.124 576.114 134.602 577.262 134.602H577.471C579.584 132.149 579.663 128.209 579.663 126.278V125.678H578.045V123.513H586.786C587.96 123.513 588.456 124.008 588.456 125.183V134.602H588.873C590.021 134.602 590.465 135.124 590.465 136.246V139.847H588.143V137.29C588.143 136.924 587.934 136.716 587.595 136.716H578.54C578.201 136.716 577.993 136.924 577.993 137.29V139.847H575.67V136.246ZM580.028 134.602H585.925V126.252C585.925 125.861 585.716 125.678 585.351 125.678H582.063V126.252C582.063 128.079 582.011 132.097 580.028 134.602Z" fill="white"/>
<path d="M594.747 142.195C592.79 142.195 591.642 140.89 591.642 140.89L592.686 139.064C592.712 139.142 593.52 140.003 594.616 140.003C595.634 140.003 596.443 139.273 596.939 138.098L597.539 136.663L593.025 126.2C592.842 125.783 592.633 125.678 592.216 125.678H591.877V123.513H593.364C594.434 123.513 594.851 123.8 595.269 124.843L598.243 132.28C598.504 132.958 598.713 133.871 598.713 133.871H598.765C598.765 133.871 598.974 132.958 599.209 132.28L601.974 124.843C602.34 123.8 602.81 123.513 603.879 123.513H605.393V125.678H605.054C604.636 125.678 604.401 125.783 604.219 126.2L599.026 139.09C598.191 141.125 596.599 142.195 594.747 142.195Z" fill="white"/>
<path d="M645 39.52V41.1H643.18V39.52C641.18 39.3733 639.573 38.8267 638.36 37.88C637.16 36.92 636.56 35.6267 636.56 34C636.56 32.3733 637.16 31.08 638.36 30.12C639.573 29.1733 641.18 28.6267 643.18 28.48V26.9H645V28.48C647.027 28.6267 648.633 29.1733 649.82 30.12C651.033 31.08 651.64 32.3733 651.64 34C651.64 35.6267 651.033 36.92 649.82 37.88C648.633 38.8267 647.027 39.3733 645 39.52ZM645 30.18V37.82C646.533 37.7133 647.713 37.34 648.54 36.7C649.367 36.0467 649.78 35.1467 649.78 34C649.78 32.8533 649.367 31.96 648.54 31.32C647.713 30.6667 646.533 30.2867 645 30.18ZM639.64 31.32C638.813 31.96 638.4 32.8533 638.4 34C638.4 35.1467 638.813 36.04 639.64 36.68C640.467 37.32 641.647 37.6933 643.18 37.8V30.18C641.647 30.2867 640.467 30.6667 639.64 31.32Z" fill="white"/>
<path d="M653.632 34C653.632 31.9733 654.332 30.26 655.732 28.86C657.132 27.4467 658.845 26.74 660.872 26.74C662.899 26.74 664.612 27.4467 666.012 28.86C667.425 30.26 668.132 31.9733 668.132 34C668.132 36.0133 667.425 37.7267 666.012 39.14C664.612 40.5533 662.899 41.26 660.872 41.26C658.845 41.26 657.132 40.5533 655.732 39.14C654.332 37.7133 653.632 36 653.632 34ZM666.272 34C666.272 32.4533 665.752 31.16 664.712 30.12C663.699 29.0667 662.419 28.54 660.872 28.54C659.339 28.54 658.052 29.0667 657.012 30.12C655.985 31.1733 655.472 32.4667 655.472 34C655.472 35.52 655.985 36.8133 657.012 37.88C658.052 38.92 659.339 39.44 660.872 39.44C662.419 39.44 663.699 38.92 664.712 37.88C665.752 36.8133 666.272 35.52 666.272 34Z" fill="white"/>
<path d="M679.728 32.94V27H681.568V41H679.728V34.7H672.928V41H671.068V27H672.928V32.94H679.728Z" fill="white"/>
<path d="M695.524 27V39.24H697.024V43.68H695.164V41H685.924V43.68H684.064V39.24H685.284C686.151 38.1467 686.584 36.5067 686.584 34.32V27H695.524ZM687.384 39.24H693.664V28.74H688.444V34.36C688.444 36.4667 688.091 38.0933 687.384 39.24Z" fill="white"/>
<path d="M705.57 27H710.65C711.93 27 713.004 27.4333 713.87 28.3C714.737 29.1667 715.17 30.2333 715.17 31.5C715.17 32.7667 714.737 33.8333 713.87 34.7C713.004 35.5667 711.93 36 710.65 36H707.43V41H705.57V27ZM707.43 34.26H710.65C711.437 34.26 712.077 34 712.57 33.48C713.077 32.9333 713.33 32.2733 713.33 31.5C713.33 30.7 713.077 30.04 712.57 29.52C712.064 29 711.424 28.74 710.65 28.74H707.43V34.26Z" fill="white"/>
<path d="M727.841 41H725.861L724.721 37.86H718.421L717.281 41H715.301L720.521 27H722.621L727.841 41ZM721.561 29.22L719.061 36.12H724.081L721.561 29.22Z" fill="white"/>
<path d="M736.993 33.76C738.513 34.4133 739.273 35.5533 739.273 37.18C739.273 38.38 738.82 39.36 737.913 40.12C737.02 40.88 735.833 41.26 734.353 41.26C733.046 41.26 731.973 40.9733 731.133 40.4C730.306 39.8267 729.72 39.04 729.373 38.04L730.953 37.14C731.366 38.7133 732.5 39.5 734.353 39.5C735.313 39.5 736.06 39.2867 736.593 38.86C737.14 38.4333 737.413 37.8533 737.413 37.12C737.413 36.3867 737.16 35.8067 736.653 35.38C736.146 34.94 735.453 34.72 734.573 34.72H732.933V33.02H734.113C734.953 33.02 735.626 32.8133 736.133 32.4C736.653 31.9733 736.913 31.42 736.913 30.74C736.913 30.06 736.673 29.5133 736.193 29.1C735.713 28.6867 735.06 28.48 734.233 28.48C732.686 28.48 731.653 29.1667 731.133 30.54L729.573 29.64C730.413 27.7067 731.966 26.74 734.233 26.74C735.58 26.74 736.666 27.1133 737.493 27.86C738.333 28.5933 738.753 29.54 738.753 30.7C738.753 32.0467 738.166 33.0667 736.993 33.76Z" fill="white"/>
<path d="M750.182 33.74C750.835 34.06 751.349 34.5067 751.722 35.08C752.095 35.6533 752.282 36.3067 752.282 37.04C752.282 38.16 751.889 39.1 751.102 39.86C750.315 40.62 749.355 41 748.222 41H742.182V27H747.782C748.889 27 749.815 27.3667 750.562 28.1C751.322 28.8333 751.702 29.74 751.702 30.82C751.702 32.0733 751.195 33.0467 750.182 33.74ZM747.782 28.74H744.042V33.02H747.782C748.369 33.02 748.862 32.8133 749.262 32.4C749.662 31.9867 749.862 31.48 749.862 30.88C749.862 30.2933 749.655 29.7933 749.242 29.38C748.842 28.9533 748.355 28.74 747.782 28.74ZM744.042 39.26H748.222C748.849 39.26 749.375 39.04 749.802 38.6C750.229 38.16 750.442 37.62 750.442 36.98C750.442 36.3533 750.222 35.82 749.782 35.38C749.369 34.94 748.849 34.72 748.222 34.72H744.042V39.26Z" fill="white"/>
<path d="M765.747 41H763.887V30.56L756.687 41H755.187V27H757.047V37.46L764.247 27H765.747V41Z" fill="white"/>
<path d="M768.301 27H778.401V28.76H774.261V41H772.421V28.76H768.301V27Z" fill="white"/>
<path d="M791.502 41H789.642V30.56L782.442 41H780.942V27H782.802V37.46L790.002 27H791.502V41Z" fill="white"/>
<path d="M799.017 27H804.617V41H802.777V35.64H799.997L796.377 41H794.277L797.997 35.52C797.037 35.3067 796.244 34.8 795.617 34C794.99 33.2133 794.677 32.3267 794.677 31.34C794.677 30.14 795.097 29.12 795.937 28.28C796.79 27.4267 797.817 27 799.017 27ZM799.017 33.96H802.777V28.74H799.017C798.35 28.74 797.764 28.9933 797.257 29.5C796.764 29.9933 796.517 30.6067 796.517 31.34C796.517 32.0733 796.764 32.6933 797.257 33.2C797.764 33.7067 798.35 33.96 799.017 33.96Z" fill="white"/>
<path d="M648.06 69H646.2V58.56L639 69H637.5V55H639.36V65.46L646.56 55H648.06V69Z" fill="white"/>
<path d="M660.415 60.94V55H662.255V69H660.415V62.7H653.615V69H651.755V55H653.615V60.94H660.415Z" fill="white"/>
<path d="M673.451 67.52V69.1H671.631V67.52C669.631 67.3733 668.024 66.8267 666.811 65.88C665.611 64.92 665.011 63.6267 665.011 62C665.011 60.3733 665.611 59.08 666.811 58.12C668.024 57.1733 669.631 56.6267 671.631 56.48V54.9H673.451V56.48C675.477 56.6267 677.084 57.1733 678.271 58.12C679.484 59.08 680.091 60.3733 680.091 62C680.091 63.6267 679.484 64.92 678.271 65.88C677.084 66.8267 675.477 67.3733 673.451 67.52ZM673.451 58.18V65.82C674.984 65.7133 676.164 65.34 676.991 64.7C677.817 64.0467 678.231 63.1467 678.231 62C678.231 60.8533 677.817 59.96 676.991 59.32C676.164 58.6667 674.984 58.2867 673.451 58.18ZM668.091 59.32C667.264 59.96 666.851 60.8533 666.851 62C666.851 63.1467 667.264 64.04 668.091 64.68C668.917 65.32 670.097 65.6933 671.631 65.8V58.18C670.097 58.2867 668.917 58.6667 668.091 59.32Z" fill="white"/>
<path d="M682.083 62C682.083 59.9733 682.783 58.26 684.183 56.86C685.583 55.4467 687.296 54.74 689.323 54.74C691.349 54.74 693.063 55.4467 694.463 56.86C695.876 58.26 696.583 59.9733 696.583 62C696.583 64.0133 695.876 65.7267 694.463 67.14C693.063 68.5533 691.349 69.26 689.323 69.26C687.296 69.26 685.583 68.5533 684.183 67.14C682.783 65.7133 682.083 64 682.083 62ZM694.723 62C694.723 60.4533 694.203 59.16 693.163 58.12C692.149 57.0667 690.869 56.54 689.323 56.54C687.789 56.54 686.503 57.0667 685.463 58.12C684.436 59.1733 683.923 60.4667 683.923 62C683.923 63.52 684.436 64.8133 685.463 65.88C686.503 66.92 687.789 67.44 689.323 67.44C690.869 67.44 692.149 66.92 693.163 65.88C694.203 64.8133 694.723 63.52 694.723 62Z" fill="white"/>
<path d="M699.519 55H704.599C705.879 55 706.952 55.4333 707.819 56.3C708.685 57.1667 709.119 58.2333 709.119 59.5C709.119 60.7667 708.685 61.8333 707.819 62.7C706.952 63.5667 705.879 64 704.599 64H701.379V69H699.519V55ZM701.379 62.26H704.599C705.385 62.26 706.025 62 706.519 61.48C707.025 60.9333 707.279 60.2733 707.279 59.5C707.279 58.7 707.025 58.04 706.519 57.52C706.012 57 705.372 56.74 704.599 56.74H701.379V62.26Z" fill="white"/>
<path d="M723.016 55H725.116V69H723.276V58.06L718.696 65.68H718.456L713.876 58.08V69H712.016V55H714.116L718.576 62.4L723.016 55Z" fill="white"/>
<path d="M740.009 69H738.029L736.889 65.86H730.589L729.449 69H727.469L732.689 55H734.789L740.009 69ZM733.729 57.22L731.229 64.12H736.249L733.729 57.22Z" fill="white"/>
<path d="M752.521 55V67.24H754.021V71.68H752.161V69H742.361V55H744.221V67.24H750.661V55H752.521Z" fill="white"/>
<path d="M767.43 69H765.57V58.56L758.37 69H756.87V55H758.73V65.46L765.93 55H767.43V69Z" fill="white"/>
<path d="M770.384 62C770.384 59.9733 771.084 58.26 772.484 56.86C773.884 55.4467 775.598 54.74 777.624 54.74C779.651 54.74 781.364 55.4467 782.764 56.86C784.178 58.26 784.884 59.9733 784.884 62C784.884 64.0133 784.178 65.7267 782.764 67.14C781.364 68.5533 779.651 69.26 777.624 69.26C775.598 69.26 773.884 68.5533 772.484 67.14C771.084 65.7133 770.384 64 770.384 62ZM783.024 62C783.024 60.4533 782.504 59.16 781.464 58.12C780.451 57.0667 779.171 56.54 777.624 56.54C776.091 56.54 774.804 57.0667 773.764 58.12C772.738 59.1733 772.224 60.4667 772.224 62C772.224 63.52 772.738 64.8133 773.764 65.88C774.804 66.92 776.091 67.44 777.624 67.44C779.171 67.44 780.451 66.92 781.464 65.88C782.504 64.8133 783.024 63.52 783.024 62Z" fill="white"/>
<path d="M796.48 60.94V55H798.32V69H796.48V62.7H789.68V69H787.82V55H789.68V60.94H796.48Z" fill="white"/>
<path d="M810.676 60.94V55H812.516V69H810.676V62.7H803.876V69H802.016V55H803.876V60.94H810.676Z" fill="white"/>
<path d="M821.292 69H816.213V55H818.073V60H821.292C822.572 60 823.646 60.4333 824.513 61.3C825.379 62.1667 825.812 63.2333 825.812 64.5C825.812 65.78 825.379 66.8533 824.513 67.72C823.659 68.5733 822.586 69 821.292 69ZM829.092 69H827.232V55H829.092V69ZM818.073 61.74V67.26H821.292C822.066 67.26 822.706 67 823.213 66.48C823.719 65.96 823.972 65.3 823.972 64.5C823.972 63.7 823.719 63.04 823.213 62.52C822.706 62 822.066 61.74 821.292 61.74H818.073Z" fill="white"/>
<path d="M838.251 61.78L842.751 69H840.631L837.191 63.48L833.751 69H831.651L836.151 61.8L831.911 55H834.011L837.191 60.1L840.371 55H842.471L838.251 61.78Z" fill="white"/>
<path d="M849.848 55H859.948V56.76H855.808V69H853.968V56.76H849.848V55Z" fill="white"/>
<path d="M864.349 62.8V67.24H870.849V69H862.489V55H870.749V56.76H864.349V61.06H870.249V62.8H864.349Z" fill="white"/>
<path d="M879.255 61.78L883.755 69H881.635L878.195 63.48L874.755 69H872.655L877.155 61.8L872.915 55H875.015L878.195 60.1L881.375 55H883.475L879.255 61.78Z" fill="white"/>
<path d="M894.951 60.94V55H896.791V69H894.951V62.7H888.151V69H886.291V55H888.151V60.94H894.951Z" fill="white"/>
<path d="M899.747 62C899.747 59.9733 900.447 58.26 901.847 56.86C903.247 55.4467 904.961 54.74 906.987 54.74C909.014 54.74 910.728 55.4467 912.128 56.86C913.541 58.26 914.247 59.9733 914.247 62C914.247 64.0133 913.541 65.7267 912.128 67.14C910.728 68.5533 909.014 69.26 906.987 69.26C904.961 69.26 903.247 68.5533 901.847 67.14C900.447 65.7133 899.747 64 899.747 62ZM912.388 62C912.388 60.4533 911.868 59.16 910.828 58.12C909.814 57.0667 908.534 56.54 906.987 56.54C905.454 56.54 904.168 57.0667 903.128 58.12C902.101 59.1733 901.587 60.4667 901.587 62C901.587 63.52 902.101 64.8133 903.128 65.88C904.168 66.92 905.454 67.44 906.987 67.44C908.534 67.44 909.814 66.92 910.828 65.88C911.868 64.8133 912.388 63.52 912.388 62Z" fill="white"/>
<path d="M915.163 69V67.32C916.11 67.4533 916.803 67.1867 917.243 66.52C917.696 65.8533 917.923 64.66 917.923 62.94V55H927.163V69H925.303V56.76H919.783V62.94C919.783 64.18 919.663 65.2267 919.423 66.08C919.196 66.9333 918.863 67.5733 918.423 68C917.996 68.4267 917.516 68.72 916.983 68.88C916.463 69.0267 915.856 69.0667 915.163 69Z" fill="white"/>
<path d="M930.132 62C930.132 59.9733 930.832 58.26 932.232 56.86C933.632 55.4467 935.345 54.74 937.372 54.74C939.399 54.74 941.112 55.4467 942.512 56.86C943.925 58.26 944.632 59.9733 944.632 62C944.632 64.0133 943.925 65.7267 942.512 67.14C941.112 68.5533 939.399 69.26 937.372 69.26C935.345 69.26 933.632 68.5533 932.232 67.14C930.832 65.7133 930.132 64 930.132 62ZM942.772 62C942.772 60.4533 942.252 59.16 941.212 58.12C940.199 57.0667 938.919 56.54 937.372 56.54C935.839 56.54 934.552 57.0667 933.512 58.12C932.485 59.1733 931.972 60.4667 931.972 62C931.972 63.52 932.485 64.8133 933.512 65.88C934.552 66.92 935.839 67.44 937.372 67.44C938.919 67.44 940.199 66.92 941.212 65.88C942.252 64.8133 942.772 63.52 942.772 62Z" fill="white"/>
<path d="M947.568 55H955.428V56.76H949.428V69H947.568V55Z" fill="white"/>
<path d="M968.535 69H966.675V58.56L959.475 69H957.975V55H959.835V65.46L967.035 55H968.535V69Z" fill="white"/>
<path d="M980.21 53.5H974.81V51.98H980.21V53.5ZM982.79 69H980.93V58.56L973.73 69H972.23V55H974.09V65.46L981.29 55H982.79V69Z" fill="white"/>
<path d="M642.16 91L645.52 83H647.4L642.9 93.68C641.9 96.0267 640.293 97.1333 638.08 97V95.28C638.84 95.36 639.46 95.2533 639.94 94.96C640.433 94.6533 640.84 94.12 641.16 93.36L641.3 93.04L636.56 83H638.44L642.16 91Z" fill="white"/>
<path d="M646.98 97V95.32C647.927 95.4533 648.62 95.1867 649.06 94.52C649.513 93.8533 649.74 92.66 649.74 90.94V83H658.98V97H657.12V84.76H651.6V90.94C651.6 92.18 651.48 93.2267 651.24 94.08C651.013 94.9333 650.68 95.5733 650.24 96C649.813 96.4267 649.333 96.72 648.8 96.88C648.28 97.0267 647.673 97.0667 646.98 97Z" fill="white"/>
<path d="M664.549 88H667.769C669.049 88 670.122 88.4333 670.989 89.3C671.856 90.1667 672.289 91.2333 672.289 92.5C672.289 93.78 671.856 94.8533 670.989 95.72C670.136 96.5733 669.062 97 667.769 97H662.689V83H664.549V88ZM664.549 95.26H667.769C668.542 95.26 669.182 95 669.689 94.48C670.196 93.96 670.449 93.3 670.449 92.5C670.449 91.7267 670.196 91.0733 669.689 90.54C669.196 90.0067 668.556 89.74 667.769 89.74H664.549V95.26Z" fill="white"/>
<path d="M678.44 83H684.04V97H682.2V91.64H679.42L675.799 97H673.7L677.42 91.52C676.46 91.3067 675.666 90.8 675.04 90C674.413 89.2133 674.1 88.3267 674.1 87.34C674.1 86.14 674.52 85.12 675.36 84.28C676.213 83.4267 677.24 83 678.44 83ZM678.44 89.96H682.2V84.74H678.44C677.773 84.74 677.186 84.9933 676.68 85.5C676.186 85.9933 675.94 86.6067 675.94 87.34C675.94 88.0733 676.186 88.6933 676.68 89.2C677.186 89.7067 677.773 89.96 678.44 89.96Z" fill="white"/>
<path d="M696.401 88.94V83H698.241V97H696.401V90.7H689.601V97H687.741V83H689.601V88.94H696.401Z" fill="white"/>
<path d="M701.198 90C701.198 87.9733 701.897 86.26 703.297 84.86C704.697 83.4467 706.411 82.74 708.438 82.74C710.464 82.74 712.178 83.4467 713.578 84.86C714.991 86.26 715.698 87.9733 715.698 90C715.698 92.0133 714.991 93.7267 713.578 95.14C712.178 96.5533 710.464 97.26 708.438 97.26C706.411 97.26 704.697 96.5533 703.297 95.14C701.897 93.7133 701.198 92 701.198 90ZM713.838 90C713.838 88.4533 713.318 87.16 712.278 86.12C711.264 85.0667 709.984 84.54 708.438 84.54C706.904 84.54 705.618 85.0667 704.578 86.12C703.551 87.1733 703.037 88.4667 703.037 90C703.037 91.52 703.551 92.8133 704.578 93.88C705.618 94.92 706.904 95.44 708.438 95.44C709.984 95.44 711.264 94.92 712.278 93.88C713.318 92.8133 713.838 91.52 713.838 90Z" fill="white"/>
<path d="M726.634 89.74C727.287 90.06 727.8 90.5067 728.174 91.08C728.547 91.6533 728.734 92.3067 728.734 93.04C728.734 94.16 728.34 95.1 727.554 95.86C726.767 96.62 725.807 97 724.674 97H718.634V83H724.234C725.34 83 726.267 83.3667 727.014 84.1C727.774 84.8333 728.154 85.74 728.154 86.82C728.154 88.0733 727.647 89.0467 726.634 89.74ZM724.234 84.74H720.494V89.02H724.234C724.82 89.02 725.314 88.8133 725.714 88.4C726.114 87.9867 726.314 87.48 726.314 86.88C726.314 86.2933 726.107 85.7933 725.694 85.38C725.294 84.9533 724.807 84.74 724.234 84.74ZM720.494 95.26H724.674C725.3 95.26 725.827 95.04 726.254 94.6C726.68 94.16 726.894 93.62 726.894 92.98C726.894 92.3533 726.674 91.82 726.234 91.38C725.82 90.94 725.3 90.72 724.674 90.72H720.494V95.26Z" fill="white"/>
<path d="M738.218 97.26C736.085 97.26 734.332 96.56 732.958 95.16C731.585 93.7733 730.898 92.0533 730.898 90C730.898 87.9467 731.585 86.2267 732.958 84.84C734.332 83.44 736.085 82.74 738.218 82.74C739.485 82.74 740.658 83.0467 741.738 83.66C742.818 84.2733 743.658 85.1 744.258 86.14L742.638 87.08C742.238 86.3067 741.638 85.6933 740.838 85.24C740.052 84.7733 739.178 84.54 738.218 84.54C736.592 84.54 735.272 85.06 734.258 86.1C733.245 87.1267 732.738 88.4267 732.738 90C732.738 91.56 733.245 92.8533 734.258 93.88C735.272 94.92 736.592 95.44 738.218 95.44C739.178 95.44 740.052 95.2133 740.838 94.76C741.638 94.2933 742.238 93.68 742.638 92.92L744.258 93.84C743.672 94.88 742.838 95.7133 741.758 96.34C740.692 96.9533 739.512 97.26 738.218 97.26Z" fill="white"/>
<path d="M750.865 89.8L757.245 97H754.965L748.925 90.28V97H747.065V83H748.925V89.32L754.765 83H757.045L750.865 89.8Z" fill="white"/>
<path d="M757.669 90C757.669 87.9733 758.369 86.26 759.769 84.86C761.169 83.4467 762.883 82.74 764.909 82.74C766.936 82.74 768.649 83.4467 770.049 84.86C771.463 86.26 772.169 87.9733 772.169 90C772.169 92.0133 771.463 93.7267 770.049 95.14C768.649 96.5533 766.936 97.26 764.909 97.26C762.883 97.26 761.169 96.5533 759.769 95.14C758.369 93.7133 757.669 92 757.669 90ZM770.309 90C770.309 88.4533 769.789 87.16 768.749 86.12C767.736 85.0667 766.456 84.54 764.909 84.54C763.376 84.54 762.089 85.0667 761.049 86.12C760.023 87.1733 759.509 88.4667 759.509 90C759.509 91.52 760.023 92.8133 761.049 93.88C762.089 94.92 763.376 95.44 764.909 95.44C766.456 95.44 767.736 94.92 768.749 93.88C769.789 92.8133 770.309 91.52 770.309 90Z" fill="white"/>
<path d="M783.085 81.5H777.685V79.98H783.085V81.5ZM785.665 97H783.805V86.56L776.605 97H775.105V83H776.965V93.46L784.165 83H785.665V97Z" fill="white"/>
<path d="M794.32 90C794.32 87.9733 795.02 86.26 796.42 84.86C797.82 83.4467 799.534 82.74 801.56 82.74C803.587 82.74 805.3 83.4467 806.7 84.86C808.113 86.26 808.82 87.9733 808.82 90C808.82 92.0133 808.113 93.7267 806.7 95.14C805.3 96.5533 803.587 97.26 801.56 97.26C799.534 97.26 797.82 96.5533 796.42 95.14C795.02 93.7133 794.32 92 794.32 90ZM806.96 90C806.96 88.4533 806.44 87.16 805.4 86.12C804.387 85.0667 803.107 84.54 801.56 84.54C800.027 84.54 798.74 85.0667 797.7 86.12C796.673 87.1733 796.16 88.4667 796.16 90C796.16 91.52 796.673 92.8133 797.7 93.88C798.74 94.92 800.027 95.44 801.56 95.44C803.107 95.44 804.387 94.92 805.4 93.88C806.44 92.8133 806.96 91.52 806.96 90Z" fill="white"/>
<path d="M813.616 88.5H817.016C818.216 88.5 819.243 88.9133 820.096 89.74C820.936 90.5533 821.356 91.5533 821.356 92.74C821.356 93.94 820.936 94.9533 820.096 95.78C819.283 96.5933 818.256 97 817.016 97H811.756V83H820.156V84.76H813.616V88.5ZM813.616 95.26H817.016C817.71 95.26 818.296 95.02 818.776 94.54C819.27 94.06 819.516 93.46 819.516 92.74C819.516 92.0333 819.27 91.44 818.776 90.96C818.296 90.48 817.71 90.24 817.016 90.24H813.616V95.26Z" fill="white"/>
<path d="M822.643 97V95.32C823.589 95.4533 824.282 95.1867 824.722 94.52C825.176 93.8533 825.403 92.66 825.403 90.94V83H834.643V97H832.783V84.76H827.263V90.94C827.263 92.18 827.143 93.2267 826.903 94.08C826.676 94.9333 826.343 95.5733 825.903 96C825.476 96.4267 824.996 96.72 824.463 96.88C823.943 97.0267 823.336 97.0667 822.643 97Z" fill="white"/>
<path d="M849.552 97H847.572L846.432 93.86H840.132L838.992 97H837.012L842.232 83H844.332L849.552 97ZM843.272 85.22L840.772 92.12H845.792L843.272 85.22Z" fill="white"/>
<path d="M857.975 97.26C855.842 97.26 854.089 96.56 852.715 95.16C851.342 93.7733 850.655 92.0533 850.655 90C850.655 87.9467 851.342 86.2267 852.715 84.84C854.089 83.44 855.842 82.74 857.975 82.74C859.242 82.74 860.415 83.0467 861.495 83.66C862.575 84.2733 863.415 85.1 864.015 86.14L862.395 87.08C861.995 86.3067 861.395 85.6933 860.595 85.24C859.809 84.7733 858.935 84.54 857.975 84.54C856.349 84.54 855.029 85.06 854.015 86.1C853.002 87.1267 852.495 88.4267 852.495 90C852.495 91.56 853.002 92.8533 854.015 93.88C855.029 94.92 856.349 95.44 857.975 95.44C858.935 95.44 859.809 95.2133 860.595 94.76C861.395 94.2933 861.995 93.68 862.395 92.92L864.015 93.84C863.429 94.88 862.595 95.7133 861.515 96.34C860.449 96.9533 859.269 97.26 857.975 97.26Z" fill="white"/>
<path d="M865.526 83H875.626V84.76H871.486V97H869.646V84.76H865.526V83Z" fill="white"/>
<path d="M888.726 97H886.866V86.56L879.666 97H878.166V83H880.026V93.46L887.226 83H888.726V97Z" fill="white"/>
<path d="M79.3657 6.25195H92.4121V19.2984H79.3657V6.25195Z" fill="#D9D9D9"/>
<path d="M79.3657 6.25195H92.4121V19.2984H79.3657V6.25195Z" fill="url(#paint0_linear_115_186)"/>
<path d="M133.726 82.8984H146.772V95.9449H133.726V82.8984Z" fill="#D9D9D9"/>
<path d="M133.726 82.8984H146.772V95.9449H133.726V82.8984Z" fill="url(#paint1_linear_115_186)"/>
</g>
<defs>
<linearGradient id="paint0_linear_115_186" x1="89.4115" y1="7.12606" x2="81.5967" y2="18.5417" gradientUnits="userSpaceOnUse">
<stop stop-color="#0057A8"/>
<stop offset="0.53125" stop-color="#D000D4"/>
</linearGradient>
<linearGradient id="paint1_linear_115_186" x1="143.772" y1="83.7725" x2="135.957" y2="95.1882" gradientUnits="userSpaceOnUse">
<stop stop-color="#0057A8"/>
<stop offset="0.53125" stop-color="#D000D4"/>
</linearGradient>
<clipPath id="clip0_115_186">
<rect width="983" height="143" fill="white"/>
</clipPath>
</defs>
</svg>
