<svg width="617" height="143" viewBox="0 0 617 143" fill="none" xmlns="http://www.w3.org/2000/svg">
<path fill-rule="evenodd" clip-rule="evenodd" d="M0 77.1914C0 54.0884 29.6978 53.1371 41.1201 53.1371H44.0765V52.1858C44.0765 40.3625 39.5075 36.0136 29.0259 36.0136C25.8008 36.0136 17.8724 36.829 17.8724 41.3138V45.2549H5.50956V38.3239C5.50956 27.316 22.5757 25.5493 28.7572 25.5493C51.1986 25.5493 57.1113 37.1008 57.1113 52.4576V81.6761C57.1113 83.7146 58.1863 84.6659 60.0676 84.6659H65.5772V95.9456H53.2143C47.1672 95.9456 44.8828 92.9558 44.8828 88.0634C44.8828 85.6172 45.0171 83.9864 45.0171 83.9864H44.7484C44.8828 83.9864 38.9701 97.5764 22.8445 97.5764C11.0191 97.5764 0 90.3737 0 77.1914ZM13.0348 75.9683C13.0348 81.5402 17.3349 87.1121 25.8008 87.1121C37.0887 87.1121 44.0765 75.4247 44.0765 65.2322V62.6501H40.5825C30.7729 62.6501 13.0348 63.6014 13.0348 75.9683Z" fill="white"/>
<path d="M78.6518 87.2478V41.4494C78.6518 39.4109 77.5768 38.4596 75.6955 38.4596H70.1859V27.1799H82.9519C89.1334 27.1799 91.6867 29.762 91.6867 35.8775V81.6759C91.6867 83.7144 92.7617 84.6657 94.643 84.6657H100.153V95.9454H87.2521C81.205 95.9454 78.6518 93.3633 78.6518 87.2478Z" fill="white"/>
<path d="M132.222 95.9456V82.8992H145.123V95.9456H132.222Z" fill="#111111"/>
<path d="M145.123 74.745H132.222V38.4596H119.053C117.172 38.4596 116.096 39.5468 116.096 41.4494V46.0701H105.346V35.6057C105.346 29.4902 107.899 27.1799 113.946 27.1799H163.398C169.445 27.1799 171.999 29.4902 171.999 35.6057V46.0701H161.248V41.4494C161.248 39.5468 160.173 38.4596 158.292 38.4596H145.123V74.745Z" fill="white"/>
<path d="M185.735 95.9454V41.4494C185.735 39.4109 184.66 38.4596 182.913 38.4596H177.538V27.1799H189.498C195.545 27.1799 198.098 29.6261 198.098 35.7416V68.4936C198.098 72.1629 197.695 77.3271 197.561 78.0066H197.829C198.367 76.9194 201.861 71.6193 204.146 68.4936L233.44 27.1799H246.34V81.6759C246.34 83.7144 247.416 84.6657 249.162 84.6657H254.537V95.9454H242.578C236.531 95.9454 233.978 93.3633 233.978 87.2478V54.6318C233.978 51.2343 234.381 46.0701 234.515 44.9829H234.246C233.709 46.206 230.215 51.5061 227.931 54.6318L198.636 95.9454H185.735Z" fill="white"/>
<path fill-rule="evenodd" clip-rule="evenodd" d="M262.217 61.4269C262.217 40.9059 277.535 27.3159 300.38 27.18V14.2695C300.38 12.231 299.305 11.2797 297.424 11.2797H291.914V0H304.814C310.862 0 313.415 2.5821 313.415 8.69761V27.18C336.26 27.3159 351.578 40.9059 351.578 61.4269C351.578 81.9478 336.26 95.8096 313.415 95.9455V123.126H300.38V95.9455C277.535 95.8096 262.217 81.9478 262.217 61.4269ZM313.415 85.2094C328.734 85.2094 338.275 75.4246 338.275 61.4269C338.275 47.5651 328.734 38.052 313.415 38.052V85.2094ZM275.386 61.4269C275.386 75.4246 284.927 85.2094 300.38 85.2094V38.052C284.927 38.052 275.386 47.5651 275.386 61.4269Z" fill="white"/>
<path fill-rule="evenodd" clip-rule="evenodd" d="M360.636 61.427C360.636 40.6342 376.896 25.5493 397.187 25.5493C417.478 25.5493 433.872 40.6342 433.872 61.427C433.872 82.3556 417.478 97.5764 397.187 97.5764C376.896 97.5764 360.636 82.3556 360.636 61.427ZM373.805 61.427C373.805 75.8324 384.421 86.1608 397.187 86.1608C410.087 86.1608 420.568 75.8324 420.568 61.427C420.568 47.1575 410.087 36.9649 397.187 36.9649C384.421 36.9649 373.805 47.1575 373.805 61.427Z" fill="white"/>
<path d="M449.773 95.9454V41.4494C449.773 39.4109 448.698 38.4596 446.816 38.4596H441.307V27.1799H454.208C460.254 27.1799 462.807 29.762 462.807 35.8775V55.3113H497.209V27.1799H510.244V81.6759C510.244 83.7144 511.318 84.6657 513.2 84.6657H518.575V95.9454H505.809C499.762 95.9454 497.209 93.3633 497.209 87.2478V66.3192H462.807V95.9454H449.773Z" fill="white"/>
<path fill-rule="evenodd" clip-rule="evenodd" d="M523.026 93.4992C523.026 87.6555 525.31 84.9375 531.223 84.9375H532.298C543.183 72.1629 543.585 51.642 543.585 41.5854V38.4596H535.255V27.1799H580.271C586.319 27.1799 588.872 29.762 588.872 35.8775V84.9375H591.022C596.935 84.9375 599.219 87.6555 599.219 93.4992V112.254H587.259V98.9352C587.259 97.0326 586.184 95.9454 584.437 95.9454H537.808C536.06 95.9454 534.986 97.0326 534.986 98.9352V112.254H523.026V93.4992ZM545.467 84.9375H575.836V41.4494C575.836 39.4109 574.762 38.4596 572.881 38.4596H555.948V41.4494C555.948 50.9625 555.679 71.8911 545.467 84.9375Z" fill="white"/>
<path d="M330.349 130.088C330.349 126.096 333.471 123.199 337.367 123.199C341.264 123.199 344.411 126.096 344.411 130.088C344.411 134.106 341.264 137.029 337.367 137.029C333.471 137.029 330.349 134.106 330.349 130.088ZM332.878 130.088C332.878 132.854 334.917 134.837 337.367 134.837C339.844 134.837 341.857 132.854 341.857 130.088C341.857 127.348 339.844 125.391 337.367 125.391C334.917 125.391 332.878 127.348 332.878 130.088Z" fill="white"/>
<path d="M347.154 130.114C347.154 126.226 349.966 123.199 354.172 123.199C355.746 123.199 358.868 123.852 358.868 126.096V127.453H356.597V126.722C356.597 125.783 355.101 125.365 354.172 125.365C351.618 125.365 349.683 127.296 349.683 130.088C349.683 133.089 351.85 134.785 354.301 134.785C356.753 134.785 358.353 132.958 358.353 132.958L359.41 134.759C359.41 134.759 357.578 137.029 354.12 137.029C350.019 137.029 347.154 134.08 347.154 130.114Z" fill="white"/>
<path d="M363.21 136.716V126.252C363.21 125.861 363.003 125.678 362.642 125.678H361.584V123.513H364.061C365.222 123.513 365.712 124.008 365.712 125.183V128.914H372.318V123.513H374.82V133.976C374.82 134.367 375.027 134.55 375.388 134.55H376.42V136.716H373.969C372.808 136.716 372.318 136.22 372.318 135.046V131.027H365.712V136.716H363.21Z" fill="white"/>
<path d="M378.9 130.088C378.9 126.096 382.022 123.199 385.918 123.199C389.814 123.199 392.961 126.096 392.961 130.088C392.961 134.106 389.814 137.029 385.918 137.029C382.022 137.029 378.9 134.106 378.9 130.088ZM381.428 130.088C381.428 132.854 383.466 134.837 385.918 134.837C388.395 134.837 390.407 132.854 390.407 130.088C390.407 127.348 388.395 125.391 385.918 125.391C383.466 125.391 381.428 127.348 381.428 130.088Z" fill="white"/>
<path d="M396.994 135.28V125.678H395.369V123.513H402.387C405.018 123.513 406.721 124.687 406.721 126.905C406.721 128.392 405.947 129.331 404.89 129.775V129.827C406.515 130.192 407.367 131.523 407.367 132.958C407.367 135.411 405.406 136.716 402.567 136.716H398.439C397.408 136.716 396.994 136.272 396.994 135.28ZM399.497 129.07H401.948C403.419 129.07 404.193 128.314 404.193 127.139C404.193 125.939 403.393 125.287 401.871 125.287H399.497V129.07ZM399.497 134.393C399.497 134.733 399.678 134.915 399.987 134.915H402.155C403.96 134.915 404.812 134.106 404.812 132.828C404.812 131.523 403.858 130.766 402.155 130.766H399.497V134.393Z" fill="white"/>
<path d="M409.986 133.115C409.986 128.679 415.689 128.496 417.882 128.496H418.449V128.314C418.449 126.044 417.572 125.209 415.559 125.209C414.94 125.209 413.418 125.365 413.418 126.226V126.983H411.044V125.652C411.044 123.539 414.321 123.199 415.508 123.199C419.817 123.199 420.952 125.417 420.952 128.366V133.976C420.952 134.367 421.159 134.55 421.52 134.55H422.578V136.716H420.204C419.043 136.716 418.604 136.142 418.604 135.202C418.604 134.733 418.629 134.419 418.629 134.419H418.578C418.604 134.419 417.469 137.029 414.373 137.029C412.102 137.029 409.986 135.646 409.986 133.115ZM412.489 132.88C412.489 133.95 413.315 135.02 414.94 135.02C417.108 135.02 418.449 132.776 418.449 130.819V130.323H417.778C415.895 130.323 412.489 130.505 412.489 132.88Z" fill="white"/>
<path d="M426.145 136.716V126.252C426.145 125.861 425.94 125.678 425.578 125.678H424.52V123.513H426.997C428.158 123.513 428.648 124.008 428.648 125.183V128.914H435.253V123.513H437.756V133.976C437.756 134.367 437.963 134.55 438.324 134.55H439.356V136.716H436.905C435.744 136.716 435.253 136.22 435.253 135.046V131.027H428.648V136.716H426.145Z" fill="white"/>
<path d="M451.086 135.28V125.678H449.462V123.513H456.479C459.11 123.513 460.813 124.687 460.813 126.905C460.813 128.392 460.04 129.331 458.982 129.775V129.827C460.607 130.192 461.459 131.523 461.459 132.958C461.459 135.411 459.498 136.716 456.66 136.716H452.532C451.499 136.716 451.086 136.272 451.086 135.28ZM453.589 129.07H456.04C457.511 129.07 458.285 128.314 458.285 127.139C458.285 125.939 457.485 125.287 455.963 125.287H453.589V129.07ZM453.589 134.393C453.589 134.733 453.77 134.915 454.079 134.915H456.247C458.053 134.915 458.905 134.106 458.905 132.828C458.905 131.523 457.949 130.766 456.247 130.766H453.589V134.393Z" fill="white"/>
<path d="M472.272 134.602C472.272 127.818 481.535 128.288 481.535 123.304C481.535 121.608 480.296 120.381 478.335 120.381C476.71 120.381 475.523 121.216 475.523 122.13V122.939H473.149V121.373C473.149 118.972 476.322 117.981 478.439 117.981C481.767 117.981 484.166 120.121 484.166 123.278C484.166 129.618 474.929 129.723 474.929 133.976C474.929 134.341 475.136 134.472 475.574 134.472H482.051C482.412 134.472 482.618 134.263 482.618 133.898V132.723H484.991V135.046C484.991 136.22 484.502 136.716 483.34 136.716H474.001C472.582 136.716 472.272 136.089 472.272 134.602Z" fill="white"/>
<path d="M494.779 137.029C489.928 137.029 488.354 132.802 488.354 127.479C488.354 122.182 489.928 117.981 494.779 117.981C499.654 117.981 501.229 122.182 501.229 127.479C501.229 132.802 499.654 137.029 494.779 137.029ZM494.779 134.654C497.771 134.654 498.622 131.497 498.622 127.479C498.622 123.486 497.771 120.355 494.779 120.355C491.811 120.355 490.96 123.486 490.96 127.479C490.96 131.497 491.811 134.654 494.779 134.654Z" fill="white"/>
<path d="M504.677 136.716V134.472H508.675V122.573C508.675 121.999 508.701 121.451 508.701 121.451H508.65C508.65 121.451 508.443 121.843 507.798 122.495L506.07 124.191L504.547 122.573L508.882 118.294H511.255V134.472H515.204V136.716H504.677Z" fill="white"/>
<path d="M524.513 137.029C520.643 137.029 517.702 133.689 517.702 128.548C517.702 123.747 520.282 117.981 525.906 117.981C528.074 117.981 529.441 118.738 529.441 118.738L528.616 120.955C528.616 120.955 527.48 120.355 526.035 120.355C522.681 120.355 520.952 123.513 520.566 126.67H520.617C521.34 125.548 523.043 124.869 524.642 124.869C528.074 124.869 530.37 127.505 530.37 130.871C530.37 134.498 527.919 137.029 524.513 137.029ZM520.411 129.644C520.411 131.993 522.191 134.654 524.513 134.654C526.603 134.654 527.841 133.01 527.841 130.871C527.841 128.653 526.448 127.061 524.1 127.061C522.062 127.061 520.411 128.314 520.411 129.644Z" fill="white"/>
<path d="M542.493 136.716V125.678H540.867V123.513H549.51C550.697 123.513 551.187 123.93 551.187 125.13V127.139H549.097V126.252C549.097 125.887 548.891 125.678 548.529 125.678H544.995V136.716H542.493Z" fill="white"/>
<path d="M553.521 130.088C553.521 126.096 556.643 123.199 560.539 123.199C564.434 123.199 567.583 126.096 567.583 130.088C567.583 134.106 564.434 137.029 560.539 137.029C556.643 137.029 553.521 134.106 553.521 130.088ZM556.049 130.088C556.049 132.854 558.088 134.837 560.539 134.837C563.015 134.837 565.028 132.854 565.028 130.088C565.028 127.348 563.015 125.391 560.539 125.391C558.088 125.391 556.049 127.348 556.049 130.088Z" fill="white"/>
<path d="M569.228 136.246C569.228 135.124 569.667 134.602 570.802 134.602H571.009C573.098 132.149 573.176 128.209 573.176 126.278V125.678H571.576V123.513H580.22C581.381 123.513 581.871 124.008 581.871 125.183V134.602H582.283C583.418 134.602 583.858 135.124 583.858 136.246V139.847H581.561V137.29C581.561 136.924 581.355 136.716 581.02 136.716H572.066C571.731 136.716 571.525 136.924 571.525 137.29V139.847H569.228V136.246ZM573.537 134.602H579.368V126.252C579.368 125.861 579.162 125.678 578.801 125.678H575.549V126.252C575.549 128.079 575.498 132.097 573.537 134.602Z" fill="white"/>
<path d="M588.092 142.195C586.157 142.195 585.021 140.89 585.021 140.89L586.054 139.064C586.079 139.142 586.878 140.003 587.962 140.003C588.969 140.003 589.769 139.273 590.259 138.098L590.852 136.663L586.389 126.2C586.208 125.783 586.001 125.678 585.589 125.678H585.254V123.513H586.724C587.782 123.513 588.195 123.8 588.608 124.843L591.549 132.28C591.807 132.958 592.013 133.871 592.013 133.871H592.065C592.065 133.871 592.271 132.958 592.504 132.28L595.238 124.843C595.6 123.8 596.065 123.513 597.122 123.513H598.619V125.678H598.283C597.87 125.678 597.638 125.783 597.458 126.2L592.323 139.09C591.497 141.125 589.923 142.195 588.092 142.195Z" fill="white"/>
<path d="M78.4775 6.25195H91.3779V19.2984H78.4775V6.25195Z" fill="#D9D9D9"/>
<path d="M78.4775 6.25195H91.3779V19.2984H78.4775V6.25195Z" fill="url(#paint0_linear_212_160)"/>
<path d="M132.23 82.8984H145.13V95.9449H132.23V82.8984Z" fill="#D9D9D9"/>
<path d="M132.23 82.8984H145.13V95.9449H132.23V82.8984Z" fill="url(#paint1_linear_212_160)"/>
<defs>
<linearGradient id="paint0_linear_212_160" x1="88.4109" y1="7.12606" x2="80.5647" y2="18.4594" gradientUnits="userSpaceOnUse">
<stop stop-color="#0057A8"/>
<stop offset="0.53125" stop-color="#D000D4"/>
</linearGradient>
<linearGradient id="paint1_linear_212_160" x1="142.163" y1="83.7725" x2="134.317" y2="95.1059" gradientUnits="userSpaceOnUse">
<stop stop-color="#0057A8"/>
<stop offset="0.53125" stop-color="#D000D4"/>
</linearGradient>
</defs>
</svg>
