<svg width="533" height="436" viewBox="0 0 533 436" fill="none" xmlns="http://www.w3.org/2000/svg">
<path d="M256.651 0.893354C249.665 2.70324 243.921 5.8059 238.539 10.615C237.038 11.9595 236.106 13.2006 236.313 13.5108C236.469 13.8728 236.417 13.9245 236.21 13.7177C235.951 13.5108 219.65 29.3861 199.985 48.9846L164.277 84.717L99.5893 84.8721C26.3109 85.0272 32.7279 84.6135 22.9989 89.4227C11.562 95.0075 3.79951 104.729 1.00499 116.933C-0.0817632 121.69 -0.0817632 121.845 0.0734876 219.683L0.228738 317.675L1.47075 321.295C5.86952 334.274 14.0461 343.117 26.2074 348.03C33.8147 351.029 32.2622 350.977 101.142 351.029H164.277L201.796 388.571C222.444 409.204 240.764 427.096 242.524 428.389C246.457 431.233 251.476 433.56 256.548 434.852C261.516 436.094 270.676 436.197 275.954 435.008C280.094 434.077 286.822 431.129 290.651 428.595C291.997 427.665 310.265 409.824 331.172 388.985L369.208 351.029H432.188C486.578 351.029 495.686 350.925 499.308 350.253C512.712 347.668 523.942 338.98 529.582 326.621C533.205 318.709 532.998 326.052 532.998 217.718C532.998 121.845 532.998 119.984 531.963 115.95C528.392 101.678 517.524 90.7672 502.465 86.1649L498.584 84.9755L433.741 84.8204L368.949 84.6652L331.534 47.3816C310.989 26.904 293.239 9.37396 292.1 8.44317C289.047 5.96104 283.51 3.06522 279.007 1.61731C273.418 -0.192578 262.344 -0.554556 256.651 0.893354ZM272.435 14.1314C274.609 14.5451 278.179 15.7344 280.353 16.7686C284.286 18.6302 285.062 19.3542 374.28 108.452C426.703 160.784 464.998 199.412 466.136 201.067C472.554 210.737 472.761 223.82 466.654 234.058C465.722 235.61 464.998 237.109 465.101 237.471C465.205 237.782 465.101 237.833 464.894 237.627C464.636 237.42 423.96 277.703 374.383 327.138C286.356 415.099 284.234 417.167 280.456 418.977C269.537 424.252 258.204 423.321 248.423 416.288C246.56 414.944 244.801 413.909 244.594 414.013C244.335 414.065 244.283 413.961 244.438 413.703C244.749 413.134 238.901 407.239 238.384 407.652C238.177 407.808 238.125 407.756 238.28 407.549C238.746 406.98 228.603 397.052 227.982 397.414C227.671 397.569 227.568 397.517 227.826 397.31C228.344 396.69 226.119 394.414 225.394 394.828C225.084 394.983 225.032 394.932 225.239 394.725C225.756 394.104 203.814 372.179 203.142 372.592C202.831 372.747 202.779 372.696 202.986 372.489C203.504 371.868 195.586 363.905 194.862 364.319C194.551 364.474 194.448 364.422 194.706 364.215C195.224 363.595 191.446 359.768 190.721 360.182C190.411 360.337 190.359 360.285 190.566 360.078C191.084 359.458 182.648 350.977 181.924 351.391C181.613 351.546 181.562 351.494 181.769 351.287C182.286 350.667 132.916 301.335 132.244 301.748C131.933 301.903 131.881 301.852 132.088 301.645C132.606 301.024 116.408 284.787 115.684 285.201C115.373 285.356 115.27 285.304 115.528 285.097C115.735 284.839 105.023 273.669 91.6715 260.328C71.5406 240.109 67.1936 235.455 65.8481 232.869C63.0018 227.233 62.3808 224.647 62.3291 218.131C62.3291 210.685 63.5193 206.445 67.1936 200.963C69.1601 198.119 91.4127 175.573 158.947 108.194L248.113 19.1474L252.511 17.0272C259.653 13.5108 265.19 12.7352 272.435 14.1314ZM104.195 144.805C78.2682 170.764 56.2743 193.155 55.3428 194.5C50.6853 201.48 48.4082 209.289 48.4082 218.131C48.46 225.578 49.3915 229.56 52.8588 236.747L55.498 242.177L103.419 290.113L151.34 338.101H95.4492C60.1038 338.101 38.6792 337.894 37.2302 337.584C28.2256 335.567 19.6351 329.155 15.8056 321.657C12.7006 315.555 12.9076 322.536 12.9076 217.821C12.9076 123.759 12.9076 122.001 13.9426 118.795C16.9441 109.125 25.3276 101.42 35.8847 98.6789C39.3519 97.7481 42.5605 97.6964 95.4492 97.6964L151.34 97.6447L104.195 144.805ZM499.515 99.2995C507.226 101.885 514.005 107.625 517.421 114.347C520.785 120.966 520.63 115.382 520.474 219.838L520.319 314.573L518.922 318.141C515.247 327.604 507.381 334.533 497.497 337.067C493.616 338.049 491.598 338.101 437.829 338.101H382.146L429.032 291.147C457.908 262.241 476.59 243.16 477.729 241.401C482.438 234.11 484.301 228.37 484.715 219.89C485.025 213.426 484.146 207.841 481.92 202.256C478.815 194.5 478.091 193.672 428.928 144.598C403.363 119.001 382.405 98.0067 382.405 97.8516C382.405 97.7481 407.866 97.6964 438.968 97.7481L495.479 97.9033L499.515 99.2995Z" fill="white"/>
<path d="M336.088 139.789C310.213 143.926 286.304 162.128 278.076 184.105C277.817 184.829 277.558 176.762 277.507 164.197L277.351 143.15H210.438H143.577V218.131V293.112H164.432H185.236V235.972V178.831H210.335H235.434V235.972V293.112H256.393H277.351L277.403 271.497C277.403 255.26 277.558 250.244 277.972 251.226C281.129 258.362 282.423 260.741 284.907 264.464C293.29 277.082 308.298 288.251 323.409 293.112C331.741 295.801 338.934 296.835 349.543 296.835C360.359 296.887 366.414 296.008 374.59 293.319C380.076 291.509 389.028 287.217 389.442 286.183C389.546 285.873 389.598 276.358 389.546 265.033L389.391 244.452L386.544 246.883C380.334 252.157 373.038 256.397 366.621 258.466C361.083 260.224 350.475 260.534 344.678 259.035C327.756 254.794 317.354 242.487 315.698 224.75C314.198 209.185 319.062 194.758 328.946 185.191C332.724 181.571 338.572 178.365 344.109 176.918C349.284 175.573 359.738 175.728 364.965 177.176C372.21 179.244 379.041 183.33 385.509 189.483L389.649 193.465V172.005V150.597L385.872 148.425C378.316 144.081 368.587 140.823 359.427 139.582C354.149 138.858 341.263 138.962 336.088 139.789Z" fill="white"/>
</svg>
