<svg width="500" height="493" viewBox="0 0 500 493" fill="none" xmlns="http://www.w3.org/2000/svg">
<path fill-rule="evenodd" clip-rule="evenodd" d="M270.5 148.5C275.479 154.146 280.812 159.479 286.5 164.5C293.882 155.939 301.882 148.439 310.5 142C312.774 144.468 314.607 146.968 316 149.5C308.631 156.702 301.464 164.035 294.5 171.5C292.063 173.433 289.729 175.6 287.5 178C286.5 178.667 285.5 178.667 284.5 178C277.938 171.27 271.271 164.77 264.5 158.5C261.871 155.369 259.038 152.369 256 149.5C255.333 148.833 255.333 148.167 256 147.5C258.016 145.316 260.183 143.316 262.5 141.5C265.186 143.856 267.853 146.189 270.5 148.5Z" fill="white"/>
<path fill-rule="evenodd" clip-rule="evenodd" d="M181.5 255.5C181.5 288.5 181.5 321.5 181.5 354.5C175.167 354.5 168.833 354.5 162.5 354.5C162.5 326.833 162.5 299.167 162.5 271.5C162.5 245.5 162.5 219.5 162.5 193.5C168.833 193.5 175.167 193.5 181.5 193.5C181.5 214.167 181.5 234.833 181.5 255.5Z" fill="#FBF2F2"/>
<path fill-rule="evenodd" clip-rule="evenodd" d="M244.5 193.5C246.03 194.211 247.363 195.211 248.5 196.5C260.248 216.097 272.248 235.597 284.5 255C285.448 255.483 286.448 255.649 287.5 255.5C299.51 234.658 312.176 214.158 325.5 194C332.158 193.5 338.825 193.334 345.5 193.5C328.989 218.853 312.656 244.353 296.5 270C314.398 297.782 332.064 325.782 349.5 354C342.174 354.5 334.841 354.666 327.5 354.5C314.012 330.825 299.846 307.492 285 284.5C270.479 307.555 255.979 330.555 241.5 353.5C235.074 354.12 229.074 353.453 223.5 351.5C240.083 324.248 257.083 297.248 274.5 270.5C266.143 257.768 257.81 245.101 249.5 232.5C245.649 225.451 241.316 218.784 236.5 212.5C233.358 206.222 229.691 200.222 225.5 194.5C231.798 193.504 238.132 193.17 244.5 193.5Z" fill="white"/>
<path fill-rule="evenodd" clip-rule="evenodd" d="M223.5 351.5C229.074 353.453 235.074 354.12 241.5 353.5C235.013 354.654 228.346 354.821 221.5 354C222.066 353.005 222.733 352.172 223.5 351.5Z" fill="white"/>
<line x1="92" y1="380.5" x2="392" y2="380.5" stroke="white" stroke-width="5"/>
</svg>
