<?xml version="1.0" standalone="no"?>
<!DOCTYPE svg PUBLIC "-//W3C//DTD SVG 20010904//EN"
 "http://www.w3.org/TR/2001/REC-SVG-20010904/DTD/svg10.dtd">
<svg version="1.0" xmlns="http://www.w3.org/2000/svg"
 width="700.000000pt" height="700.000000pt" viewBox="0 0 700.000000 700.000000"
 preserveAspectRatio="xMidYMid meet">
<metadata>
Created by potrace 1.14, written by Peter Selinger 2001-2017
</metadata>
<g transform="translate(0.000000,700.000000) scale(0.100000,-0.100000)"
fill="#000000" stroke="none">
<path d="M3240 6990 c-588 -49 -1120 -225 -1610 -534 -225 -141 -392 -276
-601 -485 -292 -292 -486 -561 -665 -921 -485 -975 -483 -2132 5 -3110 178
-357 373 -624 670 -920 395 -394 842 -670 1361 -840 1138 -375 2364 -151 3305
603 130 104 410 384 511 512 438 549 685 1148 766 1850 7 61 12 220 12 355 0
318 -26 545 -95 827 -194 794 -654 1488 -1316 1984 -477 358 -1068 592 -1673
664 -161 19 -524 27 -670 15z m1801 -1957 c123 -42 182 -103 222 -228 21 -67
22 -87 22 -405 l0 -335 -285 0 -285 0 -5 155 c-5 169 -11 189 -63 220 -30 19
-53 20 -409 20 l-378 0 0 -965 0 -965 -345 0 -345 0 0 965 0 965 -377 0 c-492
0 -465 14 -473 -240 l-5 -155 -287 -3 -288 -2 0 302 c0 167 5 334 10 372 27
185 131 287 320 316 30 4 696 7 1480 6 l1425 -1 66 -22z"/>
</g>
</svg>
