<svg width="162" height="128" viewBox="0 0 162 128" fill="none" xmlns="http://www.w3.org/2000/svg">
<path d="M75.3526 20.3885C70.5477 22.5726 67.7631 26.6131 53.6759 51.2933C51.2735 55.4977 34.4563 85.5835 31.3986 91.1529C27.6312 98.0328 26.7029 99.6709 23.9729 104.64C22.3348 107.534 21.0244 110.1 21.0244 110.373C21.0244 110.591 24.9011 110.755 29.6514 110.646L38.2784 110.482L45.868 96.4493C50.0723 88.7504 54.6042 80.4509 55.9692 78.0484C68.1999 56.4259 72.295 49.5461 73.6054 48.2356C75.6256 46.2153 78.2465 45.7239 80.7582 46.9252C82.1232 47.5804 83.4882 49.0546 85.3447 52.0032C89.2213 58.064 101.343 78.4306 111.389 95.6303L120.016 110.537H129.189H138.362L132.029 99.7255C128.534 93.8284 122.856 84.2731 119.416 78.5944C115.976 72.8612 112.536 67.2372 111.826 66.0359C111.116 64.8347 110.297 63.4696 110.024 63.0328C109.751 62.596 107.95 59.6475 106.039 56.4805C96.3195 40.5913 87.8563 27.2138 85.9999 24.8659C82.287 20.2247 78.8471 18.7504 75.3526 20.3885Z" fill="white"/>
<path d="M77.0453 70.7862C76.0079 71.7691 68.5275 84.273 58.6993 101.527C58.1533 102.401 56.8428 104.694 55.7508 106.551C54.6588 108.407 53.7852 110.045 53.7852 110.209C53.7852 110.373 56.679 110.537 60.2281 110.537H66.6164L69.3465 105.349L72.0766 100.162H84.1434C98.449 100.162 98.3944 100.162 96.2103 95.6848C93.5349 90.2792 82.2324 71.1138 81.2496 70.3494C79.8299 69.312 78.5741 69.4212 77.0453 70.7862Z" fill="white"/>
</svg>
