<svg width="2902" height="2537" viewBox="0 0 2902 2537" fill="none" xmlns="http://www.w3.org/2000/svg">
<path d="M2215.81 371.584C2156.14 385.99 2085.49 444.3 2058.05 501.239C2051.88 514.959 1996.31 715.958 1934.58 948.514C1872.85 1181.07 1813.86 1388.93 1803.57 1411.57C1776.13 1470.56 1707.54 1537.11 1643.06 1567.98C1579.96 1598.16 1536.74 1607.08 1458.55 1607.08C1381.72 1607.08 1337.14 1591.3 1292.55 1548.77L1259.63 1517.9H1157.43H1054.54L1015.44 1552.2C966.738 1594.73 929.012 1607.08 844.643 1607.08C732.151 1607.08 640.237 1571.41 569.586 1500.75C505.795 1437.64 511.283 1452.04 367.924 993.104C340.487 905.982 308.934 817.487 297.273 795.535C257.489 719.388 190.269 680.286 92.8669 675.484C39.3646 672.74 31.8194 674.112 18.7868 687.146C11.2416 694.692 4.38232 707.04 4.38232 713.9C4.38232 729.678 231.424 1451.36 255.432 1511.04C302.075 1628.34 404.964 1741.54 514.026 1795.04C616.915 1845.12 636.121 1848.55 832.296 1851.98C1026.41 1855.41 1046.99 1852.67 1117.64 1810.14L1158.11 1785.44L1179.38 1801.9C1191.72 1810.14 1218.47 1825.23 1239.05 1834.15C1274.72 1849.92 1285.69 1850.61 1427 1852.67C1518.91 1854.04 1595.05 1851.98 1622.48 1847.18C1765.84 1822.48 1898.23 1744.28 1979.17 1636.58C2051.88 1539.85 2056.68 1525.44 2209.64 949.2C2287.15 657.648 2350.25 413.43 2350.25 406.57C2350.25 400.396 2343.39 388.734 2334.48 380.502C2321.44 368.154 2310.47 365.41 2277.55 366.096C2255.6 366.782 2227.47 368.84 2215.81 371.584Z" fill="white"/>
<path d="M721.176 720.074C672.475 745.456 646.41 788.674 647.782 843.555C649.154 922.445 703.342 975.954 782.91 975.954C843.957 975.954 896.088 931.363 910.492 866.193C922.153 813.37 894.03 752.316 844.643 724.19C811.719 705.668 752.043 703.61 721.176 720.074Z" fill="white"/>
<path d="M1109.41 715.958C1055.22 737.91 1026.41 781.814 1026.41 844.241C1026.41 999.278 1246.6 1026.03 1286.38 875.111C1308.33 792.104 1244.54 708.412 1160.17 709.098C1141.65 709.098 1118.33 712.528 1109.41 715.958Z" fill="white"/>
<path d="M1473.64 722.818C1387.21 766.722 1378.98 897.063 1459.23 952.63C1494.9 977.326 1554.58 983.5 1589.56 965.664C1663.64 927.934 1691.76 839.439 1651.29 772.21C1614.94 713.214 1535.37 691.262 1473.64 722.818Z" fill="white"/>
<path d="M752.729 1093.95C690.995 1104.92 646.41 1161.86 647.782 1227.03C649.84 1327.87 749.299 1389.61 839.842 1345.71C891.972 1320.33 924.897 1250.36 909.806 1196.16C889.914 1120.7 827.495 1080.23 752.729 1093.95Z" fill="white"/>
<path d="M1132.73 1092.57C1064.83 1108.35 1025.73 1157.74 1025.73 1226.35C1025.73 1268.19 1036.02 1292.89 1068.94 1323.76C1110.78 1364.23 1167.03 1371.78 1219.16 1344.34C1297.36 1303.18 1314.5 1199.59 1254.83 1133.05C1224.65 1099.43 1173.89 1082.97 1132.73 1092.57Z" fill="white"/>
<path d="M1475.7 1103.55C1423.57 1130.3 1400.93 1172.15 1405.05 1233.21C1407.79 1282.6 1425.62 1313.47 1464.72 1340.22C1484.61 1353.26 1497.65 1356.69 1535.37 1356.69C1575.16 1356.69 1584.76 1353.94 1610.14 1336.11C1678.04 1288.09 1689.02 1197.53 1634.83 1135.79C1623.17 1122.07 1603.28 1106.98 1590.93 1102.18C1561.44 1089.14 1501.08 1090.52 1475.7 1103.55Z" fill="white"/>
<path d="M326.082 2020.74C276.695 2041.32 250.63 2060.53 220.449 2096.89C177.236 2149.71 165.575 2184.69 165.575 2262.21C165.575 2326.01 166.947 2334.24 187.525 2376.09C214.276 2430.28 257.489 2472.13 311.678 2497.51C345.974 2513.98 359.693 2516.03 419.368 2516.03C481.788 2516.03 491.391 2513.98 527.745 2495.45C574.388 2472.13 631.32 2413.82 649.84 2369.92C677.963 2305.43 677.277 2213.51 649.154 2153.14C626.518 2105.12 577.817 2055.04 529.803 2031.03C494.134 2012.51 479.044 2009.08 426.228 2007.02C373.411 2004.96 359.007 2007.02 326.082 2020.74ZM461.896 2183.32C491.391 2201.16 505.795 2225.17 506.481 2257.41C506.481 2293.08 493.448 2319.84 464.639 2339.05C406.336 2378.15 326.768 2334.93 326.768 2263.58C326.768 2190.87 401.534 2146.28 461.896 2183.32Z" fill="white"/>
<path d="M1849.53 2019.37C1772.7 2034.46 1700.68 2092.77 1665.7 2168.23C1644.43 2214.19 1638.26 2284.16 1649.92 2338.36C1660.9 2386.38 1704.11 2451.55 1744.58 2481.05C1783.68 2509.86 1851.58 2533.18 1897.54 2533.18C1971.62 2533.18 2060.11 2488.59 2103.32 2429.6C2165.05 2343.85 2169.17 2210.76 2111.55 2131.19C2064.22 2066.02 2013.46 2033.09 1938.7 2018.68C1897.54 2011.13 1892.74 2011.13 1849.53 2019.37ZM1945.56 2194.3C1986.03 2218.31 1999.74 2282.11 1973.68 2324.64C1959.96 2346.59 1922.92 2368.54 1897.54 2368.54C1872.85 2368.54 1835.12 2347.28 1820.72 2324.64C1810.43 2308.17 1808.37 2294.45 1810.43 2266.33C1813.17 2232.71 1815.92 2225.85 1839.24 2205.96C1860.5 2187.44 1871.48 2183.32 1896.17 2183.32C1912.63 2183.32 1934.58 2188.12 1945.56 2194.3Z" fill="white"/>
</svg>
