<svg width="143" height="125" viewBox="0 0 143 125" fill="none" xmlns="http://www.w3.org/2000/svg">
<path d="M109.187 18.3082C106.246 19.018 102.765 21.891 101.413 24.6964C101.109 25.3724 98.371 35.2758 95.329 46.734C92.287 58.1922 89.3802 68.4336 88.8732 69.549C87.5212 72.4558 84.1412 75.7344 80.964 77.2554C77.8544 78.7426 75.725 79.182 71.8718 79.182C68.0862 79.182 65.8892 78.4046 63.6922 76.309L62.0698 74.788H57.0336H51.9636L50.037 76.478C47.6372 78.5736 45.7782 79.182 41.6208 79.182C36.0776 79.182 31.5484 77.4244 28.067 73.943C24.9236 70.8334 25.194 71.5432 18.1298 48.931C16.7778 44.6384 15.223 40.2782 14.6484 39.1966C12.688 35.4448 9.37562 33.5182 4.57602 33.2816C1.93962 33.1464 1.56782 33.214 0.92562 33.8562C0.55382 34.228 0.21582 34.8364 0.21582 35.1744C0.21582 35.9518 11.4036 71.5094 12.5866 74.45C14.885 80.2298 19.955 85.8068 25.3292 88.4432C30.3992 90.9106 31.3456 91.0796 41.0124 91.2486C50.5778 91.4176 51.5918 91.2824 55.0732 89.1868L57.0674 87.97L58.1152 88.7812C58.7236 89.1868 60.0418 89.9304 61.0558 90.3698C62.8134 91.1472 63.3542 91.181 70.317 91.2824C74.8462 91.35 78.598 91.2486 79.95 91.012C87.0142 89.7952 93.5376 85.942 97.526 80.6354C101.109 75.8696 101.345 75.1598 108.883 46.7678C112.702 32.4028 115.812 20.37 115.812 20.032C115.812 19.7278 115.474 19.1532 115.034 18.7476C114.392 18.1392 113.851 18.004 112.229 18.0378C111.147 18.0716 109.762 18.173 109.187 18.3082Z" fill="white"/>
<path d="M35.5369 35.4785C33.1371 36.7291 31.8527 38.8585 31.9203 41.5625C31.9879 45.4495 34.6581 48.0859 38.5789 48.0859C41.5871 48.0859 44.1559 45.8889 44.8657 42.6779C45.4403 40.0753 44.0545 37.0671 41.6209 35.6813C39.9985 34.7687 37.0579 34.6673 35.5369 35.4785Z" fill="white"/>
<path d="M54.6677 35.2758C51.9975 36.3574 50.5779 38.5206 50.5779 41.5964C50.5779 49.2352 61.4277 50.5534 63.3881 43.1174C64.4697 39.0276 61.3263 34.904 57.1689 34.9378C56.2563 34.9378 55.1071 35.1068 54.6677 35.2758Z" fill="white"/>
<path d="M72.6154 35.6139C68.3566 37.7771 67.951 44.1991 71.9056 46.9369C73.6632 48.1537 76.6038 48.4579 78.3276 47.5791C81.978 45.7201 83.3638 41.3599 81.3696 38.0475C79.5782 35.1407 75.6574 34.0591 72.6154 35.6139Z" fill="white"/>
<path d="M37.0916 53.8996C34.0496 54.4404 31.8526 57.2458 31.9202 60.4568C32.0216 65.4254 36.9226 68.4674 41.3842 66.3042C43.953 65.0536 45.5754 61.606 44.8318 58.9358C43.8516 55.2178 40.7758 53.2236 37.0916 53.8996Z" fill="white"/>
<path d="M55.8167 53.832C52.4705 54.6094 50.5439 57.043 50.5439 60.423C50.5439 62.4848 51.0509 63.7016 52.6733 65.2226C54.7351 67.2168 57.5067 67.5886 60.0755 66.2366C63.9287 64.2086 64.7737 59.1048 61.8331 55.8262C60.3459 54.17 57.8447 53.3588 55.8167 53.832Z" fill="white"/>
<path d="M72.7169 54.3728C70.1481 55.691 69.0327 57.7528 69.2355 60.761C69.3707 63.1946 70.2495 64.7156 72.1761 66.0338C73.1563 66.676 73.7985 66.845 75.6575 66.845C77.6179 66.845 78.0911 66.7098 79.3417 65.831C82.6879 63.465 83.2287 59.0034 80.5585 55.9614C79.9839 55.2854 79.0037 54.5418 78.3953 54.3052C76.9419 53.663 73.9675 53.7306 72.7169 54.3728Z" fill="white"/>
<path d="M16.0679 99.5634C13.6343 100.577 12.3499 101.524 10.8627 103.315C8.73329 105.918 8.15869 107.642 8.15869 111.461C8.15869 114.604 8.22629 115.01 9.24029 117.072C10.5585 119.742 12.6879 121.804 15.3581 123.054C17.0481 123.866 17.7241 123.967 20.6647 123.967C23.7405 123.967 24.2137 123.866 26.0051 122.953C28.3035 121.804 31.1089 118.931 32.0215 116.768C33.4073 113.59 33.3735 109.061 31.9877 106.087C30.8723 103.721 28.4725 101.253 26.1065 100.07C24.3489 99.1578 23.6053 98.9888 21.0027 98.8874C18.4001 98.786 17.6903 98.8874 16.0679 99.5634ZM22.7603 107.574C24.2137 108.453 24.9235 109.636 24.9573 111.224C24.9573 112.982 24.3151 114.3 22.8955 115.247C20.0225 117.173 16.1017 115.044 16.1017 111.529C16.1017 107.946 19.7859 105.749 22.7603 107.574Z" fill="white"/>
<path d="M91.1379 99.4958C87.3523 100.239 83.8033 103.112 82.0795 106.83C81.0317 109.095 80.7275 112.543 81.3021 115.213C81.8429 117.579 83.9723 120.79 85.9665 122.243C87.8931 123.663 91.2393 124.812 93.5039 124.812C97.1543 124.812 101.514 122.615 103.644 119.708C106.686 115.483 106.889 108.926 104.049 105.005C101.717 101.794 99.2161 100.172 95.5319 99.462C93.5039 99.0902 93.2673 99.0902 91.1379 99.4958ZM95.8699 108.115C97.8641 109.298 98.5401 112.441 97.2557 114.537C96.5797 115.618 94.7545 116.7 93.5039 116.7C92.2871 116.7 90.4281 115.652 89.7183 114.537C89.2113 113.726 89.1099 113.05 89.2113 111.664C89.3465 110.008 89.4817 109.67 90.6309 108.689C91.6787 107.777 92.2195 107.574 93.4363 107.574C94.2475 107.574 95.3291 107.811 95.8699 108.115Z" fill="white"/>
</svg>
