<svg width="1006" height="351" viewBox="0 0 1006 351" fill="none" xmlns="http://www.w3.org/2000/svg">
<path fill-rule="evenodd" clip-rule="evenodd" d="M610.5 77.5C608.833 76.8333 607.167 76.1667 605.5 75.5C554.979 56.1168 503.313 40.2835 450.5 28C553.464 31.1071 655.46 42.7738 756.5 63C801.36 72.1291 845.02 85.1291 887.5 102C913.21 111.74 935.71 126.24 955 145.5C970.35 163.739 971.35 182.739 958 202.5C943.42 218.735 926.26 231.568 906.5 241C866.77 259.687 825.44 273.353 782.5 282C802.94 253.894 803.78 225.06 785 195.5C775 180.158 762.83 166.658 748.5 155C706.65 122.23 660.65 96.3967 610.5 77.5Z" fill="white"/>
<path fill-rule="evenodd" clip-rule="evenodd" d="M247.5 71.4999C248.675 71.2809 249.675 71.6142 250.5 72.4999C234.7 93.8606 231.867 116.861 242 141.5C251.091 159.932 263.257 176.098 278.5 190C301.241 209.732 325.908 226.732 352.5 241C425.284 278.041 501.618 305.374 581.5 323C482.228 319.933 383.895 308.599 286.5 289C245.968 280.618 206.302 269.285 167.5 255C139.064 244.877 113.564 230.044 91 210.5C69.632 188.095 69.2986 165.428 90 142.5C108.418 125.697 129.251 112.53 152.5 103C183.568 90.366 215.235 79.866 247.5 71.4999Z" fill="white"/>
</svg>
