<svg width="287" height="325" viewBox="0 0 287 325" fill="none" xmlns="http://www.w3.org/2000/svg">
<path d="M140.639 99.2906C138.606 99.8172 136.935 100.72 135.369 102.119C134.932 102.511 134.661 102.872 134.721 102.962C134.766 103.067 134.751 103.082 134.691 103.022C134.616 102.962 129.873 107.581 124.151 113.284L113.761 123.681L94.9388 123.726C73.6171 123.771 75.4842 123.651 72.6534 125.05C69.3256 126.675 67.067 129.504 66.2538 133.055C65.9376 134.439 65.9376 134.484 65.9828 162.952L66.028 191.464L66.3894 192.517C67.6693 196.294 70.0484 198.867 73.587 200.296C75.8004 201.169 75.3487 201.154 95.3905 201.169H113.761L124.678 212.093C130.686 218.096 136.016 223.302 136.528 223.678C137.673 224.506 139.133 225.183 140.609 225.559C142.054 225.92 144.72 225.95 146.255 225.604C147.46 225.333 149.418 224.476 150.532 223.739C150.923 223.468 156.239 218.277 162.322 212.213L173.389 201.169H191.715C207.54 201.169 210.191 201.139 211.245 200.943C215.145 200.191 218.412 197.663 220.053 194.067C221.107 191.765 221.047 193.902 221.047 162.38C221.047 134.484 221.047 133.942 220.746 132.769C219.707 128.616 216.545 125.441 212.163 124.102L211.034 123.756L192.166 123.711L173.314 123.666L162.427 112.817C156.45 106.859 151.285 101.758 150.953 101.487C150.065 100.765 148.454 99.9226 147.144 99.5013C145.518 98.9746 142.295 98.8693 140.639 99.2906ZM145.232 103.142C145.864 103.263 146.903 103.609 147.535 103.91C148.68 104.451 148.906 104.662 174.865 130.587C190.119 145.814 201.261 157.053 201.593 157.535C203.46 160.348 203.52 164.155 201.743 167.134C201.472 167.586 201.261 168.022 201.291 168.127C201.322 168.218 201.291 168.233 201.231 168.173C201.156 168.112 189.321 179.833 174.895 194.218C149.282 219.811 148.665 220.413 147.565 220.94C144.388 222.475 141.091 222.204 138.245 220.158C137.703 219.766 137.191 219.465 137.131 219.495C137.055 219.511 137.04 219.48 137.085 219.405C137.176 219.24 135.474 217.524 135.324 217.645C135.263 217.69 135.248 217.675 135.293 217.615C135.429 217.449 132.478 214.56 132.297 214.666C132.207 214.711 132.177 214.696 132.252 214.636C132.402 214.455 131.755 213.793 131.544 213.913C131.454 213.958 131.439 213.943 131.499 213.883C131.649 213.703 125.265 207.323 125.069 207.443C124.979 207.489 124.964 207.473 125.024 207.413C125.175 207.233 122.871 204.916 122.66 205.036C122.57 205.081 122.54 205.066 122.615 205.006C122.765 204.825 121.666 203.712 121.455 203.832C121.365 203.877 121.35 203.862 121.41 203.802C121.561 203.622 119.106 201.154 118.896 201.274C118.805 201.32 118.79 201.305 118.85 201.244C119.001 201.064 104.636 186.71 104.44 186.83C104.35 186.875 104.335 186.86 104.395 186.8C104.546 186.619 99.8325 181.895 99.6217 182.015C99.5314 182.06 99.5013 182.045 99.5766 181.985C99.6368 181.91 96.5199 178.66 92.635 174.778C86.7775 168.895 85.5127 167.541 85.1212 166.788C84.293 165.148 84.1123 164.396 84.0972 162.5C84.0972 160.333 84.4436 159.1 85.5127 157.505C86.0849 156.677 92.5597 150.117 112.21 130.512L138.154 104.602L139.434 103.985C141.512 102.962 143.123 102.736 145.232 103.142ZM96.2789 141.164C88.735 148.718 82.3355 155.233 82.0644 155.624C80.7093 157.655 80.0467 159.927 80.0467 162.5C80.0618 164.667 80.3328 165.825 81.3417 167.917L82.1096 169.497L96.0531 183.445L109.997 197.408H93.7342C83.4498 197.408 77.2159 197.347 76.7942 197.257C74.1742 196.67 71.6746 194.805 70.5604 192.623C69.6569 190.847 69.7171 192.879 69.7171 162.41C69.7171 135.041 69.7171 134.529 70.0183 133.596C70.8916 130.783 73.331 128.541 76.4027 127.743C77.4116 127.472 78.3452 127.457 93.7342 127.457L109.997 127.442L96.2789 141.164ZM211.305 127.924C213.548 128.676 215.521 130.346 216.515 132.302C217.494 134.228 217.448 132.603 217.403 162.997L217.358 190.561L216.951 191.6C215.882 194.353 213.594 196.369 210.718 197.107C209.588 197.392 209.001 197.408 193.356 197.408H177.154L190.796 183.745C199.198 175.335 204.634 169.783 204.966 169.271C206.336 167.149 206.878 165.479 206.998 163.012C207.089 161.131 206.833 159.506 206.185 157.881C205.282 155.624 205.071 155.383 190.766 141.104C183.328 133.656 177.229 127.548 177.229 127.502C177.229 127.472 184.638 127.457 193.687 127.472L210.13 127.517L211.305 127.924Z" fill="white"/>
<path d="M163.752 139.705C156.224 140.909 149.267 146.205 146.873 152.6C146.797 152.81 146.722 150.463 146.707 146.807L146.662 140.683H127.192H107.738V162.5V184.317H113.806H119.859V167.691V151.065H127.162H134.465V167.691V184.317H140.564H146.662L146.677 178.028C146.677 173.303 146.722 171.844 146.843 172.13C147.761 174.206 148.138 174.898 148.86 175.982C151.3 179.653 155.666 182.903 160.063 184.317C162.488 185.1 164.581 185.401 167.667 185.401C170.815 185.416 172.576 185.16 174.955 184.377C176.552 183.851 179.157 182.602 179.277 182.301C179.307 182.211 179.322 179.442 179.307 176.147L179.262 170.159L178.434 170.866C176.627 172.401 174.504 173.634 172.637 174.236C171.025 174.748 167.939 174.838 166.252 174.402C161.328 173.168 158.302 169.587 157.82 164.426C157.383 159.897 158.798 155.699 161.675 152.916C162.774 151.862 164.475 150.93 166.086 150.508C167.592 150.117 170.634 150.162 172.155 150.583C174.263 151.185 176.25 152.374 178.133 154.165L179.337 155.323V149.079V142.85L178.238 142.218C176.04 140.954 173.209 140.006 170.544 139.645C169.008 139.434 165.258 139.464 163.752 139.705Z" fill="white"/>
</svg>
