<svg width="336" height="336" viewBox="0 0 336 336" fill="none" xmlns="http://www.w3.org/2000/svg">
<path d="M163.009 59.6244C158.241 62.922 154.676 65.6403 150.13 69.5618C148.17 71.2552 146.432 72.6366 146.298 72.6366C146.164 72.6366 148.526 70.052 151.556 66.9326C154.587 63.8133 157.483 60.5602 157.929 59.7135C158.508 58.6886 158.597 58.3321 158.152 58.6441C157.795 58.9114 155.523 60.7385 153.072 62.6992C139.658 73.3942 132.751 78.0732 118.046 86.4509L107.618 92.3777L100.042 99.9979C92.8679 107.217 92.1103 108.153 85.6488 117.734C81.9501 123.304 78.7416 128.161 78.6079 128.518C78.4297 128.919 79.0535 130.033 80.1676 131.325C81.148 132.484 82.975 135.158 84.2228 137.252L86.4954 141.04L86.2281 136.584C86.0053 133.687 86.0944 131.414 86.4509 130.167C87.1193 127.716 90.105 122.68 97.7252 111.183C103.429 102.583 104.454 101.29 110.247 95.5862C118.179 87.6987 122.234 84.4011 125.042 83.5544C127.448 82.886 136.628 81.5045 138.5 81.5937C139.168 81.6382 137.252 81.9947 134.222 82.4849C123.527 84.0891 122.636 84.4902 115.862 91.3082C111.807 95.408 109.4 98.7502 105.212 106.058C100.978 113.411 98.6164 121.299 96.923 133.687C96.522 136.494 96.1209 139.436 95.9872 140.238C95.7644 141.485 95.8981 141.708 97.0567 142.332C97.8143 142.733 99.1066 143.045 99.9087 143.045C101.513 143.045 100.978 143.758 111.985 126.468C115.55 120.898 115.372 120.987 124.774 121.076C136.895 121.254 137.653 121.566 140.149 126.869C141.218 129.097 141.396 129.231 142.065 128.651C143.535 127.404 157.439 118.09 157.662 118.268C157.751 118.358 157.394 119.427 156.904 120.586C156.369 121.744 156.013 122.725 156.102 122.814C156.146 122.903 158.33 122.725 160.87 122.502C165.326 122.056 172.813 122.279 176.021 122.948C178.65 123.482 178.026 124.151 174.372 124.685C172.456 124.953 169.782 125.532 168.446 125.933C166.262 126.602 166.128 126.735 167.109 127.003C167.733 127.181 169.693 127.582 171.52 127.849C175.041 128.384 178.695 129.766 178.695 130.523C178.695 130.835 177.625 131.013 176.155 131.013C174.729 131.058 172.991 131.325 172.278 131.593L170.986 132.172L175.754 135.648C181.948 140.149 182.572 141.307 183.107 149.507L183.419 153.517L183.998 151.646C184.488 150.086 184.889 149.685 186.449 149.106C190.415 147.59 199.773 146.164 200.263 146.967C200.397 147.189 199.461 147.68 198.169 148.081C193.356 149.596 193.757 149.952 200.397 149.997C206.992 149.997 210.78 150.398 210.78 151.111C210.78 151.334 209.532 151.512 208.017 151.512C205.12 151.512 199.773 152.492 198.436 153.205C197.857 153.562 198.302 153.74 200.308 153.963C205.566 154.542 207.616 155.122 209.755 156.681C215.949 161.137 223.124 163.633 229.852 163.722L233.952 163.767L235.512 162.162L237.116 160.603L234.888 159.177C231.769 157.127 225.797 150.576 226.51 149.908C226.867 149.551 232.081 152.314 235.868 154.899C237.74 156.191 239.3 157.171 239.3 157.038C239.3 156.904 237.562 152.938 235.467 148.17C231.546 139.257 226.867 130.657 223.658 126.29C222.678 124.908 221.92 123.705 222.054 123.616C222.366 123.259 227.312 127.537 229.942 130.389L232.303 133.019L230.387 129.454C227.624 124.284 224.149 119.16 221.252 115.951C219.826 114.392 218.846 113.01 219.024 112.832C219.158 112.654 221.608 112.52 224.46 112.52H229.585L228.07 111.272C227.268 110.559 223.881 108.688 220.584 107.083C217.286 105.435 214.478 104.053 214.389 103.964C214.256 103.875 214.389 103.607 214.657 103.34C215.191 102.805 223.569 104.632 226.065 105.836C229.362 107.44 220.361 99.8196 214.167 95.809C210.602 93.4918 207.705 91.3528 207.705 91.0854C207.66 90.5061 210.824 88.6791 213.186 88.0106L215.013 87.4759L212.562 87.1639C211.225 86.9857 208.24 87.0748 205.923 87.3422C200.753 87.9215 199.996 87.4759 202.981 85.6043C204.808 84.4456 206.636 83.6435 212.785 81.148C214.568 80.435 204.586 77.3602 193.445 75.1767C191.841 74.8647 190.504 74.3746 190.415 74.1072C190.192 73.4387 197.277 69.6064 200.219 68.8043C201.511 68.4478 203.249 68.1804 204.095 68.1358C205.388 68.0913 205.254 68.0021 203.204 67.6456C198.258 66.799 186.048 68.0913 177.403 70.4531C175.308 71.0324 173.927 71.1661 173.659 70.8987C173.169 70.4085 179.898 65.2838 183.552 63.4122L186.048 62.1645L182.572 62.0308C178.071 61.8525 175.486 62.6101 168.535 66.0414C164.569 68.0021 162.92 68.626 162.563 68.2695C162.251 67.9576 163.588 66.7098 167.465 63.8578C170.406 61.7189 173.169 59.669 173.615 59.4016C175.13 58.3767 170.986 60.1592 168 61.808C166.396 62.6547 163.455 64.4372 161.405 65.774C159.399 67.1109 157.528 68.1804 157.305 68.1804C156.057 68.1804 157.35 66.4425 162.029 61.9862C164.881 59.2679 167.109 57.0398 167.02 57.0398C166.93 57.0398 165.103 58.1984 163.009 59.6244ZM170.362 78.8754C171.832 80.6133 173.971 86.1836 175.442 92.1549C176.378 95.8536 176.645 98.0372 176.645 102.092L176.69 107.217L178.472 108.019L180.255 108.821L178.606 109.311C177.091 109.802 177.002 109.891 177.625 110.693C178.428 111.807 178.428 112.297 177.581 112.297C176.823 112.297 176.69 113.01 177.358 113.411C177.982 113.812 179.586 117.021 179.586 117.823C179.586 118.358 179.274 118.447 178.294 118.268C177.046 118.001 177.002 118.09 177.046 119.427L177.135 120.853L174.551 120.898C173.169 120.942 172.011 120.853 172.011 120.675C172.011 120.229 174.595 119.784 175.576 120.096C176.823 120.497 176.69 119.65 175.308 118.58C173.704 117.288 174.328 116.62 176.779 116.976C178.65 117.244 178.739 117.199 178.294 116.397C178.026 115.907 177.135 114.926 176.244 114.169C174.372 112.52 174.283 111.985 175.843 111.584L177.046 111.272L175.843 110.648C174.372 109.891 174.551 108.999 176.155 108.821C177.625 108.643 177.313 107.841 175.798 107.841C174.773 107.841 174.773 107.796 175.442 106.459C175.977 105.345 176.066 104.276 175.843 101.558C175.13 93.0016 170.005 78.296 168.134 79.4547C167.866 79.6329 165.861 82.1284 163.722 84.9804C161.538 87.8769 158.196 91.8876 156.236 93.8929C154.319 95.9427 152.938 97.5915 153.205 97.5915C153.473 97.5915 155.255 96.8785 157.127 96.0319C158.998 95.1852 160.647 94.5613 160.781 94.695C160.915 94.7841 158.241 96.2101 154.854 97.8143C145.362 102.315 144.025 103.251 139.614 108.598C135.692 113.367 134.578 113.946 136.405 110.336C138.232 106.638 143.58 101.157 147.991 98.4382L150.041 97.1459L149.596 95.3634C149.106 93.67 149.061 93.6255 148.259 94.383C147.813 94.7841 147.1 95.7199 146.744 96.3883C145.897 98.0817 145.139 97.7252 144.56 95.3189L144.07 93.3581L142.287 95.2743C141.263 96.2992 140.015 98.0817 139.436 99.1512C138.856 100.265 138.232 101.157 138.054 101.157C137.876 101.157 137.386 100.666 136.985 100.042C136.093 98.661 135.603 98.9284 135.024 101.157C134.489 103.162 133.642 103.429 132.617 101.959L131.904 100.978V101.959C131.904 102.493 132.306 103.964 132.796 105.256C133.865 108.064 133.865 108.108 133.019 107.395C132.127 106.638 131.013 102.805 131.013 100.399C131.013 98.1263 131.414 97.9926 132.528 99.9533L133.33 101.379L134.088 100.265C135.648 97.8589 137.252 96.8785 137.252 98.26C137.252 99.374 137.876 99.0175 139.257 97.235C140.728 95.3189 144.649 91.7984 145.318 91.7984C145.541 91.7984 145.719 92.556 145.719 93.4472V95.096L146.967 93.8929C147.635 93.269 148.66 92.6451 149.239 92.6006C150.13 92.4669 150.353 92.6897 150.487 93.8037C150.576 94.5167 150.843 95.3189 151.111 95.5862C151.69 96.1655 155.745 92.0658 160.781 85.7825C167.955 76.7364 168.356 76.469 170.362 78.8754Z" fill="white"/>
<path d="M94.2939 81.8609C94.1602 82.7968 94.0265 84.7129 94.0265 86.1389C94.0265 92.5113 93.0907 97.5469 90.2387 106.682L89.5703 108.866L91.4419 106.682C92.4223 105.479 96.4329 101.335 100.31 97.5023L107.306 90.506L104.142 87.6541C100.488 84.4456 97.4578 81.9946 95.7645 80.9251L94.6059 80.1676L94.2939 81.8609Z" fill="white"/>
<path d="M107.752 98.7948C106.415 100.221 104.009 103.385 102.404 105.836C97.9481 112.609 91.5756 122.992 89.5703 126.646C87.877 129.766 87.7878 130.078 87.8324 133.91C87.8324 136.093 87.9661 139.302 88.1889 141.04L88.5008 144.115L86.2727 146.61C75.6223 158.375 71.5226 163.41 68.8934 168.045C68.0022 169.56 68.0022 169.56 68.8934 168.936C69.339 168.579 70.7205 167.376 71.9682 166.262C73.1714 165.148 70.8096 167.644 66.7099 171.877C62.6101 176.066 59.2679 179.72 59.2679 179.987C59.2679 180.656 61.7189 180.611 65.8186 179.809C70.3194 178.918 76.0679 178.873 78.1178 179.765C79.5884 180.344 79.7666 180.344 80.5242 179.497C80.9698 179.007 83.287 177.002 85.6488 175.085C90.3279 171.342 92.155 170.585 94.5168 171.565C96.1656 172.278 96.7003 173.258 96.6557 175.442L96.6112 177.135L96.2992 175.487C95.8982 173.437 95.1852 172.59 93.6255 172.234C91.7985 171.832 90.4616 172.545 85.1141 176.556L80.2568 180.255L80.4796 182.037C80.7916 184.31 80.1677 185.157 74.0626 190.95C71.5226 193.356 69.0717 196.074 68.626 197.01C68.1358 197.901 67.2892 199.015 66.7099 199.506C65.6849 200.308 65.9523 200.308 78.3852 200.308C95.0069 200.308 96.6112 199.862 100.042 194.47C100.889 193.133 102.627 190.014 103.875 187.474C106.95 181.369 109.668 177.269 112.431 174.506C114.481 172.501 115.728 171.832 122.546 168.936C126.824 167.109 132.083 164.747 134.222 163.678C139.035 161.316 142.154 161.048 144.248 162.831C146.209 164.524 145.897 166.797 142.867 173.258C140.416 178.472 140.282 178.873 137.519 193.089C135.915 201.065 134.4 208.151 134.044 208.864C133.732 209.532 132.484 210.735 131.325 211.493C128.028 213.676 127.226 214.568 124.552 219.425C120.764 226.154 118.358 229.362 116.174 230.476C113.411 231.858 106.771 232.125 103.296 230.967C100.845 230.12 100.8 230.12 101.201 230.922C101.424 231.368 102.449 232.259 103.429 232.927C105.702 234.443 109.935 234.71 116.129 233.774C123.705 232.615 124.552 232.036 129.365 224.728C133.063 219.158 135.024 214.389 137.029 206.235C137.43 204.63 138.5 202.046 139.391 200.531C140.995 197.812 146.075 191.841 146.476 192.242C146.566 192.331 145.541 193.98 144.159 195.896C142.778 197.857 141.352 199.951 140.995 200.62L140.371 201.823L142.956 200.932C144.337 200.441 147.412 199.194 149.729 198.08C152.047 197.01 154.988 196.03 156.191 195.896L158.419 195.629L156.859 196.253C153.562 197.5 150.621 199.238 150.621 199.862C150.621 201.021 161.761 211.805 165.549 214.345C167.599 215.726 168.713 216.261 168.134 215.637C167.242 214.657 164.881 210.334 164.881 209.71C164.881 208.997 166.218 209.666 169.515 212.072C173.036 214.612 175.977 216.35 176.244 216.038C176.333 215.949 174.818 214.657 172.857 213.097C170.941 211.537 169.337 209.978 169.337 209.621C169.337 208.819 169.203 208.819 171.832 210.067C176.511 212.34 182.394 214.033 186.048 214.211L189.613 214.389L192.242 211.003C195.272 207.081 202.536 199.639 211.226 191.44L217.241 185.736L212.607 189.123C210.022 190.994 207.883 192.42 207.75 192.331C207.482 192.019 210.958 187.518 213.988 184.176C215.504 182.483 220.45 177.403 224.995 172.768L233.284 164.435H229.229C222.678 164.435 215.414 162.118 210.156 158.33C207.17 156.191 204.853 155.523 198.837 155.211C196.074 155.077 193.713 154.765 193.579 154.587C193.311 154.141 194.604 153.473 198.258 152.136L201.199 151.066L196.966 151.334C194.648 151.467 192.242 151.646 191.663 151.646C189.836 151.779 190.148 150.844 192.376 149.596C193.935 148.749 194.247 148.393 193.534 148.393C192.064 148.393 186.092 150.532 185.87 151.156C185.201 153.161 182.75 157.082 182.126 157.216C181.413 157.35 181.369 157.127 181.681 154.988C181.859 153.696 182.037 150.621 182.037 148.17C181.993 141.084 181.012 139.658 172.902 134.757C170.807 133.509 169.114 132.172 169.114 131.86C169.114 131.504 170.273 130.835 171.788 130.3L174.417 129.365L170.897 128.562C168.936 128.161 166.619 127.671 165.772 127.493L164.212 127.181L165.995 126.245C166.975 125.755 168.668 125.042 169.783 124.73L171.788 124.106L170.005 123.794C169.025 123.616 165.148 123.661 161.405 123.928C157.617 124.195 154.409 124.284 154.275 124.106C154.097 123.928 154.409 123.037 154.943 122.056C156.102 119.962 156.503 119.695 148.036 126.201C144.248 129.097 140.951 131.414 140.728 131.37C140.505 131.281 139.658 129.632 138.812 127.671C137.965 125.755 136.985 123.883 136.673 123.527C135.336 122.235 120.363 121.744 117.199 122.903C116.531 123.17 113.679 127.047 109.222 133.732C101.602 145.14 101.825 144.961 98.0817 143.936C97.0122 143.669 95.9427 143.001 95.5417 142.377C94.9178 141.441 94.9178 140.995 95.5417 137.831C95.8982 135.915 96.5666 132.038 96.9677 129.231C97.7698 123.393 99.8197 115.105 101.246 111.718C102.404 109 106.816 101.424 109 98.3491C109.846 97.1905 110.426 96.2547 110.381 96.2547C110.292 96.2547 109.089 97.4133 107.752 98.7948ZM130.3 130.969C130.434 131.192 130.078 131.504 129.454 131.637C128.83 131.815 128.34 132.172 128.34 132.439C128.34 132.707 127.894 134.578 127.359 136.539C126.156 140.995 124.463 143.045 120.051 145.095C118.135 146.031 116.664 147.056 116.308 147.724C115.55 149.15 115.238 148.883 115.862 147.279C116.263 146.254 116.219 146.12 115.595 146.343C115.238 146.476 114.614 146.61 114.302 146.61C113.99 146.61 113.055 147.145 112.208 147.813L110.737 149.061L111.54 147.813L112.342 146.566L110.559 146.788C109.579 146.878 108.554 147.1 108.242 147.323C107.975 147.501 108.108 147.056 108.643 146.343C109.178 145.541 109.623 144.026 109.757 142.466C109.98 140.015 109.98 139.881 109.267 140.461C107.707 141.797 107.262 141.887 107.841 140.772C109.222 138.099 112.163 134.846 113.857 134.088C117.11 132.662 123.259 131.281 129.543 130.612C129.81 130.612 130.167 130.746 130.3 130.969ZM96.121 151.245C96.9231 152.359 98.3491 153.696 99.3295 154.275C101.468 155.478 101.736 156.102 99.8642 155.478C98.4382 154.988 97.0568 153.829 95.4971 151.779L94.4722 150.532L92.3778 152.314C88.7237 155.389 86.0945 158.33 85.2924 160.202C84.6685 161.717 84.5348 161.85 84.1337 161.137C83.9109 160.736 83.7772 159.177 83.8664 157.751L84 155.077L80.4796 158.553C76.0679 162.875 76.2462 162.073 80.7916 157.082C84.0446 153.562 86.0945 152.18 85.3815 154.052C85.2032 154.453 84.9359 155.656 84.8022 156.726L84.5348 158.642L89.2138 153.963C91.7985 151.378 94.0711 149.284 94.3385 149.284C94.5613 149.284 95.3634 150.175 96.121 151.245Z" fill="white"/>
<path d="M116.129 135.648C113.411 136.673 112.342 137.876 112.297 139.926C112.297 141.53 113.857 143.847 115.149 144.204C116.441 144.516 120.452 143.312 121.432 142.288C122.457 141.307 122.279 138.054 121.165 136.628C119.65 134.712 119.026 134.578 116.129 135.648Z" fill="white"/>
<path d="M74.5082 132.707C71.4334 135.737 71.1215 136.45 72.2355 137.876C72.7257 138.5 74.2854 139.926 75.6668 140.995C77.0483 142.065 79.321 144.07 80.6133 145.407C83.3316 148.17 83.287 148.17 85.6042 145.229L86.8966 143.535L85.9607 141.842C83.7326 137.876 77.9395 130.568 77.0483 130.568C76.87 130.568 75.7114 131.548 74.5082 132.707Z" fill="white"/>
<path d="M76.6026 147.902L74.5527 150.442L75.444 152.76C75.9342 154.052 76.4689 155.077 76.6472 155.077C76.87 155.077 78.2068 153.695 79.6774 152.047L82.3957 149.016L81.2816 147.59C79.3209 145.095 78.8753 145.14 76.6026 147.902Z" fill="white"/>
<path d="M140.015 164.034C139.703 164.524 138.767 165.326 137.92 165.816C136.405 166.708 136.405 166.752 137.074 168.045C137.43 168.802 138.188 169.56 138.722 169.783C139.391 170.05 138.589 170.184 135.915 170.228C130.746 170.273 129.988 170.496 130.345 171.966C130.523 172.59 131.325 174.194 132.172 175.576C133.019 176.912 133.687 178.338 133.687 178.695C133.687 179.007 134.222 179.854 134.89 180.567L136.049 181.77L138.767 177.002C141.396 172.323 143.491 167.376 143.491 165.816C143.491 163.856 140.951 162.519 140.015 164.034Z" fill="white"/>
<path d="M126.557 168.891C114.392 174.64 114.08 174.863 110.515 180.077C109.178 181.993 108.643 183.419 108.108 186.271C107.217 190.95 107.217 198.035 108.108 204.764C108.509 207.75 108.732 211.404 108.598 213.097C108.331 216.35 106.727 220.584 105.791 220.584C104.989 220.584 104.989 219.737 105.836 217.776C106.86 215.37 106.682 215.325 104.499 217.464C102.36 219.559 101.156 221.698 101.156 223.347C101.201 224.327 101.201 224.327 101.869 223.124C102.716 221.609 102.939 221.609 104.053 223.347C105.256 225.218 105.702 225.263 106.593 223.703C107.573 222.01 108.554 221.609 109.579 222.544C109.98 222.945 111.005 223.391 111.762 223.525L113.188 223.792L112.208 221.653C111.629 220.272 111.183 218.222 111.049 215.994C110.827 212.518 111.138 211.849 112.342 213.275C113.233 214.345 119.026 218.356 119.65 218.356C119.962 218.356 120.675 217.286 121.21 216.038C122.101 213.988 122.19 213.231 121.923 210.112C121.789 208.151 121.521 206.012 121.388 205.343C121.165 204.408 121.388 203.828 122.368 202.848C123.081 202.135 124.062 201.377 124.507 201.11C125.354 200.664 125.309 200.531 123.972 198.882C122.19 196.565 121.521 194.916 122.056 193.891C122.324 193.445 123.349 192.287 124.373 191.262C126.512 189.123 126.512 188.9 124.507 183.508C122.992 179.408 123.259 178.695 125.889 179.765C127.448 180.433 127.537 180.433 127.225 179.675C126.379 177.626 126.423 177.358 127.716 177.358C128.429 177.403 129.81 177.67 130.79 178.027C131.726 178.383 132.618 178.561 132.751 178.428C133.019 178.205 132.929 178.071 130.88 175.175C129.32 173.036 128.25 170.139 128.785 169.604C129.008 169.382 131.102 169.292 133.42 169.426L137.698 169.604L136.584 168.579C135.068 167.153 135.158 166.53 137.118 164.925C138.054 164.168 138.589 163.544 138.366 163.544C138.099 163.544 132.796 165.95 126.557 168.891Z" fill="white"/>
<path d="M137.029 181.458C135.96 183.731 134.266 187.875 133.286 190.593C132.306 193.356 131.192 196.164 130.835 196.877C130.033 198.436 128.028 200.219 124.819 202.269L122.457 203.828L122.725 205.834C123.705 213.365 123.616 214.612 121.923 217.152C121.12 218.311 120.987 218.801 121.432 218.935C122.101 219.202 123.616 217.687 125.577 214.746C126.468 213.409 128.072 211.983 129.855 210.825C133.331 208.641 133.197 208.953 135.915 194.738C136.896 189.479 138.099 183.419 138.544 181.235C138.99 179.096 139.257 177.358 139.168 177.358C139.079 177.358 138.099 179.23 137.029 181.458Z" fill="white"/>
<path d="M128.652 179.586C128.963 180.789 128.429 182.706 127.805 182.706C127.537 182.706 126.824 182.26 126.245 181.725C125.265 180.834 125.22 180.834 125.22 181.636C125.22 182.082 126.156 184.666 127.226 187.385C128.34 190.058 129.365 193.044 129.543 193.935C129.676 194.871 129.944 195.629 130.122 195.629C130.3 195.629 131.102 193.891 131.905 191.707C132.707 189.568 133.954 186.538 134.667 184.978L135.915 182.082L134.712 181.101C133.509 180.121 130.122 178.695 128.963 178.695C128.652 178.695 128.518 179.051 128.652 179.586Z" fill="white"/>
<path d="M64.7045 181.592C62.4318 182.171 59.5798 182.661 58.4212 182.617C57.218 182.617 55.8366 182.839 55.3018 183.151C52.4499 184.666 53.653 189.167 57.7082 191.93C58.5549 192.509 59.4016 193.579 59.7135 194.47C60.382 196.52 62.6546 199.639 63.5013 199.639C64.3034 199.639 64.3034 199.729 63.5013 197.411C62.5209 194.604 62.6546 192.643 63.9469 191.395C65.0164 190.281 66.1305 190.014 67.4674 190.549C68.4923 190.95 68.3586 192.821 67.2446 193.757C65.3284 195.317 65.061 195.718 65.061 197.01C65.061 198.882 66.5316 198.793 67.3337 196.832C67.6456 196.074 70.4085 192.821 73.4387 189.702C78.0732 184.934 78.9199 183.82 78.7862 182.795C78.6971 181.859 78.296 181.503 76.87 181.102C74.0626 180.255 69.2499 180.433 64.7045 181.592Z" fill="white"/>
<path d="M126.379 189.702C126.201 190.237 125.398 191.306 124.552 192.108C123.571 193.089 122.992 194.069 122.992 194.782C122.992 195.673 124.418 198.258 125.933 200.04C126.022 200.13 126.78 199.684 127.671 199.015C128.785 198.124 129.231 197.456 129.231 196.565C129.231 195.361 127.894 191.039 127.092 189.568C126.691 188.855 126.646 188.9 126.379 189.702Z" fill="white"/>
<path d="M112.297 216.885C112.297 220.539 114.169 224.594 115.818 224.594C116.174 224.594 117.555 223.569 118.848 222.277L121.21 219.96L118.179 218.534C116.531 217.732 114.525 216.662 113.768 216.127L112.297 215.147V216.885Z" fill="white"/>
<path d="M107.841 224.104C107.618 224.594 107.395 225.396 107.395 225.931C107.395 226.778 107.217 226.867 106.192 226.6C105.479 226.466 104.543 225.931 104.008 225.441C102.85 224.372 102.672 224.372 102.36 225.53C102.137 226.332 101.869 226.466 100.755 226.243C99.2403 225.931 98.9729 226.377 100.132 227.313C100.622 227.758 102.271 227.937 105.791 227.937C110.693 227.937 112.253 227.535 114.436 225.798C115.283 225.129 114.258 224.594 112.074 224.594C111.094 224.594 109.846 224.282 109.311 223.926C108.42 223.302 108.286 223.302 107.841 224.104Z" fill="white"/>
</svg>
