<svg width="535" height="865" viewBox="0 0 535 865" fill="none" xmlns="http://www.w3.org/2000/svg">
<path opacity="0.881" fill-rule="evenodd" clip-rule="evenodd" d="M380.673 76.798C312.09 76.798 243.486 76.798 174.903 76.798C199.472 50.5885 233.753 36.9082 277.788 35.7574C321.823 36.9082 356.104 50.5885 380.673 76.798Z" fill="#FEFFFE"/>
<g opacity="0.884">
<path fill-rule="evenodd" clip-rule="evenodd" d="M174.904 76.7992C243.487 76.7992 312.09 76.7992 380.673 76.7992C422.979 91.4938 467.569 105.175 514.423 117.84C528.148 343.563 528.148 569.285 514.423 795.008C349.808 822.368 185.192 822.368 20.5767 795.008C6.85194 569.285 6.85194 343.563 20.5767 117.84C74.2208 105.049 125.663 91.3686 174.904 76.7992ZM154.327 220.441C229.782 220.441 305.217 220.441 380.673 220.441C380.673 377.764 380.673 535.084 380.673 692.407C305.217 692.407 229.782 692.407 154.327 692.407C154.327 535.084 154.327 377.764 154.327 220.441Z" fill="white" style="mix-blend-mode:screen"/>
</g>
<path opacity="0.95" fill-rule="evenodd" clip-rule="evenodd" d="M174.903 261.481C236.634 261.481 298.365 261.481 360.096 261.481C360.096 295.683 360.096 329.882 360.096 364.083C298.365 364.083 236.634 364.083 174.903 364.083C174.903 329.882 174.903 295.683 174.903 261.481Z" fill="white"/>
<path opacity="0.951" fill-rule="evenodd" clip-rule="evenodd" d="M174.903 405.122C236.634 405.122 298.365 405.122 360.096 405.122C360.096 439.323 360.096 473.522 360.096 507.723C298.365 507.723 236.634 507.723 174.903 507.723C174.903 473.522 174.903 439.323 174.903 405.122Z" fill="white"/>
<path opacity="0.792" fill-rule="evenodd" clip-rule="evenodd" d="M174.903 548.764C236.634 548.764 298.365 548.764 360.096 548.764C360.096 589.805 360.096 630.845 360.096 671.886C298.365 671.886 236.634 671.886 174.903 671.886C174.903 630.845 174.903 589.805 174.903 548.764Z" fill="white"/>
</svg>
