<svg xmlns="http://www.w3.org/2000/svg" viewBox="0 0 255.999 67.038" xml:space="preserve">
	<path fill="#303030" d="M27.125,40.411c-0.183-0.291-0.371-0.639-0.415-0.773c-0.177-0.532-0.221-1.496-0.171-3.529
			c0.061-2.427,0.061-3.71,0-7.116c-0.05-2.998,0.005-4.567,0.182-5.144c0.199-0.65,0.652-1.182,1.924-2.258
			c0.945-0.807,1.271-1.166,1.558-1.731c0.476-0.919,0.581-1.771,0.542-4.314c-0.028-1.956-0.061-2.168-0.464-3.026
			c-0.249-0.521-0.276-0.555-1.481-1.765c-1.393-1.407-1.514-1.58-1.658-2.415c-0.199-1.188-0.205-3.082,0-3.85
			c0.116-0.442,0.227-0.656,0.696-1.272c0.514-0.689,0.625-0.936,0.625-1.401c0.005-0.75-0.498-1.445-1.232-1.709
			c-0.315-0.112-0.834-0.14-1.166-0.067c-0.989,0.224-1.608,1.143-1.437,2.118c0.094,0.516,0.287,0.846,0.829,1.423
			c0.292,0.319,0.514,0.605,0.558,0.734c0.061,0.168,0.072,0.482,0.055,1.339c-0.017,0.616-0.028,1.597-0.028,2.185
			c0,0.975,0.011,1.099,0.127,1.429c0.237,0.684,0.464,0.975,1.691,2.213c0.641,0.645,1.26,1.328,1.382,1.507
			c0.558,0.869,0.68,2.023,0.475,4.527l-0.033,0.432l-0.359-0.308c-0.724-0.622-1.321-1.267-1.47-1.575
			c-0.127-0.263-0.155-0.42-0.216-1.25c-0.061-0.852-0.083-0.969-0.215-1.193c-0.177-0.314-0.415-0.521-0.807-0.706
			c-0.254-0.124-0.381-0.146-0.774-0.146c-0.569,0-0.951,0.157-1.382,0.566c-0.724,0.689-0.813,1.804-0.199,2.617
			c0.26,0.347,0.646,0.521,1.47,0.655c0.425,0.073,0.795,0.168,0.967,0.252c1.022,0.504,2.327,2.006,2.211,2.538
			c-0.061,0.303-0.343,0.645-0.951,1.188c-0.326,0.286-0.884,0.818-1.232,1.171c-1.183,1.205-1.365,1.894-1.216,4.561
			c0.033,0.672,0.055,1.238,0.033,1.255c-0.05,0.051-0.973-0.711-1.47-1.216c-0.558-0.566-0.962-1.154-1.139-1.675
			c-0.171-0.51-0.265-1.406-0.215-2.079c0.022-0.292,0.055-3.166,0.077-6.388l0.033-5.855l0.122-0.308
			c0.072-0.168,0.293-0.611,0.503-0.98c0.503-0.908,0.63-1.222,0.663-1.659c0.022-0.319,0.006-0.42-0.116-0.689
			c-0.171-0.381-0.581-0.801-0.951-0.986c-0.232-0.118-0.354-0.14-0.801-0.14c-0.481,0-0.559,0.017-0.896,0.185
			c-0.686,0.342-1.094,0.98-1.094,1.709c0,0.454,0.155,0.785,0.658,1.412c0.724,0.913,0.818,1.328,0.746,3.418
			c-0.028,0.768-0.044,2.662-0.033,4.202c0.011,1.541-0.011,3.581-0.044,4.539c-0.094,2.875,0.061,3.945,0.724,4.942
			c0.094,0.146,0.741,0.835,1.426,1.53c1.282,1.294,1.492,1.563,1.73,2.219c0.138,0.381,0.133,0.095,0.116,5.839l-0.017,3.603
			l-0.426-0.241c-1.205-0.655-1.769-1.154-1.923-1.681c-0.099-0.353-0.105-1.042-0.017-2.914c0.138-2.986-0.105-3.647-1.967-5.368
			c-0.801-0.74-1.315-1.312-1.498-1.676c-0.072-0.146-0.094-0.353-0.1-0.952c-0.011-0.712-0.022-0.785-0.166-1.076
			c-0.392-0.818-1.359-1.311-1.852-0.952c-0.094,0.062-0.227,0.118-0.298,0.118c-0.077,0-0.265,0.039-0.425,0.089
			c-1.078,0.319-1.443,2.017-0.641,2.925c0.309,0.348,0.641,0.493,1.431,0.639c0.332,0.062,0.735,0.157,0.884,0.219
			c0.597,0.23,2.349,1.866,2.896,2.701c0.426,0.65,0.619,1.417,0.619,2.465c0,0.6-0.11,2.752-0.155,3.021l-0.039,0.207l-0.498-0.308
			c-1.089-0.689-1.547-0.852-2.078-0.752c-0.696,0.135-1.1,0.684-1.1,1.48c0,0.879,0.696,1.602,3.012,3.115
			c1.271,0.828,1.437,0.957,1.641,1.283c0.221,0.353,0.216,0.672-0.011,0.868c-0.343,0.291-0.702,0.252-1.432-0.14
			c-0.608-0.331-1.238-0.757-2.382-1.614c-0.564-0.426-1.282-0.958-1.603-1.194c-1.431-1.047-1.63-1.535-1.63-4.022
			c0-0.784,0.022-2.045,0.05-2.801c0.055-1.524,0.011-2.012-0.21-2.455c-0.072-0.146-0.193-0.319-0.265-0.381
			c-0.149-0.14-0.503-0.325-0.719-0.381l-0.155-0.034v-2.964c0-2.336,0.017-3.009,0.078-3.21c0.132-0.448,0.746-1.261,1.586-2.101
			c0.967-0.969,1.409-1.227,2.481-1.451c0.824-0.174,1.094-0.297,1.382-0.622c0.437-0.504,0.569-1.294,0.326-1.95
			c-0.149-0.404-0.558-0.857-1-1.099c-0.326-0.179-0.381-0.19-0.873-0.19c-0.464,0-0.559,0.017-0.818,0.157
			c-0.16,0.084-0.387,0.252-0.508,0.375c-0.387,0.393-0.409,0.477-0.442,1.569c-0.028,0.958-0.033,0.986-0.194,1.289
			c-0.199,0.364-0.934,1.126-1.553,1.608l-0.448,0.348l-0.033-0.678c-0.116-2.185,0.028-3.11,0.608-3.933
			c0.111-0.157,0.531-0.639,0.934-1.07c0.829-0.885,1.05-1.166,1.26-1.58c0.326-0.661,0.326-0.633,0.31-4.275l-0.011-3.334
			l0.298-0.106c0.442-0.163,0.945-0.689,1.067-1.126c0.138-0.465,0.088-0.98-0.122-1.446c-0.227-0.487-0.509-0.784-0.945-1.003
			c-0.31-0.157-0.42-0.179-0.768-0.179c-0.348,0.005-0.458,0.034-0.818,0.213c-0.686,0.342-1.083,0.986-1.089,1.765
			c-0.005,0.678,0.171,1.053,0.791,1.658c0.536,0.527,0.569,0.639,0.585,1.933c0.011,0.6,0.039,1.546,0.066,2.101
			c0.033,0.583,0.033,1.244,0.006,1.569c-0.105,1.25-0.249,1.552-1.293,2.661c-1.343,1.423-1.73,2.146-1.885,3.497l-0.039,0.331
			l-0.47-0.471c-0.956-0.964-1.515-1.787-1.702-2.544c-0.194-0.779-0.221-1.978-0.078-3.334c0.078-0.694,0.177-0.908,0.669-1.445
			c0.597-0.645,0.68-0.84,0.68-1.636c0-0.566-0.017-0.678-0.133-0.913c-0.177-0.364-0.575-0.756-0.934-0.925
			c-1.249-0.577-2.758,0.622-2.653,2.112c0.033,0.459,0.155,0.701,0.619,1.261c0.199,0.235,0.387,0.477,0.42,0.533
			c0.144,0.28,0.177,0.728,0.188,2.555c0.011,1.765,0.022,1.938,0.133,2.342c0.227,0.84,0.431,1.132,1.614,2.37
			c1.752,1.827,1.68,1.619,1.708,4.925c0.011,1.384,0.022,3.199,0.028,4.034c0,1.687-0.033,1.916-0.381,2.746
			c-0.105,0.247-0.238,0.588-0.293,0.756l-0.105,0.308l-0.553-0.56c-0.481-0.488-0.586-0.633-0.813-1.093
			c-0.547-1.138-0.641-2.023-0.503-4.617c0.1-1.81,0.088-2.818-0.033-3.479c-0.094-0.521-0.332-0.93-0.895-1.535
			c-0.282-0.303-0.829-0.896-1.222-1.317c-0.442-0.476-0.862-0.874-1.094-1.031c-0.205-0.14-0.376-0.258-0.376-0.269
			c0-0.006,0.066-0.258,0.144-0.566c0.249-0.947,0.116-1.558-0.464-2.096c-0.879-0.824-2.327-0.678-2.968,0.303
			c-0.288,0.437-0.393,0.947-0.315,1.474c0.144,0.936,0.459,1.199,1.697,1.423c0.359,0.067,0.785,0.168,0.945,0.229
			c0.458,0.174,1.05,0.633,1.791,1.39c0.785,0.795,1.321,1.49,1.57,2.022l0.171,0.364v1.093c0,0.6-0.011,2.101-0.028,3.334
			c-0.044,3.396,0,3.547,1.47,5.161c0.751,0.829,1.05,1.244,1.249,1.754c0.122,0.302,0.127,0.37,0.122,1.899
			c-0.005,0.875-0.022,1.603-0.044,1.62c-0.022,0.022-0.154-0.078-0.298-0.219c-0.144-0.141-0.729-0.661-1.31-1.165
			c-2.189-1.9-3.045-2.931-3.377-4.063c-0.127-0.426-0.138-1.866-0.028-3.418c0.11-1.574,0-2.27-0.453-2.964
			c-0.105-0.157-0.597-0.7-1.1-1.21c-1.16-1.177-1.199-1.25-1.254-2.336c-0.039-0.712-0.055-0.807-0.199-1.076
			c-0.183-0.336-0.476-0.61-0.851-0.801c-0.216-0.107-0.343-0.129-0.835-0.129c-0.514,0-0.619,0.017-0.89,0.146
			c-0.713,0.342-1.1,0.93-1.1,1.681c0,0.594,0.122,0.958,0.425,1.289c0.293,0.313,0.52,0.415,1.481,0.639
			c0.365,0.084,0.851,0.241,1.078,0.347c0.359,0.174,0.514,0.297,1.172,0.975c0.657,0.672,0.785,0.829,0.978,1.238
			c0.332,0.689,0.42,1.205,0.42,2.454c0,0.572-0.022,1.407-0.05,1.866l-0.044,0.823l-0.398-0.347
			c-1.255-1.121-1.907-1.883-2.095-2.454c-0.044-0.14-0.1-0.566-0.122-0.953c-0.061-1.064-0.271-1.429-1.044-1.799
			c-0.276-0.134-0.409-0.162-0.735-0.162c-0.569,0-0.956,0.157-1.343,0.555c-0.813,0.829-0.857,1.956-0.105,2.779
			c0.287,0.313,0.602,0.442,1.426,0.583c0.376,0.067,0.796,0.168,0.929,0.229c0.453,0.202,1.719,1.378,4.3,3.995
			c0.851,0.863,2.122,2.079,2.824,2.707c1.426,1.267,2.15,2.022,2.398,2.499c0.288,0.543,0.337,0.93,0.32,2.555
			c-0.017,1.529,0.011,1.76,0.288,2.309c0.343,0.684,1.476,1.658,3.979,3.418c1.381,0.975,3.25,2.37,3.764,2.813
			c0.415,0.354,0.691,0.773,0.801,1.222c0.077,0.298,0.088,0.526,0.061,1.228c-0.017,0.471-0.044,0.868-0.061,0.885
			c-0.039,0.039-0.663-0.252-1.249-0.588c-0.669-0.375-1.359-0.88-2.681-1.944c-1.824-1.468-2.503-1.961-3.36-2.438l-0.437-0.241
			l0.05-0.258c0.022-0.14,0.044-0.471,0.044-0.733c-0.006-0.403-0.028-0.521-0.149-0.757c-0.171-0.336-0.558-0.717-0.856-0.84
			c-1.006-0.432-2.277,0.021-2.719,0.975c-0.332,0.717-0.066,1.81,0.542,2.258c0.282,0.207,0.696,0.314,1.47,0.381
			c0.873,0.078,1.144,0.141,1.575,0.376c0.796,0.437,2.299,1.484,4.681,3.267c0.641,0.482,1.448,1.053,1.785,1.266
			c0.718,0.449,1.072,0.773,1.221,1.115c0.183,0.415,0.232,1.037,0.166,2.023c-0.033,0.481-0.061,0.924-0.061,0.986
			c0,0.095-0.011,0.095-0.204,0.016c-0.431-0.184-1.122-0.639-2.062-1.35c-0.884-0.672-2.979-2.225-6.08-4.505
			c-0.652-0.481-1.647-1.188-2.211-1.569c-2.493-1.691-2.83-2.477-2.647-6.102c0.044-0.852,0.078-1.95,0.078-2.443
			c-0.006-1.844-0.122-2.045-2.581-4.409c-1.039-1.009-1.465-1.502-1.658-1.939c-0.055-0.129-0.155-0.493-0.21-0.813
			c-0.061-0.313-0.177-0.711-0.26-0.879c-0.514-1.037-2.139-1.21-3.012-0.325c-0.398,0.398-0.514,0.706-0.514,1.333
			c0,0.465,0.022,0.577,0.155,0.869c0.188,0.409,0.525,0.772,0.895,0.97c0.243,0.129,0.337,0.146,0.802,0.146
			c0.287,0,0.713-0.011,0.939-0.022c0.32-0.018,0.458,0,0.608,0.078c0.105,0.057,0.503,0.432,0.884,0.835
			c0.381,0.397,1.089,1.148,1.575,1.659c0.961,1.008,1.183,1.338,1.321,1.972c0.127,0.565,0.149,1.277,0.072,2.482l-0.066,1.12
			l-0.696-0.649c-0.873-0.818-1.21-1.199-1.437-1.631c-0.171-0.325-0.182-0.387-0.221-1.171c-0.055-1.009-0.144-1.261-0.58-1.664
			c-0.387-0.364-0.724-0.477-1.288-0.443c-0.343,0.023-0.486,0.063-0.774,0.213c-0.923,0.499-1.354,1.547-1.006,2.472
			c0.254,0.684,0.674,0.97,1.94,1.333c0.442,0.129,0.917,0.303,1.061,0.387c0.569,0.331,2.255,1.989,2.642,2.595
			c0.293,0.46,0.398,0.768,0.602,1.731c0.326,1.563,0.641,1.938,2.824,3.429c0.564,0.382,1.647,1.16,2.404,1.726
			c2.57,1.917,4.924,3.62,5.532,4.007c2.238,1.423,2.891,1.989,3.128,2.729c0.039,0.129,0.055,1.334,0.044,3.866l-0.011,3.688h6.079
			l0.022-11.896c0.011-6.539,0.005-12.305-0.017-12.814C27.611,41.251,27.583,41.139,27.125,40.411z M26.064,2.444
			C25.683,2.063,25.721,1.48,26.136,1.2c0.238-0.157,0.646-0.129,0.846,0.062c0.309,0.292,0.387,0.712,0.188,1.042
			c-0.132,0.229-0.37,0.353-0.668,0.353C26.307,2.657,26.235,2.623,26.064,2.444z M26.279,15.286
			c-0.348,0.297-0.813,0.235-1.116-0.151c-0.525-0.65,0.182-1.546,0.934-1.182C26.589,14.188,26.688,14.939,26.279,15.286z
			 M22.211,8.26c-0.547,0-0.995-0.672-0.773-1.154c0.21-0.437,0.834-0.566,1.249-0.258C23.3,7.302,22.98,8.26,22.211,8.26z
			 M17.795,27.014c-0.569,0.073-1.006-0.717-0.685-1.244c0.21-0.347,0.696-0.465,1.034-0.252c0.227,0.14,0.359,0.398,0.359,0.717
			C18.503,26.627,18.205,26.958,17.795,27.014z M17.934,17.298c0.194-0.426,0.73-0.566,1.117-0.292
			c0.171,0.123,0.326,0.476,0.326,0.74c0,0.448-0.376,0.824-0.835,0.824c-0.221,0-0.287-0.028-0.431-0.168
			C17.829,18.11,17.763,17.69,17.934,17.298z M16.364,4.5c-0.105-0.633,0.613-1.166,1.139-0.852c0.243,0.146,0.403,0.521,0.37,0.869
			c-0.022,0.224-0.066,0.319-0.227,0.476c-0.16,0.163-0.243,0.208-0.476,0.229C16.74,5.262,16.447,4.999,16.364,4.5z M9.937,8.59
			c0.044-0.448,0.348-0.684,0.834-0.65c0.21,0.017,0.304,0.062,0.459,0.213c0.486,0.476,0.326,1.154-0.315,1.345
			C10.401,9.655,9.881,9.179,9.937,8.59z M5.267,16.413c-0.387-0.185-0.581-0.773-0.393-1.177c0.193-0.42,0.735-0.561,1.072-0.274
			c0.237,0.202,0.343,0.442,0.343,0.762C6.289,16.3,5.764,16.653,5.267,16.413z M3.537,21.208c-0.088,0.185-0.448,0.381-0.686,0.387
			c-0.177,0-0.464-0.179-0.58-0.358c-0.138-0.208-0.166-0.538-0.066-0.779c0.16-0.381,0.658-0.543,1.039-0.348
			C3.592,20.295,3.735,20.828,3.537,21.208z M2.332,27.283c-0.166,0.112-0.563,0.129-0.735,0.033
			c-0.193-0.101-0.409-0.431-0.437-0.661c-0.039-0.308,0.116-0.577,0.42-0.734c0.276-0.14,0.481-0.129,0.718,0.04
			c0.166,0.118,0.387,0.532,0.387,0.734C2.686,26.874,2.508,27.165,2.332,27.283z M12.805,46.641
			c-0.154,0.521-0.868,0.701-1.254,0.309c-0.177-0.18-0.265-0.543-0.188-0.779c0.161-0.486,0.791-0.705,1.155-0.397
			c0.088,0.079,0.205,0.258,0.26,0.397C12.854,46.378,12.86,46.457,12.805,46.641z M2.769,34.651
			c-0.266,0.521-1.006,0.577-1.299,0.101c-0.161-0.258-0.127-0.711,0.061-0.919c0.276-0.302,0.669-0.381,0.978-0.19
			C2.818,33.833,2.939,34.314,2.769,34.651z M3.874,41.319c-0.437,0.459-1.1,0.303-1.332-0.314
			c-0.077-0.207-0.083-0.285-0.033-0.465c0.144-0.471,0.686-0.661,1.155-0.409c0.199,0.112,0.37,0.448,0.37,0.751
			C4.034,41.1,4.006,41.178,3.874,41.319z M56.196,25.73c-0.332-0.168-0.415-0.185-0.868-0.185c-0.431,0-0.536,0.022-0.807,0.157
			c-0.371,0.179-0.785,0.61-0.945,0.98c-0.155,0.347-0.155,0.93,0.005,1.636c0.089,0.387,0.105,0.538,0.056,0.555
			c-0.033,0.011-0.276,0.162-0.542,0.342c-0.492,0.336-1.221,1.031-2.072,1.978c-0.271,0.297-0.514,0.527-0.531,0.504
			c-0.066-0.073-0.182-3.216-0.138-3.692c0.088-0.986,0.254-1.563,0.614-2.141c0.11-0.173,0.63-0.756,1.149-1.3
			c0.619-0.645,1.039-1.132,1.199-1.395l0.243-0.398l0.332,0.039c0.183,0.028,0.559,0.045,0.829,0.04
			c0.591-0.006,0.884-0.124,1.277-0.51c0.354-0.341,0.542-0.779,0.563-1.305c0.028-0.504-0.033-0.768-0.276-1.177
			c-0.359-0.6-1.133-1.003-1.813-0.936c-0.674,0.062-1.26,0.471-1.559,1.093c-0.171,0.348-0.183,0.415-0.21,1.154
			c-0.044,1.098-0.094,1.188-1.658,2.807c-1.702,1.765-1.73,1.872-1.702,5.906l0.017,2.667l-0.149,0.309
			c-0.205,0.42-0.503,0.751-1.227,1.384c-0.337,0.292-1.199,1.12-1.917,1.849l-1.304,1.317l-0.05-0.947
			c-0.078-1.457-0.061-3.294,0.027-3.659c0.144-0.583,0.332-0.891,0.917-1.513c0.713-0.75,0.967-1.098,1.238-1.687
			c0.486-1.053,0.525-1.484,0.48-5.121c-0.039-3.037-0.027-3.294,0.188-3.726c0.321-0.639,1.664-2.129,2.465-2.723
			c0.575-0.432,0.879-0.561,1.719-0.729c0.79-0.151,1.171-0.331,1.404-0.655c0.381-0.538,0.464-1.345,0.193-1.905
			c-0.205-0.426-0.591-0.807-1.028-1.014c-0.309-0.151-0.42-0.174-0.829-0.174c-0.42,0-0.509,0.017-0.84,0.185
			c-0.431,0.213-0.763,0.566-0.873,0.919c-0.039,0.134-0.088,0.594-0.105,1.025c-0.056,1.199-0.161,1.378-1.686,2.914
			c-1.321,1.328-1.641,1.798-1.807,2.684c-0.072,0.381-0.066,1.759,0.017,3.435c0.105,2.18-0.028,3.306-0.503,4.303
			c-0.227,0.482-0.597,0.98-0.906,1.222l-0.193,0.146l-0.398-0.543c-0.691-0.936-0.63-0.516-0.652-4.494
			c-0.011-1.894-0.022-3.737-0.022-4.09c-0.011-1.183,0.188-1.563,1.531-2.97c1.061-1.104,1.332-1.44,1.57-1.961
			c0.365-0.79,0.398-1.148,0.342-3.698c-0.022-1.037,0.039-1.546,0.216-1.899c0.055-0.112,0.293-0.415,0.525-0.672
			c0.547-0.6,0.664-0.846,0.664-1.435c0-0.37-0.028-0.504-0.149-0.768c-0.193-0.42-0.575-0.796-1.028-1.014
			c-0.332-0.163-0.42-0.179-0.868-0.179c-0.646,0-0.961,0.134-1.376,0.594c-0.52,0.566-0.663,1.216-0.393,1.765
			c0.078,0.157,0.337,0.521,0.581,0.813c0.243,0.291,0.525,0.689,0.619,0.885c0.161,0.325,0.177,0.409,0.199,1.008
			c0.028,0.824-0.072,2.426-0.188,2.976c-0.215,1.02-0.663,1.832-1.409,2.543c-0.531,0.51-0.658,0.588-0.658,0.432
			c0-0.252-0.298-1.143-0.563-1.687c-0.266-0.532-0.359-0.656-1.012-1.345c-0.851-0.896-1.072-1.16-1.266-1.552
			c-0.238-0.482-0.26-0.852-0.243-3.743l0.017-2.689l0.149-0.308c0.083-0.168,0.332-0.538,0.547-0.813
			c0.221-0.28,0.448-0.617,0.514-0.757c0.348-0.773-0.138-1.877-1.012-2.292c-0.265-0.124-0.381-0.146-0.834-0.146
			c-0.486,0-0.558,0.017-0.895,0.185c-0.636,0.314-1.034,0.919-1.083,1.636c-0.033,0.504,0.116,0.835,0.646,1.429
			c0.503,0.561,0.719,0.869,0.813,1.188c0.133,0.448,0.155,1.474,0.05,2.791c-0.205,2.588-0.1,3.692,0.426,4.533
			c0.099,0.157,0.602,0.729,1.122,1.267c1.017,1.064,1.177,1.294,1.359,2c0.133,0.488,0.16,1.53,0.083,2.835l-0.044,0.711
			l-0.393-0.347c-0.906-0.807-1.437-1.451-1.619-1.961c-0.055-0.146-0.105-0.543-0.127-1.031c-0.039-0.717-0.055-0.813-0.188-1.048
			c-0.177-0.308-0.393-0.482-0.84-0.695c-0.68-0.314-1.47-0.163-2.062,0.398c-0.829,0.784-0.856,1.978-0.055,2.762
			c0.304,0.303,0.531,0.392,1.282,0.527c0.437,0.073,0.724,0.163,1,0.297c1.039,0.521,2.542,2.124,2.896,3.087
			c0.177,0.476,0.238,1.406,0.171,2.645c-0.033,0.583-0.05,1.507-0.044,2.062c0.006,0.667-0.017,1.093-0.061,1.261
			c-0.039,0.14-0.243,0.532-0.448,0.869c-0.564,0.908-0.58,1.008-0.569,2.902l0.011,1.558l-0.205-0.163
			c-0.641-0.521-1.481-1.378-1.774-1.815c-0.282-0.431-0.337-0.655-0.337-1.44c0-0.639-0.017-0.734-0.144-1.014
			c-0.171-0.381-0.459-0.689-0.823-0.885c-0.249-0.134-0.332-0.151-0.857-0.151c-0.542,0-0.603,0.011-0.951,0.185
			c-0.458,0.229-0.879,0.672-1.011,1.082c-0.072,0.213-0.088,0.403-0.072,0.717c0.05,0.7,0.348,1.221,0.873,1.49
			c0.144,0.073,0.569,0.196,0.945,0.274c0.829,0.174,1.089,0.303,1.736,0.83c1.409,1.148,2.288,2.247,2.581,3.199
			c0.16,0.539,0.127,1.172-0.094,1.619c-0.332,0.684-0.901,1.184-2.432,2.119c-0.514,0.318-1.183,0.768-1.481,1.002
			c-1.371,1.07-1.852,1.352-2.343,1.352c-0.575,0-0.768-0.236-0.603-0.757c0.144-0.471,0.525-0.847,1.553-1.53
			c0.486-0.324,1.122-0.745,1.409-0.941c0.979-0.649,1.62-1.283,1.935-1.91c0.11-0.213,0.138-0.354,0.138-0.672
			c0-0.354-0.017-0.426-0.166-0.639c-0.326-0.477-0.95-0.724-1.531-0.611c-0.437,0.084-0.851,0.303-1.979,1.048
			c-0.564,0.364-1.177,0.762-1.365,0.874c-0.365,0.225-0.84,0.453-0.873,0.42c-0.011-0.012-0.028-1.799-0.028-3.967
			c-0.011-4.314-0.017-4.18,0.315-4.662c0.078-0.117,0.393-0.42,0.702-0.672c0.304-0.258,0.829-0.723,1.161-1.042
			c1.393-1.345,1.763-1.558,3.018-1.748c1.078-0.163,1.669-0.807,1.68-1.821c0.005-0.381-0.017-0.493-0.149-0.762
			c-0.188-0.393-0.602-0.796-1.022-0.992c-0.271-0.129-0.387-0.151-0.84-0.151c-0.459,0-0.564,0.017-0.829,0.151
			c-0.409,0.202-0.746,0.555-0.851,0.879c-0.044,0.14-0.105,0.566-0.133,0.941c-0.044,0.577-0.083,0.74-0.221,1.037
			c-0.293,0.627-1.033,1.378-2.222,2.247l-0.58,0.426l-0.039-0.908c-0.055-1.194,0.017-2.102,0.221-2.701
			c0.177-0.521,0.409-0.891,0.923-1.485c0.989-1.137,1.199-1.546,1.299-2.521c0.022-0.23,0.016-2.146-0.017-4.258
			c-0.033-2.426-0.033-4.191,0-4.796c0.061-1.154,0.105-1.261,0.818-2.186c0.58-0.756,0.757-1.109,0.763-1.541
			c0.005-1.053-1.255-2.05-2.338-1.843c-0.437,0.084-0.724,0.247-1.045,0.588c-0.475,0.51-0.625,1.031-0.397,1.401
			c0.061,0.106,0.088,0.235,0.077,0.342C33.779,8.12,33.89,8.439,34.199,8.91c0.498,0.773,0.508,0.818,0.531,1.899
			c0.011,0.521,0,1.037-0.028,1.138l-0.044,0.185l-0.785-0.773c-0.834-0.83-1.277-1.423-1.426-1.944
			c-0.16-0.521-0.193-1.143-0.149-2.751c0.044-1.519,0.05-1.581,0.183-1.877c0.088-0.185,0.326-0.504,0.591-0.795
			c0.498-0.538,0.652-0.801,0.729-1.238c0.1-0.499-0.105-1.154-0.481-1.586c-0.503-0.571-1.293-0.813-2.012-0.616
			c-0.757,0.208-1.315,0.869-1.409,1.67c-0.055,0.504,0.05,0.829,0.508,1.507c0.729,1.087,0.708,0.98,0.713,3.412
			c0.006,2.225,0.017,2.314,0.531,3.306c0.37,0.717,0.873,1.328,1.862,2.286c1.056,1.014,1.145,1.166,1.233,2.196
			c0.039,0.438,0.044,1.065,0.016,1.653c-0.022,0.521-0.044,1.58-0.044,2.354c-0.011,1.535-0.022,1.602-0.365,2.179
			c-0.1,0.168-0.42,0.588-0.713,0.941c-0.834,1.003-1.05,1.412-1.161,2.185c-0.028,0.202-0.033,2.578-0.017,5.447l0.027,5.099
			l-0.188-0.134c-0.105-0.073-0.476-0.426-0.829-0.779c-0.719-0.723-1.056-1.244-1.288-1.967c-0.21-0.639-0.26-1.037-0.271-2.118
			c-0.011-1.216,0.011-1.289,0.718-2.045c0.647-0.684,0.708-0.813,0.708-1.524c0-0.515-0.011-0.583-0.166-0.857
			c-0.431-0.801-1.398-1.233-2.216-0.998c-0.879,0.252-1.47,1.048-1.47,1.967c-0.006,0.605,0.149,0.936,0.702,1.546
			c0.658,0.723,0.658,0.723,0.669,2.6c0.005,1.944,0.066,2.235,0.658,3.138c0.332,0.504,0.961,1.154,1.907,1.972
			c0.542,0.471,0.663,0.611,0.823,0.925c0.171,0.342,0.188,0.426,0.216,1.009c0.05,1.148-0.166,1.512-1.36,2.33
			c-1.066,0.734-1.315,1.093-1.393,1.995c-0.022,0.28-0.028,6.063-0.011,12.854l0.028,12.339h6.24l-0.017-3.771
			c-0.011-4.191-0.027-3.979,0.37-4.527c0.371-0.51,1.017-1.02,2.416-1.895c0.873-0.549,1.111-0.717,4.709-3.355
			c1.276-0.941,2.653-1.934,3.067-2.213c1.111-0.752,1.929-1.385,2.299-1.788c0.453-0.493,0.696-0.997,0.989-2.045
			c0.437-1.552,0.564-1.782,1.675-3.015c1.194-1.322,1.542-1.552,2.586-1.687c0.359-0.045,0.769-0.123,0.901-0.174
			c0.326-0.117,0.614-0.397,0.796-0.757c0.42-0.84,0.271-1.725-0.409-2.403c-0.414-0.415-0.801-0.577-1.381-0.577
			c-0.359,0-0.464,0.022-0.785,0.18c-0.425,0.213-0.763,0.565-0.862,0.918c-0.044,0.135-0.094,0.617-0.111,1.082
			c-0.039,0.813-0.044,0.852-0.227,1.205c-0.221,0.42-0.895,1.132-1.581,1.664l-0.448,0.348l-0.039-0.796
			c-0.066-1.334-0.05-2.163,0.044-2.583c0.149-0.639,0.37-0.98,1.221-1.877c0.426-0.454,0.995-1.076,1.266-1.391
			c0.945-1.092,1.111-1.182,2.493-1.327c1.238-0.135,1.592-0.309,1.89-0.919c0.144-0.291,0.155-0.375,0.155-0.936
			c0-0.526-0.017-0.661-0.133-0.908c-0.144-0.325-0.536-0.729-0.873-0.902c-0.884-0.459-2.078-0.106-2.493,0.734
			c-0.066,0.135-0.193,0.538-0.276,0.885c-0.271,1.098-0.442,1.339-2.145,3.048c-2.21,2.219-2.227,2.258-2.144,4.875
			c0.083,2.633,0.066,4.191-0.05,4.695c-0.293,1.249-0.929,1.973-2.968,3.345c-0.381,0.258-1.288,0.913-2.017,1.457
			c-3.117,2.325-4.604,3.407-6.688,4.874l-1.216,0.853l-0.039-0.353c-0.022-0.197-0.044-0.773-0.05-1.283
			c-0.011-1.569,0.155-1.866,1.603-2.847c0.442-0.303,1.393-1.003,2.106-1.558c2.006-1.563,3.101-2.309,4.023-2.758
			c0.381-0.184,0.459-0.201,1.337-0.263c0.846-0.067,0.951-0.084,1.216-0.229c0.84-0.459,1.21-1.541,0.818-2.387
			c-0.193-0.426-0.52-0.773-0.94-1.004c-0.332-0.179-0.375-0.189-0.901-0.189c-0.492,0-0.58,0.016-0.834,0.15
			c-0.636,0.336-0.846,0.673-1.05,1.647c-0.166,0.79-0.249,0.97-0.664,1.378c-0.42,0.41-0.663,0.595-1.658,1.256
			c-0.453,0.303-1.542,1.07-2.426,1.703c-0.879,0.633-1.818,1.312-2.078,1.496l-0.476,0.342l-0.039-0.426
			c-0.061-0.723-0.039-1.541,0.05-1.883c0.149-0.582,0.52-0.997,1.547-1.731c0.304-0.218,1.525-1.143,2.708-2.056
			c1.188-0.914,2.454-1.866,2.824-2.118c1.398-0.958,1.625-1.401,1.625-3.194c0-1.182,0.078-1.592,0.393-2.084
			c0.215-0.342,4.14-4.332,5.25-5.34c0.288-0.264,1.017-1.009,1.614-1.653c1.415-1.529,2.255-2.247,2.913-2.493
			c0.138-0.056,0.498-0.146,0.802-0.207c0.934-0.191,1.26-0.381,1.503-0.88c0.138-0.292,0.155-0.381,0.155-0.885
			c0-0.499-0.017-0.594-0.149-0.841C56.964,26.269,56.622,25.943,56.196,25.73z M54.007,20.357c0.254-0.291,0.768-0.358,1.072-0.151
			c0.293,0.208,0.409,0.404,0.409,0.712c0,0.487-0.32,0.79-0.834,0.79c-0.243,0-0.32-0.028-0.475-0.168
			c-0.105-0.09-0.221-0.241-0.26-0.336C53.825,20.973,53.875,20.503,54.007,20.357z M51.481,14.709c0.044,0,0.183,0.045,0.31,0.106
			c0.586,0.286,0.625,1.149,0.066,1.417c-0.254,0.124-0.464,0.118-0.702-0.011c-0.215-0.118-0.442-0.499-0.442-0.746
			C50.713,15.09,51.062,14.743,51.481,14.709z M45.701,8.148c0.232-0.348,0.625-0.471,1-0.314c0.254,0.106,0.481,0.432,0.514,0.723
			c0.066,0.6-0.696,1.042-1.205,0.695C45.59,8.966,45.458,8.506,45.701,8.148z M39.433,4.836c-0.403-0.443-0.32-0.986,0.199-1.272
			c0.171-0.101,0.48-0.079,0.68,0.044c0.254,0.157,0.398,0.426,0.398,0.74C40.71,5.021,39.892,5.335,39.433,4.836z M38.82,18.323
			c-0.459,0.241-0.962-0.067-1.062-0.65c-0.11-0.611,0.713-1.093,1.183-0.695C39.422,17.393,39.367,18.037,38.82,18.323z
			 M37.2,31.401c-0.37,0-0.746-0.403-0.746-0.801c0-0.588,0.646-0.936,1.149-0.616c0.149,0.095,0.337,0.482,0.343,0.689
			C37.946,31.037,37.576,31.401,37.2,31.401z M37.758,23.523c0.221-0.336,0.752-0.454,1.072-0.235
			c0.282,0.196,0.398,0.387,0.398,0.672c0.006,0.308-0.122,0.521-0.403,0.667c-0.265,0.135-0.47,0.135-0.713,0
			C37.714,24.414,37.538,23.865,37.758,23.523z M31.143,2.864c-0.133-0.297-0.133-0.521-0.006-0.768
			c0.183-0.347,0.658-0.493,1.006-0.308c0.204,0.106,0.387,0.459,0.387,0.74C32.53,3.307,31.463,3.57,31.143,2.864z M35.542,6.691
			c0.122,0,0.298,0.05,0.397,0.112c0.354,0.219,0.481,0.773,0.249,1.104c-0.254,0.364-0.807,0.454-1.1,0.174
			C34.537,7.56,34.818,6.691,35.542,6.691z M28.656,26.431c-0.21-0.65,0.597-1.232,1.172-0.84c0.282,0.19,0.437,0.459,0.437,0.751
			c0,0.213-0.033,0.286-0.183,0.437C29.645,27.221,28.849,27.025,28.656,26.431z M53.372,40.36c0.177-0.342,0.796-0.442,1.1-0.185
			c0.227,0.196,0.332,0.415,0.332,0.706c0,0.309-0.094,0.488-0.326,0.645c-0.381,0.258-0.862,0.117-1.083-0.325
			C53.3,41.016,53.283,40.523,53.372,40.36z M54.488,33.917c0.249-0.381,0.746-0.487,1.083-0.235
			c0.348,0.264,0.431,0.83,0.166,1.121c-0.42,0.448-1.028,0.37-1.266-0.168C54.328,34.326,54.333,34.146,54.488,33.917z
			 M44.545,45.975c0.183-0.354,0.824-0.449,1.116-0.168c0.21,0.195,0.299,0.402,0.299,0.694c0,0.745-1.067,0.925-1.415,0.241
			C44.446,46.546,44.446,46.176,44.545,45.975z M56.069,27.949c-0.481,0.617-1.376,0.252-1.376-0.555
			c0-0.313,0.099-0.476,0.359-0.611c0.238-0.129,0.531-0.112,0.752,0.04C56.168,27.07,56.307,27.647,56.069,27.949z M79.672,19.012
			c0.525,0.577,1.21,0.846,2.177,0.846c1.426,0,2.349-0.639,2.802-1.944l0.155-0.437V9.296l-0.144-0.432
			c-0.348-1.025-1.044-1.675-2.028-1.888c-0.398-0.084-1.293-0.073-1.691,0.028c-1,0.247-1.741,1.059-1.99,2.19
			c-0.077,0.348-0.088,0.919-0.088,4.208c0,3.631,0.006,3.821,0.111,4.248C79.131,18.256,79.318,18.625,79.672,19.012z
			 M80.695,9.683c0.127-0.717,0.47-1.031,1.116-1.031c0.205,0,0.453,0.034,0.553,0.079c0.249,0.101,0.464,0.375,0.564,0.717
			c0.127,0.431,0.127,7.446,0,7.878c-0.166,0.566-0.486,0.796-1.105,0.796c-0.658,0-1-0.314-1.127-1.031
			C80.612,16.631,80.612,10.137,80.695,9.683z M121.063,11.229c0.575,0,0.625-0.011,0.735-0.129
			c0.105-0.112,0.122-0.196,0.122-0.605c0-0.964,0.199-1.519,0.619-1.737c0.31-0.162,1.006-0.14,1.244,0.04
			c0.409,0.308,0.536,0.75,0.503,1.837c-0.017,0.662-0.033,0.768-0.16,1.015c-0.094,0.196-0.216,0.331-0.398,0.442
			c-0.227,0.14-0.326,0.163-0.796,0.19c-0.741,0.034-0.735,0.028-0.735,0.852c0,0.818,0,0.818,0.707,0.857
			c0.686,0.034,0.951,0.168,1.194,0.6c0.171,0.308,0.171,0.308,0.188,1.294c0.022,1.082-0.033,1.501-0.227,1.793
			c-0.227,0.336-0.387,0.415-0.884,0.431c-0.393,0.012-0.486,0-0.674-0.112c-0.431-0.252-0.58-0.762-0.58-1.961
			c0-0.908,0.022-0.885-0.868-0.885c-0.912,0-0.868-0.067-0.829,1.244c0.027,1.126,0.088,1.457,0.375,2.04
			c0.315,0.639,0.951,1.143,1.68,1.339c0.42,0.106,1.343,0.112,1.758,0c1.05-0.275,1.769-1.065,2-2.186
			c0.116-0.555,0.116-2.459,0-2.914c-0.138-0.549-0.387-0.997-0.718-1.305l-0.304-0.28l0.321-0.331
			c0.575-0.594,0.785-1.227,0.785-2.41c0-0.885-0.094-1.412-0.359-1.956c-0.337-0.7-0.939-1.188-1.724-1.395
			c-0.404-0.106-1.382-0.106-1.785,0.006c-0.984,0.263-1.653,0.98-1.907,2.045c-0.05,0.196-0.105,0.706-0.122,1.132
			c-0.033,0.751-0.028,0.773,0.094,0.908S120.477,11.229,121.063,11.229z M71.581,18.401h0.597v0.577
			c0,0.779-0.011,0.768,0.896,0.768c0.884,0,0.873,0.011,0.873-0.773v-0.572h0.597c1.359,0,2.227-0.482,2.697-1.479
			c0.332-0.706,0.365-1.054,0.343-3.721c-0.022-2-0.039-2.387-0.116-2.673c-0.397-1.412-1.393-2.09-3.062-2.101h-0.459V7.851
			c0-0.532-0.011-0.588-0.127-0.7s-0.188-0.124-0.796-0.124c-0.569,0-0.674,0.017-0.751,0.101c-0.078,0.084-0.094,0.224-0.094,0.695
			v0.588l-0.674,0.034c-1.371,0.067-2.15,0.499-2.614,1.457c-0.337,0.689-0.359,0.914-0.359,3.502c0,1.894,0.017,2.393,0.088,2.74
			C68.923,17.656,69.906,18.401,71.581,18.401z M73.946,10.154l0.569,0.022c0.476,0.017,0.597,0.039,0.779,0.151
			c0.149,0.095,0.254,0.23,0.359,0.449l0.144,0.313l0.017,2.062c0.022,2.241-0.017,2.712-0.237,3.099
			c-0.205,0.353-0.487,0.471-1.122,0.471h-0.509V10.154z M70.359,11.202c0.105-0.577,0.31-0.863,0.708-0.98
			c0.078-0.028,0.359-0.051,0.63-0.051l0.48-0.006v6.556h-0.514c-0.862,0-1.177-0.258-1.305-1.065
			C70.282,15.168,70.282,11.627,70.359,11.202z M87.056,19.747c0.597,0,0.702-0.012,0.779-0.101
			c0.083-0.095,0.094-0.364,0.094-2.746v-2.645h2.487v5.25l0.127,0.118c0.116,0.112,0.188,0.124,0.824,0.124
			c0.597,0,0.702-0.012,0.779-0.101c0.088-0.095,0.094-0.611,0.094-6.27c0-5.9-0.005-6.169-0.1-6.253
			c-0.083-0.079-0.227-0.096-0.796-0.096c-1.028,0-0.928-0.308-0.928,2.903v2.645h-2.487V9.896c0-2.527-0.005-2.689-0.1-2.773
			c-0.083-0.079-0.227-0.096-0.795-0.096c-0.647,0-0.697,0.006-0.807,0.129l-0.122,0.129v12.221l0.127,0.118
			C86.349,19.735,86.42,19.747,87.056,19.747z M94.269,21.427c0.873,0,0.846,0.028,0.846-0.941v-0.739h4.477v1.681h0.791
			c0.702,0,0.807-0.011,0.884-0.101c0.083-0.09,0.094-0.286,0.094-1.597c0-1.474,0-1.491-0.122-1.575
			c-0.077-0.056-0.243-0.089-0.442-0.089h-0.321V7.268l-0.127-0.118c-0.127-0.124-0.138-0.124-2.653-0.124
			c-1.979,0-2.531,0.017-2.548,0.067c-0.011,0.039-0.127,2.23-0.254,4.864c-0.127,2.633-0.254,4.953-0.282,5.155
			c-0.033,0.202-0.116,0.499-0.188,0.656l-0.133,0.297h-0.354c-0.293,0-0.37,0.022-0.47,0.129c-0.116,0.129-0.122,0.168-0.122,1.558
			C93.346,21.54,93.285,21.427,94.269,21.427z M96.247,17.791c0.044-0.124,0.105-0.375,0.138-0.555
			c0.044-0.264,0.442-7.666,0.442-8.288V8.764h1.769v9.301H97.38c-0.669,0-1.216-0.011-1.216-0.022S96.203,17.919,96.247,17.791z
			 M106.621,19.747c0.597,0,0.702-0.012,0.779-0.101c0.083-0.095,0.094-0.342,0.094-2.409v-2.309h0.763
			c0.437,0,0.912-0.033,1.122-0.078c1.061-0.229,1.78-0.975,2.012-2.079c0.116-0.572,0.116-2.953-0.005-3.547
			c-0.183-0.908-0.652-1.569-1.349-1.899c-0.558-0.269-0.807-0.297-2.537-0.297h-1.591l-0.116,0.129l-0.122,0.129v12.221
			l0.127,0.118C105.914,19.735,105.985,19.747,106.621,19.747z M107.494,8.758l0.796,0.017c0.708,0.017,0.818,0.028,0.956,0.134
			c0.387,0.292,0.481,0.801,0.448,2.376c-0.022,0.952-0.039,1.126-0.138,1.35c-0.205,0.465-0.569,0.611-1.542,0.611h-0.52V8.758z
			 M113.109,19.747c0.409,0,0.741-0.006,0.746-0.017c0-0.005,0.105-0.555,0.232-1.216l0.232-1.205h2.653l0.21,1.092
			c0.111,0.6,0.221,1.149,0.232,1.216c0.027,0.129,0.044,0.129,0.823,0.129c0.796,0,0.796,0,0.89-0.146
			c0.088-0.14,0.061-0.325-1.023-6.063c-0.613-3.261-1.144-6.057-1.171-6.22l-0.061-0.292h-2.343l-0.061,0.292
			c-0.028,0.163-0.559,2.958-1.172,6.22c-1.083,5.738-1.111,5.922-1.022,6.063C112.369,19.747,112.375,19.747,113.109,19.747z
			 M115.602,10.249l0.039-0.112l0.022,0.112c0.011,0.062,0.243,1.266,0.514,2.678c0.271,1.406,0.492,2.6,0.492,2.645
			c0,0.073-0.155,0.084-1.022,0.084c-0.989,0-1.022-0.005-1.022-0.112C114.624,15.42,115.547,10.428,115.602,10.249z
			 M129.392,19.747c1.509,0,1.73-0.012,2.122-0.112c0.763-0.202,1.321-0.645,1.642-1.311c0.254-0.521,0.314-0.947,0.314-2.191
			c0-1.261-0.061-1.67-0.32-2.191c-0.154-0.314-0.707-0.919-0.84-0.919c-0.033,0,0.072-0.134,0.238-0.297
			c0.58-0.577,0.724-1.126,0.685-2.645c-0.017-0.896-0.038-1.126-0.138-1.434c-0.221-0.684-0.691-1.177-1.382-1.44
			c-0.364-0.146-0.388-0.146-2.194-0.168l-1.824-0.017l-0.127,0.129l-0.122,0.134v12.221l0.127,0.118
			C127.7,19.747,127.733,19.747,129.392,19.747z M129.271,8.764h0.762c0.625,0,0.791,0.017,0.951,0.101
			c0.127,0.067,0.237,0.196,0.332,0.381c0.132,0.258,0.138,0.325,0.138,1.199s-0.006,0.941-0.138,1.205
			c-0.211,0.426-0.481,0.543-1.36,0.577l-0.685,0.028V8.764z M129.271,13.975h0.762c0.702,0,0.785,0.011,1.039,0.14
			c0.486,0.247,0.631,0.695,0.631,1.966c0,1.143-0.133,1.586-0.553,1.799c-0.222,0.118-0.32,0.129-1.062,0.129h-0.817V13.975z
			 M135.73,19.735l0.79-0.017l1.178-3.726c0.652-2.051,1.26-3.939,1.349-4.203l0.16-0.476l0.005,4.124
			c0.006,3.922,0.012,4.129,0.105,4.213c0.083,0.079,0.227,0.096,0.74,0.096c0.548,0,0.646-0.017,0.725-0.101
			c0.088-0.095,0.094-0.611,0.094-6.27c0-5.9-0.006-6.169-0.1-6.253c-0.088-0.079-0.237-0.096-0.956-0.096h-0.851l-1.062,3.149
			c-0.586,1.737-1.171,3.479-1.299,3.883l-0.237,0.729l-0.017-3.777c-0.011-3.417-0.022-3.788-0.105-3.883
			c-0.077-0.084-0.177-0.101-0.707-0.101c-0.575,0-0.625,0.012-0.735,0.129l-0.121,0.129v12.221l0.127,0.123
			C134.94,19.741,134.984,19.747,135.73,19.735z M142.125,8.764h1.956v5.396c0,5.161,0.006,5.407,0.1,5.491
			c0.084,0.079,0.227,0.096,0.797,0.096c0.646,0,0.695-0.006,0.807-0.129l0.121-0.129V8.764h0.984c1.266,0,1.227,0.028,1.227-0.908
			c0-0.555-0.017-0.656-0.1-0.734c-0.094-0.084-0.381-0.096-3.034-0.096h-2.929l-0.116,0.129c-0.11,0.118-0.122,0.191-0.122,0.717
			c0,0.572,0.006,0.594,0.155,0.74L142.125,8.764z M150.155,19.735l0.791-0.017l1.177-3.726c0.652-2.051,1.261-3.939,1.349-4.203
			l0.16-0.476l0.006,4.124c0.006,3.922,0.011,4.129,0.105,4.213c0.082,0.079,0.227,0.096,0.74,0.096
			c0.547,0,0.646-0.017,0.724-0.101c0.089-0.095,0.095-0.611,0.095-6.27c0-5.9-0.006-6.169-0.1-6.253
			c-0.089-0.079-0.238-0.096-0.957-0.096h-0.851l-1.062,3.149c-0.586,1.737-1.172,3.479-1.299,3.883l-0.237,0.729l-0.017-3.777
			c-0.012-3.417-0.021-3.788-0.105-3.883c-0.077-0.084-0.176-0.101-0.707-0.101c-0.574,0-0.625,0.012-0.734,0.129l-0.122,0.129
			v12.221l0.127,0.123C149.365,19.741,149.409,19.747,150.155,19.735z M156.655,19.752l0.768-0.017l0.774-0.017l0.11-0.308
			c0.1-0.275,0.111-0.493,0.139-2.107l0.033-1.793l0.166-0.331c0.138-0.274,0.215-0.353,0.441-0.471
			c0.238-0.129,0.354-0.146,0.951-0.168l0.68-0.017v2.516c0,2.37,0.006,2.527,0.1,2.611c0.082,0.079,0.231,0.096,0.823,0.096
			c0.624,0,0.729-0.012,0.807-0.101c0.089-0.095,0.095-0.611,0.095-6.242V7.268l-0.128-0.118c-0.127-0.124-0.16-0.124-1.757-0.118
			c-1.172,0-1.725,0.028-1.979,0.084c-1.029,0.224-1.691,0.913-1.918,1.972c-0.105,0.51-0.105,2.426,0,2.931
			c0.127,0.605,0.414,1.087,0.813,1.39l0.215,0.157l-0.221,0.157c-0.365,0.257-0.642,0.7-0.807,1.3
			c-0.072,0.252-0.1,0.729-0.133,2.146c-0.027,1.451-0.056,1.866-0.122,2.051c-0.083,0.218-0.083,0.235,0.028,0.381L156.655,19.752z
			 M158.993,8.876c0.172-0.089,0.326-0.106,0.967-0.112h0.758v4.034h-0.553c-0.979,0-1.338-0.157-1.564-0.672
			c-0.094-0.208-0.121-0.403-0.139-1.132C158.424,9.638,158.557,9.111,158.993,8.876z M252.993,27.703
			c1.139,0,1.879-0.555,2.066-1.558c0.066-0.336,0.066-0.358-0.055-0.487s-0.166-0.14-0.674-0.14h-0.542v0.168
			c0,0.297-0.144,0.555-0.354,0.645c-0.387,0.168-1,0.062-1.133-0.19c-0.033-0.062-0.077-0.23-0.094-0.37l-0.039-0.252h-0.535
			c-0.492,0-0.542,0.011-0.658,0.134c-0.11,0.118-0.121,0.174-0.088,0.381C251.064,27.12,251.8,27.703,252.993,27.703z
			 M97.667,27.989c-0.398-0.084-1.293-0.073-1.691,0.028c-1,0.247-1.741,1.059-1.99,2.191c-0.078,0.347-0.088,0.919-0.088,4.208
			c0,3.631,0.005,3.821,0.11,4.247c0.155,0.605,0.343,0.975,0.696,1.361c0.525,0.577,1.21,0.846,2.178,0.846
			c1.426,0,2.349-0.639,2.802-1.943l0.155-0.438v-8.181l-0.144-0.431C99.348,28.852,98.651,28.202,97.667,27.989z M97.96,38.337
			c-0.166,0.566-0.486,0.796-1.105,0.796c-0.658,0-1-0.314-1.127-1.031c-0.083-0.459-0.083-6.953,0-7.407
			c0.127-0.717,0.47-1.031,1.117-1.031c0.205,0,0.453,0.034,0.552,0.079c0.249,0.101,0.464,0.375,0.564,0.717
			C98.087,30.891,98.087,37.907,97.96,38.337z M146.829,38.926l0.154-0.438v-8.181l-0.144-0.431
			c-0.349-1.025-1.045-1.675-2.028-1.888c-0.398-0.084-1.293-0.073-1.691,0.028c-1,0.247-1.741,1.059-1.99,2.191
			c-0.076,0.347-0.088,0.919-0.088,4.208c0,3.631,0.006,3.821,0.11,4.247c0.155,0.605,0.343,0.975,0.696,1.361
			c0.525,0.577,1.211,0.846,2.178,0.846C145.452,40.87,146.376,40.231,146.829,38.926z M142.871,38.102
			c-0.083-0.459-0.083-6.953,0-7.407c0.128-0.717,0.47-1.031,1.116-1.031c0.205,0,0.453,0.034,0.553,0.079
			c0.1,0.039,0.249,0.157,0.332,0.252c0.31,0.381,0.314,0.42,0.314,4.404s-0.005,4.023-0.314,4.405
			c-0.199,0.24-0.442,0.33-0.873,0.33C143.341,39.133,142.999,38.819,142.871,38.102z M216.881,27.989
			c-0.397-0.084-1.294-0.073-1.69,0.028c-1.001,0.247-1.742,1.059-1.99,2.191c-0.078,0.347-0.088,0.919-0.088,4.208
			c0,3.631,0.005,3.821,0.109,4.247c0.155,0.605,0.344,0.975,0.697,1.361c0.524,0.577,1.21,0.846,2.178,0.846
			c1.426,0,2.348-0.639,2.801-1.943l0.155-0.438v-8.181l-0.144-0.431C218.562,28.852,217.864,28.202,216.881,27.989z
			 M216.942,38.803c-0.199,0.24-0.443,0.33-0.874,0.33c-0.657,0-1-0.314-1.128-1.031c-0.082-0.459-0.082-6.953,0-7.407
			c0.128-0.717,0.471-1.031,1.117-1.031c0.204,0,0.453,0.034,0.553,0.079c0.1,0.039,0.248,0.157,0.332,0.252
			c0.309,0.381,0.314,0.42,0.314,4.404S217.251,38.421,216.942,38.803z M232.19,27.989c-0.398-0.084-1.293-0.073-1.691,0.028
			c-1,0.247-1.741,1.059-1.99,2.191c-0.076,0.347-0.088,0.919-0.088,4.208c0,3.631,0.006,3.821,0.11,4.247
			c0.155,0.605,0.343,0.975,0.696,1.361c0.525,0.577,1.211,0.846,2.178,0.846c1.426,0,2.35-0.639,2.803-1.943l0.154-0.438v-8.181
			l-0.144-0.431C233.87,28.852,233.174,28.202,232.19,27.989z M232.251,38.803c-0.199,0.24-0.442,0.33-0.873,0.33
			c-0.658,0-1-0.314-1.128-1.031c-0.083-0.459-0.083-6.953,0-7.407c0.128-0.717,0.47-1.031,1.116-1.031
			c0.205,0,0.453,0.034,0.553,0.079c0.1,0.039,0.249,0.157,0.332,0.252c0.31,0.381,0.314,0.42,0.314,4.404
			S232.561,38.421,232.251,38.803z M72.869,28.039l-1.061,3.149c-0.586,1.737-1.172,3.479-1.299,3.883l-0.238,0.729l-0.017-3.776
			c-0.011-3.418-0.022-3.788-0.105-3.883c-0.077-0.084-0.177-0.101-0.708-0.101c-0.575,0-0.625,0.011-0.735,0.129l-0.122,0.129
			v12.22l0.127,0.124c0.127,0.111,0.171,0.117,0.917,0.105l0.791-0.017l1.177-3.726c0.652-2.051,1.26-3.939,1.349-4.203l0.16-0.476
			l0.005,4.124c0.006,3.922,0.011,4.129,0.105,4.213c0.083,0.078,0.227,0.096,0.741,0.096c0.547,0,0.646-0.018,0.724-0.102
			c0.088-0.095,0.094-0.61,0.094-6.27c0-5.9-0.005-6.169-0.1-6.253c-0.088-0.079-0.237-0.095-0.956-0.095H72.869z M76.279,28.168
			l-0.122,0.129v12.22l0.127,0.118c0.116,0.111,0.188,0.123,0.824,0.123c0.597,0,0.702-0.012,0.779-0.102
			c0.083-0.095,0.094-0.363,0.094-2.745v-2.645h2.487v5.25l0.127,0.118c0.116,0.111,0.188,0.123,0.824,0.123
			c0.597,0,0.702-0.012,0.779-0.102c0.088-0.095,0.094-0.61,0.094-6.27c0-5.9-0.005-6.169-0.1-6.253
			c-0.083-0.079-0.227-0.095-0.796-0.095c-1.028,0-0.928-0.308-0.928,2.902v2.645h-2.487v-2.678c0-2.527-0.005-2.689-0.1-2.773
			c-0.083-0.079-0.227-0.095-0.795-0.095C76.439,28.039,76.389,28.044,76.279,28.168z M87.266,39.414v0.577
			c0,0.779-0.011,0.768,0.896,0.768c0.884,0,0.873,0.012,0.873-0.773v-0.571h0.597c1.359,0,2.227-0.481,2.697-1.479
			c0.332-0.706,0.365-1.053,0.343-3.72c-0.022-2-0.039-2.387-0.116-2.673c-0.398-1.412-1.393-2.09-3.062-2.101h-0.459v-0.577
			c0-0.532-0.011-0.588-0.127-0.701c-0.116-0.112-0.188-0.123-0.796-0.123c-0.569,0-0.674,0.017-0.752,0.101
			c-0.077,0.084-0.094,0.224-0.094,0.695v0.588l-0.674,0.034c-1.371,0.067-2.15,0.499-2.614,1.457
			c-0.337,0.689-0.359,0.913-0.359,3.502c0,1.894,0.017,2.393,0.088,2.739c0.304,1.514,1.288,2.259,2.962,2.259H87.266z
			 M89.035,31.166l0.569,0.022c0.475,0.017,0.597,0.039,0.779,0.151c0.149,0.095,0.254,0.229,0.359,0.448l0.144,0.313l0.017,2.062
			c0.022,2.242-0.017,2.712-0.238,3.099c-0.205,0.353-0.486,0.471-1.122,0.471h-0.508V31.166z M85.448,36.668
			c-0.077-0.488-0.077-4.029,0-4.455c0.105-0.577,0.31-0.863,0.708-0.98c0.077-0.028,0.359-0.051,0.63-0.051l0.481-0.005v6.556
			h-0.514C85.89,37.733,85.575,37.475,85.448,36.668z M106.853,30.208c-0.199-0.902-0.663-1.547-1.349-1.872
			c-0.558-0.269-0.807-0.297-2.537-0.297h-1.592l-0.116,0.129l-0.122,0.129v12.22l0.127,0.118c0.116,0.111,0.188,0.123,0.823,0.123
			c0.597,0,0.702-0.012,0.779-0.102c0.083-0.095,0.094-0.342,0.094-2.408V35.94h0.763c0.437,0,0.912-0.034,1.122-0.079
			c1.062-0.229,1.78-0.975,2.012-2.079C106.98,33.205,106.975,30.762,106.853,30.208z M105.162,32.297
			c-0.022,0.953-0.039,1.126-0.138,1.351c-0.205,0.465-0.569,0.61-1.542,0.61h-0.52v-4.488l0.796,0.017
			c0.707,0.017,0.818,0.028,0.956,0.134C105.101,30.213,105.195,30.723,105.162,32.297z M114.182,34.146l0.155-0.756l0.005,3.563
			l0.006,3.563l0.127,0.118c0.116,0.111,0.188,0.123,0.796,0.123c0.569,0,0.674-0.018,0.751-0.102
			c0.088-0.095,0.094-0.61,0.094-6.27c0-5.9-0.006-6.169-0.1-6.253c-0.088-0.084-0.254-0.095-1.155-0.095h-1.05l-0.84,4.27
			c-0.464,2.354-0.856,4.315-0.873,4.36c-0.028,0.072-0.337-1.396-1.515-7.217l-0.287-1.412h-1.061c-0.957,0-1.072,0.011-1.15,0.101
			c-0.088,0.095-0.094,0.611-0.094,6.27c0,5.9,0.005,6.169,0.1,6.253c0.083,0.078,0.221,0.096,0.713,0.096
			c0.558,0,0.613-0.012,0.724-0.129l0.122-0.129l0.011-3.569l0.017-3.569l0.741,3.631c0.409,1.995,0.751,3.659,0.768,3.693
			c0.017,0.055,0.243,0.072,0.862,0.072h0.846l0.569-2.931C113.773,36.219,114.099,34.561,114.182,34.146z M117.249,40.612
			c0.094,0.146,0.1,0.146,0.834,0.146c0.409,0,0.741-0.006,0.746-0.018c0-0.005,0.105-0.555,0.232-1.215l0.232-1.205l1.332-0.017
			l1.327-0.011l0.21,1.131c0.116,0.628,0.221,1.183,0.232,1.232c0.027,0.09,0.116,0.102,0.823,0.102c0.791,0,0.791,0,0.885-0.146
			c0.088-0.14,0.061-0.324-1.023-6.062c-0.613-3.261-1.144-6.057-1.171-6.219l-0.061-0.292h-2.343l-0.061,0.292
			c-0.028,0.162-0.558,2.958-1.172,6.219C117.188,40.288,117.161,40.472,117.249,40.612z M120.576,31.261l0.039-0.112l0.022,0.112
			c0.011,0.062,0.243,1.266,0.514,2.678c0.271,1.407,0.492,2.601,0.492,2.646c0,0.072-0.155,0.084-1.022,0.084
			c-0.989,0-1.022-0.006-1.022-0.113C119.598,36.432,120.521,31.44,120.576,31.261z M125.401,34.41c0,5.9,0.005,6.169,0.099,6.253
			c0.094,0.084,0.354,0.096,2.598,0.096h2.499v0.689c0,0.684,0,0.694,0.154,0.84c0.149,0.146,0.177,0.151,0.791,0.151
			c0.934,0,0.879,0.106,0.879-1.687c0-1.423,0-1.434-0.128-1.552c-0.1-0.096-0.198-0.124-0.442-0.124h-0.314V28.28l-0.127-0.118
			c-0.116-0.112-0.188-0.123-0.818-0.123c-0.652,0-0.702,0.005-0.813,0.129l-0.121,0.129v10.724h-2.487v-5.396
			c0-5.161-0.006-5.407-0.1-5.491c-0.083-0.079-0.227-0.095-0.796-0.095c-0.597,0-0.702,0.011-0.779,0.101
			C125.407,28.235,125.401,28.75,125.401,34.41z M136.593,37.004c0.652-2.051,1.26-3.939,1.349-4.203l0.16-0.476l0.006,4.124
			c0.005,3.922,0.011,4.129,0.104,4.213c0.084,0.078,0.227,0.096,0.74,0.096c0.548,0,0.647-0.018,0.725-0.102
			c0.088-0.095,0.094-0.61,0.094-6.27c0-5.9-0.006-6.169-0.1-6.253c-0.088-0.079-0.237-0.095-0.955-0.095h-0.852l-1.062,3.149
			c-0.586,1.737-1.171,3.479-1.299,3.883l-0.237,0.729l-0.017-3.776c-0.011-3.418-0.022-3.788-0.104-3.883
			c-0.078-0.084-0.178-0.101-0.708-0.101c-0.575,0-0.624,0.011-0.735,0.129l-0.121,0.129v12.22l0.127,0.124
			c0.127,0.111,0.172,0.117,0.918,0.105l0.789-0.017L136.593,37.004z M154.323,40.657c0.088-0.095,0.094-0.61,0.094-6.27
			c0-5.9-0.006-6.169-0.1-6.253c-0.083-0.079-0.227-0.095-0.796-0.095c-1.028,0-0.929-0.308-0.929,2.902v2.645h-2.486v-2.678
			c0-2.527-0.006-2.689-0.1-2.773c-0.084-0.079-0.227-0.095-0.797-0.095c-0.646,0-0.695,0.005-0.807,0.129l-0.121,0.129v12.22
			l0.127,0.118c0.116,0.111,0.188,0.123,0.824,0.123c0.596,0,0.701-0.012,0.779-0.102c0.082-0.095,0.094-0.363,0.094-2.745v-2.645
			h2.486v5.25l0.127,0.118c0.117,0.111,0.188,0.123,0.824,0.123C154.141,40.758,154.245,40.747,154.323,40.657z M161.839,40.657
			c0.089-0.095,0.094-0.61,0.094-6.27c0-5.9-0.005-6.169-0.099-6.253c-0.083-0.079-0.227-0.095-0.796-0.095
			c-1.028,0-0.929-0.308-0.929,2.902v2.645h-2.487v-2.678c0-2.527-0.006-2.689-0.1-2.773c-0.082-0.079-0.227-0.095-0.795-0.095
			c-0.646,0-0.697,0.005-0.808,0.129l-0.121,0.129v12.22l0.127,0.118c0.116,0.111,0.188,0.123,0.823,0.123
			c0.598,0,0.702-0.012,0.779-0.102c0.083-0.095,0.094-0.363,0.094-2.745v-2.645h2.487v5.25l0.128,0.118
			c0.115,0.111,0.188,0.123,0.822,0.123C161.657,40.758,161.763,40.747,161.839,40.657z M169.03,38.561
			c0.121-0.594,0.121-2.975,0.005-3.546c-0.231-1.104-0.95-1.849-2.012-2.079c-0.21-0.045-0.685-0.078-1.122-0.078h-0.763v-2.314
			c0-2.174-0.005-2.325-0.099-2.409c-0.084-0.079-0.227-0.095-0.797-0.095c-0.646,0-0.696,0.005-0.807,0.129l-0.121,0.129v12.22
			l0.127,0.118c0.127,0.123,0.16,0.123,1.729,0.123c1.261,0,1.675-0.018,1.929-0.084C168.151,40.399,168.804,39.682,169.03,38.561z
			 M166.891,38.875c-0.138,0.106-0.249,0.117-0.956,0.135l-0.796,0.017v-4.488h0.52c0.282,0,0.652,0.028,0.813,0.056
			c0.382,0.073,0.542,0.19,0.713,0.539c0.128,0.257,0.139,0.336,0.155,1.367C167.372,38.075,167.272,38.584,166.891,38.875z
			 M170.731,40.758c0.598,0,0.703-0.012,0.779-0.102c0.089-0.095,0.095-0.61,0.095-6.27c0-5.9-0.006-6.169-0.1-6.253
			c-0.083-0.079-0.227-0.095-0.796-0.095c-0.598,0-0.702,0.011-0.779,0.101c-0.088,0.095-0.094,0.611-0.094,6.27
			c0,5.9,0.006,6.169,0.1,6.253C170.019,40.741,170.163,40.758,170.731,40.758z M177.148,38.354l0.901,2.376l0.795,0.017
			c0.774,0.012,0.803,0.012,0.896-0.111c0.055-0.073,0.1-0.163,0.1-0.196c0-0.04-0.52-1.44-1.161-3.11
			c-0.636-1.675-1.161-3.081-1.161-3.126s0.498-1.384,1.1-2.97l1.101-2.886l-0.11-0.157l-0.111-0.157l-0.724,0.017l-0.724,0.017
			l-0.818,2.129c-0.447,1.171-0.829,2.168-0.852,2.213c-0.016,0.045-0.408-0.908-0.867-2.129l-0.84-2.213l-0.802-0.011
			c-0.79-0.017-0.802-0.011-0.896,0.124c-0.055,0.073-0.1,0.151-0.1,0.168s0.498,1.333,1.105,2.919
			c0.608,1.585,1.105,2.908,1.105,2.936c0,0.034-0.536,1.445-1.188,3.144l-1.189,3.087l0.095,0.163l0.1,0.168l0.746-0.018
			l0.74-0.017l0.912-2.393c0.503-1.316,0.923-2.387,0.935-2.376C176.242,35.973,176.657,37.049,177.148,38.354z M186.876,28.039
			h-2.93l-0.115,0.129c-0.111,0.118-0.122,0.19-0.122,0.717c0,0.571,0.005,0.594,0.155,0.739l0.154,0.151h1.957v5.396
			c0,5.16,0.005,5.406,0.099,5.49c0.083,0.078,0.227,0.096,0.796,0.096c0.646,0,0.697-0.006,0.807-0.129l0.122-0.129V29.776h0.983
			c1.266,0,1.228,0.028,1.228-0.908c0-0.555-0.017-0.656-0.1-0.734C189.815,28.05,189.528,28.039,186.876,28.039z M193.734,28.039
			h-2.492l-0.116,0.129l-0.121,0.129v12.22l0.127,0.118c0.127,0.123,0.138,0.123,2.613,0.123h2.493l0.116-0.129
			c0.11-0.117,0.121-0.19,0.121-0.751c0-0.913,0.133-0.857-1.967-0.857h-1.681v-3.866h1.37c1.703,0,1.614,0.045,1.614-0.846
			c0-0.88,0.089-0.835-1.619-0.835h-1.365v-3.698h1.681c2.1,0,1.967,0.062,1.967-0.863
			C196.476,27.955,196.747,28.039,193.734,28.039z M202.224,34.203c0-0.045,0.498-1.384,1.1-2.97l1.1-2.886l-0.109-0.157
			l-0.111-0.157l-0.724,0.017l-0.724,0.017l-0.818,2.129c-0.447,1.171-0.829,2.168-0.852,2.213
			c-0.016,0.045-0.408-0.908-0.867-2.129l-0.84-2.213l-0.802-0.011c-0.79-0.017-0.802-0.011-0.896,0.124
			c-0.055,0.073-0.1,0.151-0.1,0.168s0.498,1.333,1.105,2.919c0.607,1.585,1.105,2.908,1.105,2.936c0,0.034-0.536,1.445-1.188,3.144
			l-1.188,3.087l0.094,0.163l0.1,0.168l0.746-0.018l0.741-0.017l0.911-2.393c0.504-1.316,0.924-2.387,0.935-2.376
			c0.006,0.012,0.421,1.088,0.912,2.393l0.901,2.376l0.795,0.017c0.774,0.012,0.802,0.012,0.896-0.111
			c0.056-0.073,0.1-0.163,0.1-0.196c0-0.04-0.52-1.44-1.161-3.11C202.749,35.654,202.224,34.248,202.224,34.203z M210.89,28.039
			c-1.027,0-0.928-0.308-0.928,2.902v2.645h-2.488v-2.678c0-2.527-0.005-2.689-0.1-2.773c-0.082-0.079-0.226-0.095-0.795-0.095
			c-0.646,0-0.697,0.005-0.807,0.129l-0.122,0.129v12.22l0.127,0.118c0.116,0.111,0.188,0.123,0.823,0.123
			c0.598,0,0.702-0.012,0.779-0.102c0.084-0.095,0.094-0.363,0.094-2.745v-2.645h2.488v5.25l0.127,0.118
			c0.115,0.111,0.188,0.123,0.823,0.123c0.597,0,0.702-0.012,0.779-0.102c0.089-0.095,0.094-0.61,0.094-6.27
			c0-5.9-0.005-6.169-0.1-6.253C211.603,28.056,211.459,28.039,210.89,28.039z M224.265,28.039h-2.575l-0.033,0.74
			c-0.022,0.409-0.1,2.521-0.171,4.695c-0.072,2.174-0.15,4.151-0.166,4.394c-0.056,0.778-0.326,1.153-0.835,1.153
			c-0.16,0-0.255,0.034-0.343,0.129c-0.11,0.118-0.121,0.19-0.121,0.778c0,0.842,0.011,0.857,0.729,0.818
			c1.316-0.078,2.029-0.778,2.289-2.24c0.061-0.348,0.354-7.436,0.354-8.534v-0.196h1.879v5.396c0,5.16,0.006,5.406,0.1,5.49
			c0.083,0.078,0.227,0.096,0.796,0.096c0.646,0,0.696-0.006,0.807-0.129l0.122-0.129V28.28l-0.127-0.118
			C226.841,28.039,226.829,28.039,224.265,28.039z M238.331,28.039c-2.283,0-2.438,0.005-2.521,0.101
			c-0.088,0.095-0.094,0.611-0.094,6.27c0,5.9,0.006,6.169,0.1,6.253c0.083,0.078,0.227,0.096,0.797,0.096
			c0.596,0,0.701-0.012,0.779-0.102c0.088-0.095,0.094-0.555,0.094-5.49v-5.391h3.244l0.115-0.129
			c0.111-0.118,0.122-0.19,0.122-0.779c0-0.555-0.017-0.656-0.1-0.734C240.773,28.05,240.519,28.039,238.331,28.039z
			 M247.428,28.039h-0.851l-1.063,3.149c-0.586,1.737-1.171,3.479-1.299,3.883l-0.236,0.729l-0.018-3.776
			c-0.011-3.418-0.021-3.788-0.104-3.883c-0.077-0.084-0.177-0.101-0.708-0.101c-0.574,0-0.624,0.011-0.734,0.129l-0.122,0.129
			v12.22l0.128,0.124c0.127,0.111,0.171,0.117,0.917,0.105l0.79-0.017l1.178-3.726c0.652-2.051,1.26-3.939,1.348-4.203l0.16-0.476
			l0.006,4.124c0.006,3.922,0.012,4.129,0.105,4.213c0.082,0.078,0.227,0.096,0.74,0.096c0.547,0,0.646-0.018,0.725-0.102
			c0.088-0.095,0.094-0.61,0.094-6.27c0-5.9-0.006-6.169-0.1-6.253C248.296,28.056,248.146,28.039,247.428,28.039z M255.899,28.134
			c-0.088-0.079-0.236-0.095-0.955-0.095h-0.852l-1.033,3.065c-0.569,1.692-1.155,3.435-1.299,3.883l-0.266,0.813l-0.017-3.776
			c-0.011-3.418-0.022-3.788-0.104-3.883c-0.078-0.084-0.178-0.101-0.707-0.101c-0.576,0-0.625,0.011-0.736,0.129l-0.121,0.129
			v12.22l0.127,0.124c0.127,0.111,0.172,0.117,0.918,0.105l0.79-0.017l1.039-3.249c0.575-1.788,1.172-3.665,1.337-4.175l0.293-0.925
			l0.018,4.085c0.011,3.704,0.021,4.096,0.104,4.19c0.077,0.084,0.183,0.102,0.735,0.102c0.559,0,0.657-0.018,0.734-0.102
			c0.089-0.095,0.094-0.61,0.094-6.27C255.999,28.487,255.994,28.218,255.899,28.134z M146.403,46.53v0.168
			c0,0.297-0.145,0.555-0.354,0.645c-0.387,0.168-1.001,0.061-1.133-0.191c-0.033-0.061-0.078-0.229-0.095-0.369l-0.038-0.252
			h-0.537c-0.491,0-0.541,0.011-0.657,0.135c-0.11,0.117-0.122,0.173-0.089,0.381c0.178,1.086,0.912,1.67,2.105,1.67
			c1.139,0,1.88-0.555,2.068-1.559c0.065-0.336,0.065-0.358-0.056-0.487c-0.122-0.129-0.166-0.14-0.675-0.14H146.403z M109.937,49
			c-0.398-0.084-1.293-0.072-1.691,0.027c-1,0.247-1.741,1.06-1.99,2.191c-0.078,0.348-0.088,0.919-0.088,4.208
			c0,3.631,0.005,3.821,0.11,4.247c0.155,0.605,0.343,0.975,0.696,1.361c0.525,0.578,1.21,0.847,2.178,0.847
			c1.426,0,2.349-0.639,2.802-1.944l0.155-0.438v-8.18l-0.144-0.432C111.617,49.864,110.921,49.213,109.937,49z M110.23,59.35
			c-0.166,0.565-0.486,0.795-1.105,0.795c-0.658,0-1-0.313-1.127-1.031c-0.083-0.459-0.083-6.953,0-7.407
			c0.127-0.717,0.47-1.03,1.117-1.03c0.205,0,0.453,0.033,0.553,0.078c0.249,0.101,0.464,0.375,0.563,0.717
			C110.357,51.903,110.357,58.918,110.23,59.35z M125.583,56.839c-0.934,0-0.89-0.067-0.912,1.372
			c-0.017,1.082-0.022,1.139-0.16,1.401c-0.21,0.415-0.453,0.544-1.017,0.521c-0.514-0.017-0.735-0.141-0.907-0.487
			c-0.21-0.41-0.227-0.768-0.227-4.236s0.017-3.827,0.227-4.236c0.171-0.348,0.393-0.471,0.907-0.487
			c0.563-0.022,0.807,0.106,1.017,0.521c0.133,0.258,0.144,0.348,0.171,1.211c0.039,1.222,0,1.171,0.912,1.171
			c0.895,0,0.856,0.051,0.856-1.081c0-1.037-0.083-1.519-0.365-2.102c-0.343-0.711-0.917-1.177-1.708-1.384
			c-0.392-0.101-1.315-0.106-1.724-0.006c-1.011,0.253-1.747,1.065-1.979,2.19c-0.122,0.578-0.122,7.828,0,8.405
			c0.182,0.892,0.724,1.647,1.409,1.973c0.464,0.224,0.829,0.297,1.454,0.297c1.21,0,2.083-0.505,2.548-1.468
			c0.293-0.611,0.365-1.054,0.365-2.309C126.451,56.76,126.506,56.839,125.583,56.839z M138.952,49
			c-0.397-0.084-1.293-0.072-1.69,0.027c-1.001,0.247-1.741,1.06-1.989,2.191c-0.078,0.348-0.089,0.919-0.089,4.208
			c0,3.631,0.005,3.821,0.11,4.247c0.154,0.605,0.343,0.975,0.697,1.361c0.524,0.578,1.209,0.847,2.177,0.847
			c1.427,0,2.349-0.639,2.802-1.944l0.155-0.438v-8.18l-0.144-0.432C140.633,49.864,139.937,49.213,138.952,49z M139.014,59.815
			c-0.199,0.24-0.442,0.33-0.873,0.33c-0.657,0-1.001-0.313-1.128-1.031c-0.082-0.459-0.082-6.953,0-7.407
			c0.127-0.717,0.471-1.03,1.117-1.03c0.204,0,0.453,0.033,0.553,0.078c0.1,0.039,0.248,0.156,0.331,0.252
			c0.31,0.381,0.315,0.42,0.315,4.404C139.329,59.394,139.323,59.434,139.014,59.815z M156.804,49
			c-0.396-0.084-1.293-0.072-1.69,0.027c-1.001,0.247-1.741,1.06-1.989,2.191c-0.078,0.348-0.089,0.919-0.089,4.208
			c0,3.631,0.005,3.821,0.11,4.247c0.154,0.605,0.343,0.975,0.697,1.361c0.524,0.578,1.21,0.847,2.177,0.847
			c1.427,0,2.349-0.639,2.802-1.944l0.155-0.438v-8.18l-0.144-0.432C158.484,49.864,157.788,49.213,156.804,49z M156.865,59.815
			c-0.199,0.24-0.442,0.33-0.873,0.33c-0.657,0-1.001-0.313-1.128-1.031c-0.082-0.459-0.082-6.953,0-7.407
			c0.127-0.717,0.471-1.03,1.117-1.03c0.204,0,0.453,0.033,0.553,0.078c0.1,0.039,0.248,0.156,0.331,0.252
			c0.31,0.381,0.315,0.42,0.315,4.404C157.181,59.394,157.175,59.434,156.865,59.815z M188.479,56.839
			c-0.935,0-0.89-0.067-0.911,1.372c-0.018,1.082-0.023,1.139-0.161,1.401c-0.21,0.415-0.453,0.544-1.017,0.521
			c-0.514-0.017-0.735-0.141-0.906-0.487c-0.211-0.41-0.227-0.768-0.227-4.236s0.016-3.827,0.227-4.236
			c0.171-0.348,0.393-0.471,0.906-0.487c0.563-0.022,0.807,0.106,1.017,0.521c0.133,0.258,0.144,0.348,0.171,1.211
			c0.039,1.222,0,1.171,0.912,1.171c0.896,0,0.857,0.051,0.857-1.081c0-1.037-0.083-1.519-0.365-2.102
			c-0.343-0.711-0.918-1.177-1.707-1.384c-0.393-0.101-1.316-0.106-1.725-0.006c-1.012,0.253-1.747,1.065-1.979,2.19
			c-0.122,0.578-0.122,7.828,0,8.405c0.182,0.892,0.724,1.647,1.408,1.973c0.465,0.224,0.83,0.297,1.454,0.297
			c1.21,0,2.083-0.505,2.548-1.468c0.293-0.611,0.365-1.054,0.365-2.309C189.347,56.76,189.401,56.839,188.479,56.839z
			 M74.267,49.051c-0.453,0-0.818,0.011-0.818,0.021c0,0.018-0.238,0.953-0.531,2.091c-0.293,1.132-0.641,2.538-0.774,3.126
			c-0.132,0.583-0.265,1.109-0.287,1.166c-0.028,0.066-0.127-0.225-0.304-0.896c-0.149-0.549-0.558-2.006-0.917-3.238l-0.646-2.242
			l-1.559-0.033l-0.105,0.151l-0.105,0.146l1.376,4.466l1.376,4.46l-0.205,0.633c-0.293,0.908-0.492,1.109-1.177,1.172
			c-0.586,0.05-0.619,0.101-0.619,0.98v0.717l0.292,0.006c0.923,0.012,1.365-0.057,1.863-0.303c0.575-0.28,1.056-0.908,1.321-1.736
			c0.088-0.286,0.763-2.74,1.498-5.458c1.327-4.914,1.337-4.942,1.233-5.082C75.08,49.057,75.068,49.057,74.267,49.051z
			 M80.181,49.051h-2.575l-0.033,0.739c-0.022,0.409-0.1,2.521-0.171,4.695c-0.072,2.175-0.149,4.152-0.166,4.394
			c-0.055,0.778-0.326,1.154-0.834,1.154c-0.16,0-0.254,0.033-0.343,0.129c-0.11,0.117-0.122,0.189-0.122,0.778
			c0,0.841,0.011,0.857,0.729,0.817c1.315-0.078,2.028-0.778,2.288-2.24c0.055-0.337,0.354-7.441,0.354-8.528v-0.202h1.879v5.396
			c0,5.16,0.005,5.406,0.1,5.49c0.083,0.079,0.227,0.096,0.796,0.096c0.646,0,0.696-0.006,0.807-0.129l0.122-0.129V49.292
			l-0.127-0.117C82.756,49.051,82.745,49.051,80.181,49.051z M88.101,53.948c-0.21-0.045-0.685-0.078-1.122-0.078h-0.763v-2.314
			c0-2.174-0.005-2.325-0.099-2.409c-0.083-0.078-0.227-0.095-0.796-0.095c-0.647,0-0.697,0.006-0.807,0.129l-0.122,0.129V61.53
			l0.127,0.117c0.127,0.123,0.16,0.123,1.729,0.123c1.26,0,1.675-0.017,1.929-0.084c1.05-0.274,1.702-0.992,1.929-2.112
			c0.122-0.594,0.122-2.976,0.005-3.547C89.88,54.922,89.162,54.178,88.101,53.948z M87.968,59.887
			c-0.138,0.106-0.249,0.118-0.956,0.135l-0.796,0.017v-4.487h0.52c0.282,0,0.652,0.027,0.813,0.055
			c0.381,0.073,0.542,0.191,0.713,0.539c0.127,0.258,0.138,0.336,0.155,1.367C88.449,59.086,88.349,59.596,87.968,59.887z
			 M95.496,49.057c-1.172,0-1.725,0.027-1.979,0.084c-1.028,0.224-1.691,0.912-1.918,1.972c-0.105,0.51-0.105,2.427,0,2.931
			c0.127,0.6,0.415,1.087,0.813,1.384l0.215,0.163l-0.243,0.174c-0.447,0.324-0.751,0.936-0.856,1.714
			c-0.033,0.241-0.061,1.064-0.061,1.838c0,1.109-0.017,1.479-0.094,1.788c-0.083,0.353-0.083,0.392,0.005,0.525l0.094,0.146
			l0.779-0.018l0.785-0.016l0.11-0.309c0.1-0.275,0.111-0.493,0.138-2.107l0.033-1.793l0.166-0.33
			c0.138-0.275,0.215-0.354,0.442-0.471c0.238-0.129,0.354-0.146,0.951-0.168l0.68-0.018v2.517c0,2.37,0.006,2.526,0.1,2.61
			c0.083,0.079,0.232,0.096,0.824,0.096c0.625,0,0.729-0.012,0.807-0.101c0.088-0.095,0.094-0.61,0.094-6.242v-6.136l-0.127-0.117
			C97.126,49.051,97.093,49.051,95.496,49.057z M95.556,54.823h-0.553c-0.978,0-1.337-0.157-1.564-0.673
			c-0.094-0.208-0.122-0.403-0.138-1.132c-0.039-1.355,0.094-1.883,0.531-2.118c0.171-0.09,0.326-0.106,0.967-0.112h0.757V54.823z
			 M103.946,49.051c-1.028,0-0.928-0.309-0.928,2.902v2.645h-2.487V51.92c0-2.527-0.005-2.69-0.099-2.774
			c-0.083-0.078-0.227-0.095-0.796-0.095c-0.647,0-0.697,0.006-0.807,0.129l-0.122,0.129V61.53l0.127,0.117
			c0.116,0.111,0.188,0.123,0.824,0.123c0.597,0,0.702-0.012,0.779-0.101c0.083-0.095,0.094-0.364,0.094-2.745v-2.646h2.487v5.251
			l0.127,0.117c0.116,0.111,0.188,0.123,0.824,0.123c0.597,0,0.702-0.012,0.779-0.101c0.088-0.095,0.094-0.61,0.094-6.271
			c0-5.9-0.005-6.169-0.1-6.253C104.659,49.068,104.515,49.051,103.946,49.051z M118.271,55.046c-0.033,0,0.072-0.135,0.238-0.297
			c0.58-0.577,0.724-1.126,0.685-2.646c-0.017-0.896-0.039-1.125-0.138-1.434c-0.221-0.684-0.691-1.177-1.381-1.44
			c-0.365-0.146-0.387-0.146-2.194-0.168l-1.824-0.017l-0.127,0.129l-0.122,0.135V61.53l0.127,0.117
			c0.127,0.123,0.16,0.123,1.818,0.123c1.509,0,1.73-0.012,2.122-0.111c0.763-0.202,1.321-0.645,1.642-1.312
			c0.254-0.521,0.315-0.947,0.315-2.191c0-1.261-0.061-1.669-0.32-2.19C118.957,55.651,118.404,55.046,118.271,55.046z
			 M115.232,50.788h0.763c0.625,0,0.79,0.018,0.951,0.102c0.127,0.066,0.237,0.195,0.332,0.381c0.132,0.258,0.138,0.324,0.138,1.199
			c0,0.873-0.006,0.941-0.138,1.204c-0.21,0.426-0.481,0.544-1.36,0.577l-0.685,0.028V50.788z M117.111,59.905
			c-0.221,0.117-0.32,0.129-1.061,0.129h-0.818v-4.035h0.763c0.702,0,0.785,0.012,1.039,0.141c0.486,0.246,0.63,0.694,0.63,1.967
			C117.664,59.249,117.531,59.692,117.111,59.905z M131.094,54.878c0-0.04,0.657-1.278,1.464-2.745
			c0.808-1.475,1.465-2.713,1.465-2.758c0-0.039-0.038-0.135-0.088-0.201c-0.078-0.117-0.121-0.123-0.846-0.123h-0.763l-1.403,2.588
			l-1.404,2.595l-0.017-2.487c-0.011-2.219-0.022-2.506-0.104-2.595c-0.078-0.09-0.183-0.101-0.791-0.101
			c-0.658,0-0.707,0.006-0.818,0.129l-0.122,0.129V61.53l0.127,0.117c0.116,0.111,0.188,0.123,0.824,0.123
			c0.597,0,0.701-0.012,0.779-0.101c0.082-0.095,0.094-0.325,0.094-2.13v-2.022l0.232-0.392l0.237-0.398l1.227,2.521l1.222,2.521
			h0.773c0.758,0,0.773,0,0.862-0.141c0.05-0.072,0.089-0.162,0.089-0.195s-0.686-1.502-1.52-3.272
			C131.778,56.397,131.094,54.917,131.094,54.878z M147.558,49.051h-0.851l-1.034,3.064c-0.568,1.692-1.154,3.436-1.299,3.883
			l-0.265,0.813l-0.017-3.776c-0.012-3.418-0.021-3.788-0.105-3.883c-0.076-0.084-0.176-0.101-0.707-0.101
			c-0.574,0-0.625,0.011-0.734,0.129l-0.122,0.129V61.53l0.127,0.123c0.127,0.111,0.171,0.117,0.917,0.105l0.791-0.016l1.039-3.25
			c0.574-1.788,1.172-3.665,1.338-4.175l0.293-0.925l0.016,4.085c0.012,3.704,0.022,4.097,0.105,4.191
			c0.077,0.084,0.182,0.101,0.734,0.101c0.559,0,0.658-0.017,0.736-0.101c0.088-0.095,0.094-0.61,0.094-6.271
			c0-5.9-0.006-6.169-0.1-6.253C148.426,49.068,148.276,49.051,147.558,49.051z M165.028,54.52c-0.541-0.292-0.967-0.37-2.028-0.37
			h-0.901v-3.362h3.521l0.115-0.129c0.111-0.117,0.122-0.19,0.122-0.778c0-0.555-0.017-0.655-0.1-0.734
			c-0.094-0.084-0.359-0.095-2.675-0.095c-2.421,0-2.576,0.006-2.658,0.101c-0.089,0.095-0.094,0.61-0.094,6.271
			c0,5.899,0.005,6.168,0.1,6.252c0.088,0.084,0.298,0.096,1.813,0.096c1.31,0,1.791-0.022,2.056-0.084
			c1.039-0.252,1.725-0.969,1.968-2.084c0.115-0.538,0.121-2.779,0.011-3.334C166.106,55.456,165.687,54.868,165.028,54.52z
			 M164.216,59.764c-0.243,0.235-0.408,0.27-1.293,0.27h-0.824v-4.215l0.846,0.023c0.586,0.017,0.901,0.05,1.034,0.111
			c0.48,0.213,0.547,0.449,0.552,1.928C164.53,59.193,164.481,59.512,164.216,59.764z M171.595,49.051h-2.576l-0.033,0.739
			c-0.021,0.409-0.1,2.521-0.171,4.695c-0.072,2.175-0.149,4.152-0.166,4.394c-0.056,0.778-0.326,1.154-0.835,1.154
			c-0.16,0-0.254,0.033-0.342,0.129c-0.111,0.117-0.122,0.189-0.122,0.778c0,0.841,0.011,0.857,0.729,0.817
			c1.315-0.078,2.028-0.778,2.288-2.24c0.062-0.348,0.354-7.436,0.354-8.534v-0.196h1.879v5.396c0,5.16,0.005,5.406,0.1,5.49
			c0.082,0.079,0.227,0.096,0.795,0.096c0.646,0,0.697-0.006,0.807-0.129l0.122-0.129V49.292l-0.127-0.117
			C174.17,49.051,174.159,49.051,171.595,49.051z M180.216,49.342l-0.061-0.291h-2.344l-0.061,0.291
			c-0.027,0.162-0.559,2.959-1.172,6.22c-1.083,5.737-1.11,5.923-1.021,6.063c0.094,0.146,0.099,0.146,0.834,0.146
			c0.408,0,0.74-0.006,0.746-0.017c0-0.006,0.105-0.555,0.232-1.216l0.231-1.205l1.332-0.017l1.327-0.011l0.209,1.131
			c0.117,0.628,0.222,1.183,0.232,1.233c0.027,0.089,0.116,0.101,0.824,0.101c0.79,0,0.79,0,0.884-0.146
			c0.089-0.14,0.061-0.325-1.022-6.063C180.774,52.301,180.243,49.504,180.216,49.342z M178.929,57.68
			c-0.99,0-1.023-0.006-1.023-0.112c0-0.124,0.924-5.116,0.979-5.295l0.039-0.112l0.021,0.112c0.012,0.062,0.244,1.267,0.515,2.679
			c0.271,1.406,0.491,2.6,0.491,2.645C179.95,57.668,179.796,57.68,178.929,57.68z M193.343,49.051h-2.93l-0.116,0.129
			c-0.11,0.117-0.122,0.189-0.122,0.717c0,0.571,0.006,0.594,0.155,0.74l0.155,0.15h1.956v5.396c0,5.16,0.005,5.406,0.1,5.49
			c0.083,0.079,0.227,0.096,0.796,0.096c0.646,0,0.696-0.006,0.807-0.129l0.121-0.129V50.788h0.984c1.266,0,1.227,0.028,1.227-0.907
			c0-0.555-0.016-0.655-0.1-0.734C196.282,49.062,195.995,49.051,193.343,49.051z M202.604,49.051h-0.851l-1.062,3.148
			c-0.586,1.737-1.172,3.479-1.299,3.883l-0.237,0.729l-0.017-3.776c-0.011-3.418-0.021-3.788-0.105-3.883
			c-0.076-0.084-0.176-0.101-0.707-0.101c-0.574,0-0.625,0.011-0.734,0.129l-0.122,0.129V61.53l0.127,0.123
			c0.128,0.111,0.171,0.117,0.917,0.105l0.791-0.016l1.178-3.727c0.651-2.051,1.26-3.939,1.348-4.203l0.16-0.476l0.006,4.124
			c0.006,3.922,0.012,4.129,0.105,4.213c0.082,0.079,0.227,0.096,0.74,0.096c0.547,0,0.646-0.017,0.725-0.101
			c0.088-0.095,0.094-0.61,0.094-6.271c0-5.9-0.006-6.169-0.1-6.253C203.473,49.068,203.323,49.051,202.604,49.051z"/>
</svg>
