<svg width="200" height="70" viewBox="0 0 200 70" fill="none" xmlns="http://www.w3.org/2000/svg">
<mask id="mask0_209_172" style="mask-type:luminance" maskUnits="userSpaceOnUse" x="0" y="0" width="200" height="70">
<path d="M200 0H0V70H200V0Z" fill="white"/>
</mask>
<g mask="url(#mask0_209_172)">
<path fill-rule="evenodd" clip-rule="evenodd" d="M0 31.902C0 22.3539 9.91218 21.9608 13.7245 21.9608H14.7113V21.5676C14.7113 16.6812 13.1863 14.8839 9.68793 14.8839C8.6115 14.8839 5.96527 15.2209 5.96527 17.0743V18.7031H1.83891V15.8387C1.83891 11.2893 7.53507 10.5591 9.59824 10.5591C17.0884 10.5591 19.0619 15.3332 19.0619 21.6799V33.7555C19.0619 34.598 19.4207 34.9911 20.0486 34.9911H21.8875V39.6529H17.7612C15.7429 39.6529 14.9804 38.4172 14.9804 36.3953C14.9804 35.3843 15.0253 34.7103 15.0253 34.7103H14.9355C14.9804 34.7103 13.0069 40.3269 7.62476 40.3269C3.67782 40.3269 0 37.3501 0 31.902ZM4.3506 31.3965C4.3506 33.6994 5.78584 36.0021 8.6115 36.0021C12.379 36.0021 14.7113 31.1719 14.7113 26.9595V25.8923H13.5452C10.271 25.8923 4.3506 26.2855 4.3506 31.3965ZM26.2514 36.0583V17.1305C26.2514 16.288 25.8926 15.8949 25.2646 15.8949H23.4258V11.2331H27.6866C29.7498 11.2331 30.602 12.3003 30.602 14.8277V33.7555C30.602 34.598 30.9608 34.9911 31.5887 34.9911H33.4277V39.6529H29.1219C27.1036 39.6529 26.2514 38.5857 26.2514 36.0583ZM44.1313 39.6529V34.261H48.4371V39.6529H44.1313ZM48.4371 30.8911H44.1313V15.8949H39.7359C39.108 15.8949 38.7492 16.3442 38.7492 17.1305V19.0402H35.1611V14.7154C35.1611 12.1879 36.0133 11.2331 38.0316 11.2331H54.5369C56.5552 11.2331 57.4074 12.1879 57.4074 14.7154V19.0402H53.8193V17.1305C53.8193 16.3442 53.4605 15.8949 52.8325 15.8949H48.4371V30.8911ZM61.9926 39.6529V17.1305C61.9926 16.288 61.6334 15.8949 61.0504 15.8949H59.2567V11.2331H63.2482C65.2669 11.2331 66.119 12.2441 66.119 14.7716V28.3074C66.119 29.8239 65.9841 31.9582 65.9394 32.2391H66.0289C66.2085 31.7898 67.3745 29.5993 68.1371 28.3074L77.915 11.2331H82.2204V33.7555C82.2204 34.598 82.579 34.9911 83.1626 34.9911H84.9564V39.6529H80.9649C78.9462 39.6529 78.0941 38.5857 78.0941 36.0583V22.5786C78.0941 21.1744 78.2289 19.0402 78.2737 18.5908H78.1841C78.0045 19.0963 76.8385 21.2867 76.0759 22.5786L66.298 39.6529H61.9926ZM87.519 25.3868C87.519 16.9059 92.6323 11.2893 100.257 11.2331V5.89739C100.257 5.0549 99.898 4.66174 99.2703 4.66174H97.4312V0H101.737C103.755 0 104.608 1.06715 104.608 3.5946V11.2331C112.232 11.2893 117.346 16.9059 117.346 25.3868C117.346 33.8678 112.232 39.5967 104.608 39.6529V50.886H100.257V39.6529C92.6323 39.5967 87.519 33.8678 87.519 25.3868ZM104.608 35.2158C109.721 35.2158 112.905 31.1719 112.905 25.3868C112.905 19.6579 109.721 15.7264 104.608 15.7264V35.2158ZM91.9145 25.3868C91.9145 31.1719 95.0991 35.2158 100.257 35.2158V15.7264C95.0991 15.7264 91.9145 19.6579 91.9145 25.3868ZM120.368 25.3868C120.368 16.7935 125.795 10.5591 132.568 10.5591C139.341 10.5591 144.812 16.7935 144.812 25.3868C144.812 34.0363 139.341 40.3269 132.568 40.3269C125.795 40.3269 120.368 34.0363 120.368 25.3868ZM124.764 25.3868C124.764 31.3404 128.307 35.609 132.568 35.609C136.874 35.609 140.372 31.3404 140.372 25.3868C140.372 19.4895 136.874 15.277 132.568 15.277C128.307 15.277 124.764 19.4895 124.764 25.3868ZM150.12 39.6529V17.1305C150.12 16.288 149.761 15.8949 149.133 15.8949H147.294V11.2331H151.6C153.618 11.2331 154.47 12.3003 154.47 14.8277V22.8594H165.952V11.2331H170.303V33.7555C170.303 34.598 170.662 34.9911 171.29 34.9911H173.084V39.6529H168.823C166.805 39.6529 165.952 38.5857 165.952 36.0583V27.4088H154.47V39.6529H150.12ZM174.569 38.6419C174.569 36.2268 175.331 35.1035 177.305 35.1035H177.664C181.297 29.8239 181.432 21.3429 181.432 17.1867V15.8949H178.65V11.2331H193.676C195.694 11.2331 196.546 12.3003 196.546 14.8277V35.1035H197.264C199.237 35.1035 200 36.2268 200 38.6419V46.3928H196.008V40.8886C196.008 40.1022 195.649 39.6529 195.066 39.6529H179.503C178.92 39.6529 178.561 40.1022 178.561 40.8886V46.3928H174.569V38.6419ZM182.059 35.1035H192.196V17.1305C192.196 16.288 191.837 15.8949 191.209 15.8949H185.558V17.1305C185.558 21.0621 185.468 29.7116 182.059 35.1035Z" fill="white"/>
<path d="M20.7021 60.4429C20.7021 57.2916 22.7886 55.0054 25.3925 55.0054C27.9964 55.0054 30.1002 57.2916 30.1002 60.4429C30.1002 63.6148 27.9964 65.9217 25.3925 65.9217C22.7886 65.9217 20.7021 63.6148 20.7021 60.4429ZM22.392 60.4429C22.392 62.6262 23.7543 64.1916 25.3925 64.1916C27.0479 64.1916 28.393 62.6262 28.393 60.4429C28.393 58.2803 27.0479 56.7355 25.3925 56.7355C23.7543 56.7355 22.392 58.2803 22.392 60.4429ZM31.9338 60.4635C31.9338 57.3946 33.8134 55.0054 36.6241 55.0054C37.676 55.0054 39.7626 55.5203 39.7626 57.2916V58.3627H38.2451V57.7859C38.2451 57.0444 37.2449 56.7149 36.6241 56.7149C34.917 56.7149 33.6237 58.2391 33.6237 60.4429C33.6237 62.8116 35.0722 64.1503 36.7104 64.1503C38.3485 64.1503 39.4177 62.7086 39.4177 62.7086L40.1247 64.1298C40.1247 64.1298 38.9004 65.9217 36.5897 65.9217C33.8479 65.9217 31.9338 63.5942 31.9338 60.4635ZM42.6642 65.6745V57.4152C42.6642 57.1062 42.5263 56.9621 42.2849 56.9621H41.5779V55.2525H43.2334C44.0093 55.2525 44.3369 55.6439 44.3369 56.5707V59.5161H48.7514V55.2525H50.4241V63.5119C50.4241 63.8208 50.5621 63.9649 50.8035 63.9649H51.4932V65.6745H49.8551C49.0791 65.6745 48.7514 65.2832 48.7514 64.3563V61.1844H44.3369V65.6745H42.6642ZM53.1509 60.4429C53.1509 57.2916 55.2374 55.0054 57.8413 55.0054C60.4453 55.0054 62.549 57.2916 62.549 60.4429C62.549 63.6148 60.4453 65.9217 57.8413 65.9217C55.2374 65.9217 53.1509 63.6148 53.1509 60.4429ZM54.8408 60.4429C54.8408 62.6262 56.203 64.1916 57.8413 64.1916C59.4969 64.1916 60.8419 62.6262 60.8419 60.4429C60.8419 58.2803 59.4969 56.7355 57.8413 56.7355C56.203 56.7355 54.8408 58.2803 54.8408 60.4429ZM65.2442 64.5417V56.9621H64.1581V55.2525H68.8481C70.6074 55.2525 71.7456 56.1794 71.7456 57.9301C71.7456 59.1041 71.2283 59.8456 70.5212 60.1957V60.237C71.6074 60.5253 72.1768 61.5757 72.1768 62.7086C72.1768 64.6446 70.8657 65.6745 68.9688 65.6745H66.2102C65.5201 65.6745 65.2442 65.3243 65.2442 64.5417ZM66.9173 59.6396H68.5552C69.5382 59.6396 70.0555 59.0423 70.0555 58.1155C70.0555 57.168 69.5207 56.6532 68.5037 56.6532H66.9173V59.6396ZM66.9173 63.8414C66.9173 64.1091 67.038 64.2533 67.2447 64.2533H68.6929C69.9003 64.2533 70.4691 63.6148 70.4691 62.6056C70.4691 61.5757 69.8312 60.9785 68.6929 60.9785H66.9173V63.8414ZM73.928 62.8322C73.928 59.3307 77.7388 59.1866 79.2045 59.1866H79.5841V59.0424C79.5841 57.2504 78.9977 56.5914 77.6527 56.5914C77.2385 56.5914 76.2215 56.7149 76.2215 57.3946V57.9919H74.6351V56.9415C74.6351 55.2732 76.8249 55.0054 77.6181 55.0054C80.498 55.0054 81.2566 56.7561 81.2566 59.0835V63.5119C81.2566 63.8208 81.3943 63.9649 81.6363 63.9649H82.3428V65.6745H80.7564C79.9807 65.6745 79.6872 65.2214 79.6872 64.4799C79.6872 64.1091 79.7048 63.862 79.7048 63.862H79.6702C79.6872 63.862 78.9286 65.9217 76.8595 65.9217C75.3416 65.9217 73.928 64.83 73.928 62.8322ZM75.6006 62.6468C75.6006 63.4912 76.1524 64.3357 77.2385 64.3357C78.6872 64.3357 79.5841 62.5644 79.5841 61.0196V60.6283H79.1354C77.877 60.6283 75.6006 60.7725 75.6006 62.6468ZM84.7275 65.6745V57.4152C84.7275 57.1062 84.5898 56.9621 84.3484 56.9621H83.6414V55.2525H85.2969C86.0725 55.2525 86.4006 55.6439 86.4006 56.5707V59.5161H90.8147V55.2525H92.4878V63.5119C92.4878 63.8208 92.6255 63.9649 92.8669 63.9649H93.5569V65.6745H91.9184C91.1428 65.6745 90.8147 65.2832 90.8147 64.3563V61.1844H86.4006V65.6745H84.7275ZM101.397 64.5417V56.9621H100.31V55.2525H105.001C106.76 55.2525 107.898 56.1794 107.898 57.9301C107.898 59.1041 107.381 59.8456 106.674 60.1957V60.237C107.76 60.5253 108.329 61.5757 108.329 62.7086C108.329 64.6446 107.019 65.6745 105.122 65.6745H102.363C101.673 65.6745 101.397 65.3243 101.397 64.5417ZM103.07 59.6396H104.708C105.691 59.6396 106.208 59.0423 106.208 58.1155C106.208 57.168 105.674 56.6532 104.656 56.6532H103.07V59.6396ZM103.07 63.8414C103.07 64.1091 103.19 64.2533 103.397 64.2533H104.846C106.053 64.2533 106.622 63.6148 106.622 62.6056C106.622 61.5757 105.984 60.9785 104.846 60.9785H103.07V63.8414ZM115.556 64.0062C115.556 58.651 121.747 59.0217 121.747 55.0878C121.747 53.749 120.92 52.7809 119.609 52.7809C118.522 52.7809 117.729 53.4401 117.729 54.1609V54.7994H116.143V53.5636C116.143 51.6687 118.264 50.886 119.678 50.886C121.903 50.886 123.506 52.575 123.506 55.0672C123.506 60.0722 117.333 60.1546 117.333 63.5119C117.333 63.8002 117.471 63.9032 117.764 63.9032H122.092C122.334 63.9032 122.471 63.7384 122.471 63.4501V62.5232H124.058V64.3563C124.058 65.2832 123.73 65.6745 122.954 65.6745H116.712C115.764 65.6745 115.556 65.1802 115.556 64.0062ZM130.599 65.9217C127.357 65.9217 126.305 62.585 126.305 58.3833C126.305 54.2021 127.357 50.886 130.599 50.886C133.858 50.886 134.91 54.2021 134.91 58.3833C134.91 62.585 133.858 65.9217 130.599 65.9217ZM130.599 64.0474C132.599 64.0474 133.168 61.5551 133.168 58.3833C133.168 55.232 132.599 52.7604 130.599 52.7604C128.616 52.7604 128.046 55.232 128.046 58.3833C128.046 61.5551 128.616 64.0474 130.599 64.0474ZM137.214 65.6745V63.9032H139.887V54.511C139.887 54.058 139.904 53.6254 139.904 53.6254H139.87C139.87 53.6254 139.732 53.9344 139.301 54.4493L138.146 55.7881L137.128 54.511L140.025 51.1332H141.611V63.9032H144.25V65.6745H137.214ZM150.472 65.9217C147.886 65.9217 145.92 63.2853 145.92 59.2277C145.92 55.4379 147.644 50.886 151.403 50.886C152.852 50.886 153.765 51.4833 153.765 51.4833L153.214 53.2341C153.214 53.2341 152.455 52.7604 151.49 52.7604C149.248 52.7604 148.092 55.2525 147.833 57.7448H147.868C148.351 56.8591 149.489 56.3236 150.558 56.3236C152.852 56.3236 154.386 58.4038 154.386 61.0608C154.386 63.9238 152.748 65.9217 150.472 65.9217ZM147.73 60.0928C147.73 61.9465 148.92 64.0474 150.472 64.0474C151.869 64.0474 152.696 62.7498 152.696 61.0608C152.696 59.3101 151.765 58.0537 150.196 58.0537C148.834 58.0537 147.73 59.0424 147.73 60.0928ZM162.487 65.6745V56.9621H161.402V55.2525H167.178C167.973 55.2525 168.3 55.5821 168.3 56.5296V58.1155H166.902V57.4152C166.902 57.1269 166.765 56.9621 166.525 56.9621H164.161V65.6745H162.487ZM169.859 60.4429C169.859 57.2916 171.946 55.0054 174.551 55.0054C177.155 55.0054 179.257 57.2916 179.257 60.4429C179.257 63.6148 177.155 65.9217 174.551 65.9217C171.946 65.9217 169.859 63.6148 169.859 60.4429ZM171.551 60.4429C171.551 62.6262 172.912 64.1916 174.551 64.1916C176.207 64.1916 177.55 62.6262 177.55 60.4429C177.55 58.2803 176.207 56.7355 174.551 56.7355C172.912 56.7355 171.551 58.2803 171.551 60.4429ZM180.356 65.3038C180.356 64.4181 180.65 64.0062 181.408 64.0062H181.549C182.943 62.0701 182.997 58.9599 182.997 57.4358V56.9621H181.926V55.2525H187.703C188.479 55.2525 188.806 55.6439 188.806 56.5707V64.0062H189.082C189.84 64.0062 190.135 64.4181 190.135 65.3038V68.1463H188.601V66.1274C188.601 65.8393 188.461 65.6745 188.238 65.6745H182.253C182.03 65.6745 181.893 65.8393 181.893 66.1274V68.1463H180.356V65.3038ZM183.237 64.0062H187.135V57.4152C187.135 57.1062 186.995 56.9621 186.754 56.9621H184.581V57.4152C184.581 58.857 184.548 62.0289 183.237 64.0062ZM192.966 70C191.673 70 190.914 68.9697 190.914 68.9697L191.605 67.5284C191.619 67.5899 192.154 68.2699 192.88 68.2699C193.551 68.2699 194.087 67.693 194.414 66.7665L194.809 65.6333L191.827 57.374C191.705 57.0444 191.568 56.9621 191.292 56.9621H191.069V55.2525H192.05C192.757 55.2525 193.034 55.4791 193.31 56.303L195.276 62.173C195.448 62.7086 195.585 63.4295 195.585 63.4295H195.621C195.621 63.4295 195.757 62.7086 195.916 62.173L197.74 56.303C197.985 55.4791 198.293 55.2525 199.001 55.2525H200V56.9621H199.777C199.501 56.9621 199.346 57.0444 199.224 57.374L195.793 67.5489C195.24 69.1554 194.191 70 192.966 70Z" fill="white"/>
<path d="M28.6675 3.30426H24.3626V9.13759H28.6675V3.30426Z" fill="#D9D9D9"/>
</g>
</svg>
