<svg width="60" height="71" viewBox="0 0 60 71" fill="none" xmlns="http://www.w3.org/2000/svg">
<path d="M28.3992 42.303C28.2077 41.9983 28.0109 41.634 27.9648 41.4938C27.7795 40.9369 27.7334 39.9277 27.7858 37.7995C27.8496 35.2588 27.8496 33.9157 27.7858 30.3502C27.7334 27.2118 27.791 25.5693 27.9763 24.9653C28.1846 24.2849 28.6589 23.728 29.9904 22.6016C30.9797 21.7568 31.3209 21.381 31.6214 20.7895C32.1197 19.8275 32.2296 18.9356 32.1888 16.2735C32.1595 14.2259 32.1249 14.0039 31.703 13.1057C31.4424 12.5603 31.4141 12.5247 30.1527 11.2581C28.6944 9.78519 28.5678 9.60408 28.417 8.72998C28.2087 7.48634 28.2024 5.50364 28.417 4.69967C28.5385 4.23697 28.6547 4.01295 29.1456 3.3681C29.6837 2.64683 29.7999 2.38826 29.7999 1.90148C29.8051 1.11636 29.2786 0.388808 28.5102 0.112444C28.1804 -0.00480169 27.6371 -0.034113 27.2896 0.0423058C26.2543 0.276797 25.6063 1.23884 25.7853 2.2595C25.8837 2.79967 26.0857 3.14512 26.6531 3.74914C26.9588 4.08308 27.1912 4.38248 27.2373 4.51752C27.3011 4.69339 27.3126 5.02209 27.2948 5.91923C27.277 6.56408 27.2655 7.59102 27.2655 8.20656C27.2655 9.22722 27.277 9.35703 27.3985 9.70249C27.6466 10.4185 27.8842 10.7231 29.1687 12.0191C29.8397 12.6943 30.4877 13.4093 30.6154 13.5967C31.1995 14.5064 31.3272 15.7145 31.1126 18.3357L31.0781 18.788L30.7023 18.4655C29.9444 17.8144 29.3194 17.1392 29.1634 16.8168C29.0305 16.5414 29.0012 16.3771 28.9373 15.5082C28.8735 14.6163 28.8504 14.4938 28.7122 14.2594C28.527 13.9306 28.2778 13.714 27.8674 13.5203C27.6015 13.3905 27.4686 13.3674 27.0572 13.3674C26.4615 13.3674 26.0617 13.5318 25.6105 13.96C24.8526 14.6812 24.7594 15.8484 25.4022 16.6995C25.6743 17.0628 26.0784 17.2449 26.941 17.3852C27.3859 17.4616 27.7732 17.5611 27.9533 17.649C29.0231 18.1766 30.3893 19.7489 30.2678 20.3059C30.204 20.6231 29.9088 20.9811 29.2723 21.5495C28.931 21.8489 28.3469 22.4058 27.9826 22.7753C26.7442 24.0368 26.5537 24.758 26.7096 27.55C26.7442 28.2534 26.7672 28.8459 26.7442 28.8637C26.6919 28.9171 25.7256 28.1194 25.2053 27.5908C24.6212 26.9983 24.1983 26.3827 24.013 25.8373C23.834 25.3034 23.7356 24.3655 23.7879 23.661C23.811 23.3553 23.8455 20.3467 23.8685 16.9738L23.9031 10.8446L24.0308 10.5222C24.1062 10.3463 24.3375 9.88254 24.5574 9.49626C25.0839 8.54573 25.2169 8.21703 25.2514 7.75956C25.2744 7.42562 25.2577 7.31989 25.13 7.03829C24.951 6.63945 24.5218 6.19978 24.1344 6.00612C23.8916 5.88259 23.7639 5.85956 23.2959 5.85956C22.7924 5.85956 22.7107 5.87736 22.358 6.05322C21.6398 6.41124 21.2127 7.07912 21.2127 7.84226C21.2127 8.31752 21.375 8.66403 21.9015 9.32039C22.6594 10.2762 22.7578 10.7106 22.6825 12.8985C22.6532 13.7024 22.6364 15.6851 22.6479 17.2973C22.6594 18.9104 22.6364 21.046 22.6019 22.0488C22.5035 25.0585 22.6657 26.1786 23.3598 27.2223C23.4582 27.3751 24.1355 28.0964 24.8526 28.8239C26.1946 30.1785 26.4144 30.4601 26.6636 31.1469C26.808 31.5457 26.8028 31.2463 26.785 37.2593L26.7672 41.0311L26.3213 40.7788C25.0598 40.0931 24.4694 39.5707 24.3082 39.0191C24.2046 38.6495 24.1983 37.9283 24.2904 35.9686C24.4349 32.8427 24.1805 32.1508 22.2313 30.3492C21.3928 29.5745 20.8547 28.9757 20.6631 28.5947C20.5878 28.4419 20.5647 28.2252 20.5585 27.5981C20.5469 26.8528 20.5354 26.7763 20.3847 26.4717C19.9743 25.6154 18.962 25.0993 18.4459 25.4751C18.3475 25.54 18.2083 25.5987 18.134 25.5987C18.0534 25.5987 17.8566 25.6395 17.6891 25.6918C16.5606 26.0258 16.1785 27.8033 17.0181 28.7538C17.3415 29.1181 17.6891 29.2699 18.5161 29.4227C18.8636 29.4876 19.2855 29.5871 19.4415 29.652C20.0664 29.8928 21.9005 31.6054 22.4731 32.4795C22.9191 33.1599 23.1211 33.9629 23.1211 35.0599C23.1211 35.688 23.006 37.9408 22.9588 38.2224L22.918 38.4391L22.3967 38.1167C21.2567 37.3954 20.7772 37.2248 20.2214 37.3295C19.4928 37.4708 19.0699 38.0455 19.0699 38.8788C19.0699 39.7989 19.7985 40.5558 22.2229 42.1397C23.5534 43.0064 23.7272 43.1415 23.9408 43.4828C24.1721 43.8523 24.1669 44.1862 23.9293 44.3914C23.5702 44.696 23.1944 44.6552 22.4302 44.2448C21.7937 43.8983 21.1342 43.4524 19.9366 42.5553C19.3462 42.1093 18.5946 41.5524 18.2586 41.3053C16.7605 40.2093 16.5522 39.6985 16.5522 37.095C16.5522 36.2743 16.5753 34.9542 16.6046 34.1628C16.6621 32.5674 16.6161 32.0566 16.3847 31.5928C16.3094 31.44 16.1827 31.2589 16.1073 31.194C15.9513 31.0474 15.5808 30.8538 15.3546 30.7951L15.1924 30.7595V27.6567C15.1924 25.2113 15.2102 24.5068 15.274 24.2964C15.4122 23.8274 16.055 22.9763 16.9343 22.097C17.9466 21.0826 18.4093 20.8125 19.5315 20.578C20.3941 20.3959 20.6767 20.2671 20.9782 19.9269C21.4357 19.3993 21.5739 18.5723 21.3195 17.8856C21.1635 17.4627 20.7354 16.9884 20.2727 16.7351C19.9314 16.5477 19.8738 16.5362 19.3588 16.5362C18.8731 16.5362 18.7736 16.554 18.5025 16.7006C18.335 16.7885 18.0973 16.9644 17.9707 17.0931C17.5656 17.5045 17.5425 17.5925 17.508 18.7356C17.4787 19.7385 17.4734 19.7678 17.3049 20.085C17.0966 20.466 16.3272 21.2637 15.6792 21.7683L15.2102 22.1326L15.1756 21.4228C15.0542 19.1355 15.2049 18.1672 15.8121 17.3056C15.9283 17.1413 16.368 16.6367 16.7899 16.1855C17.6577 15.2591 17.889 14.9649 18.1089 14.5315C18.4501 13.8396 18.4501 13.8689 18.4334 10.0563L18.4219 6.56617L18.7338 6.45521C19.1965 6.28457 19.7231 5.73394 19.8508 5.27647C19.9953 4.7897 19.9429 4.25058 19.7231 3.76275C19.4854 3.25294 19.1902 2.94203 18.7338 2.71278C18.4093 2.54843 18.2942 2.52539 17.9299 2.52539C17.5656 2.53063 17.4504 2.56099 17.0735 2.74837C16.3554 3.10639 15.9398 3.78055 15.9335 4.59603C15.9283 5.30578 16.1126 5.69835 16.7616 6.33168C17.3227 6.88336 17.3572 7.00061 17.374 8.35521C17.3855 8.98331 17.4148 9.97362 17.4431 10.5546C17.4776 11.1649 17.4776 11.8569 17.4494 12.1971C17.3394 13.5056 17.1887 13.8218 16.0958 14.9827C14.6899 16.4724 14.2848 17.2292 14.1225 18.6435L14.0817 18.99L13.5897 18.4969C12.5889 17.4878 12.0037 16.6262 11.808 15.8338C11.6049 15.0183 11.5766 13.7632 11.7263 12.3436C11.808 11.6171 11.9116 11.3931 12.4267 10.831C13.0516 10.1558 13.1385 9.95163 13.1385 9.11835C13.1385 8.52585 13.1207 8.4086 12.9993 8.16259C12.814 7.78155 12.3973 7.37119 12.0215 7.19427C10.714 6.59025 9.13436 7.8454 9.24428 9.40518C9.27882 9.88568 9.40654 10.139 9.89227 10.7252C10.1006 10.9712 10.2974 11.2246 10.3319 11.2832C10.4827 11.5763 10.5172 12.0453 10.5287 13.9579C10.5403 15.8055 10.5518 15.9866 10.668 16.4095C10.9056 17.2889 11.1192 17.5946 12.3576 18.8905C14.1916 20.8031 14.1162 20.5854 14.1456 24.0462C14.1571 25.495 14.1686 27.395 14.1749 28.2691C14.1749 30.0351 14.1403 30.2749 13.776 31.1437C13.6661 31.4023 13.5269 31.7593 13.4693 31.9351L13.3594 32.2576L12.7805 31.6713C12.277 31.1605 12.167 31.0087 11.9294 30.5271C11.3568 29.3358 11.2584 28.4094 11.4028 25.6939C11.5075 23.7991 11.495 22.7439 11.3683 22.052C11.2699 21.5066 11.0208 21.0784 10.4314 20.4451C10.1362 20.1279 9.56356 19.5071 9.15216 19.0664C8.68946 18.5681 8.24979 18.1515 8.00692 17.9871C7.79232 17.8406 7.61331 17.717 7.61331 17.7055C7.61331 17.6992 7.6824 17.4354 7.76406 17.113C8.02472 16.1217 7.88549 15.4821 7.27832 14.9189C6.35816 14.0563 4.84234 14.2091 4.17132 15.236C3.86983 15.6935 3.75992 16.2274 3.84157 16.7791C3.99231 17.7589 4.32207 18.0342 5.61805 18.2687C5.99386 18.3389 6.43981 18.4446 6.6073 18.5084C7.08675 18.6906 7.70648 19.1711 8.48218 19.9635C9.30395 20.7958 9.86505 21.5233 10.1257 22.0802L10.3047 22.4613V23.6055C10.3047 24.2336 10.2932 25.8049 10.2754 27.0956C10.2293 30.6507 10.2754 30.8087 11.8143 32.4983C12.6004 33.3662 12.9134 33.8006 13.1217 34.3345C13.2495 34.6506 13.2547 34.7218 13.2495 36.3224C13.2442 37.2384 13.2264 38.0005 13.2034 38.0183C13.1804 38.0413 13.0422 37.9366 12.8914 37.789C12.7407 37.6414 12.1283 37.0971 11.5201 36.5695C9.22858 34.5805 8.33249 33.5012 7.98494 32.3162C7.85199 31.8702 7.84047 30.3628 7.95563 28.7381C8.07078 27.0904 7.95563 26.3618 7.48141 25.6353C7.37149 25.4709 6.85645 24.9025 6.32989 24.3686C5.11557 23.1365 5.07474 23.0601 5.01716 21.9232C4.97634 21.1779 4.95959 21.0784 4.80884 20.7968C4.61727 20.4451 4.31055 20.1583 3.91799 19.9583C3.69187 19.8463 3.55892 19.8233 3.04388 19.8233C2.50581 19.8233 2.39589 19.8411 2.1122 19.9761C1.36581 20.3341 0.960684 20.9497 0.960684 21.7358C0.960684 22.3577 1.0884 22.7387 1.40559 23.0852C1.71231 23.4129 1.94994 23.5196 2.95595 23.7541C3.33804 23.8421 3.8468 24.0064 4.08444 24.1174C4.46025 24.2995 4.62251 24.4283 5.31132 25.138C5.99909 25.8415 6.13309 26.0059 6.33513 26.434C6.68268 27.1553 6.7748 27.6955 6.7748 29.003C6.7748 29.6017 6.75177 30.4758 6.72246 30.9563L6.67639 31.8179L6.25975 31.4546C4.94598 30.2811 4.26344 29.4834 4.06664 28.8857C4.02058 28.7392 3.96196 28.2932 3.93893 27.8881C3.87507 26.7742 3.65523 26.3922 2.84603 26.0048C2.5571 25.8645 2.41788 25.8352 2.07661 25.8352C1.48096 25.8352 1.07584 25.9996 0.670711 26.4162C-0.180365 27.2841 -0.226425 28.4638 0.560793 29.3254C0.861235 29.653 1.19099 29.7881 2.05358 29.9357C2.44719 30.0058 2.88686 30.1116 3.02609 30.1754C3.5003 30.3869 4.82559 31.6179 7.52747 34.3575C8.41833 35.2609 9.74885 36.5339 10.4837 37.1913C11.9765 38.5176 12.7344 39.308 12.994 39.8073C13.2955 40.3758 13.3468 40.7809 13.329 42.482C13.3112 44.0826 13.3405 44.3244 13.6305 44.8991C13.9896 45.6152 15.1756 46.6348 17.7959 48.4772C19.2415 49.4979 21.1981 50.9582 21.7361 51.4219C22.1706 51.7925 22.4595 52.2311 22.5747 52.7012C22.6553 53.0131 22.6668 53.2518 22.6385 53.9867C22.6207 54.4797 22.5925 54.8953 22.5747 54.9131C22.5338 54.954 21.8806 54.6493 21.2672 54.2976C20.5668 53.905 19.8445 53.3764 18.4606 52.2625C16.5512 50.7258 15.8404 50.2097 14.9432 49.7104L14.4858 49.4581L14.5381 49.188C14.5611 49.0414 14.5842 48.6949 14.5842 48.4207C14.5779 47.9988 14.5549 47.8753 14.4282 47.6282C14.2492 47.2765 13.8441 46.8776 13.5321 46.7489C12.479 46.2966 11.1485 46.7709 10.6858 47.7695C10.3382 48.5201 10.6167 49.6643 11.2532 50.1333C11.5484 50.35 11.9817 50.462 12.792 50.5321C13.7059 50.6138 13.9896 50.6797 14.4408 50.9257C15.274 51.3832 16.8474 52.4792 19.341 54.3457C20.012 54.8503 20.8568 55.4481 21.2096 55.671C21.9612 56.1411 22.3318 56.4802 22.4878 56.8383C22.6793 57.2727 22.7306 57.9238 22.6615 58.956C22.627 59.4595 22.5977 59.9233 22.5977 59.9882C22.5977 60.0876 22.5862 60.0876 22.3841 60.0049C21.9329 59.8123 21.2096 59.336 20.2256 58.5917C19.3002 57.8882 17.107 56.2625 13.8608 53.8757C13.1783 53.3722 12.1367 52.6321 11.5463 52.2332C8.93651 50.463 8.58373 49.6402 8.7753 45.8455C8.82136 44.9536 8.85695 43.8041 8.85695 43.288C8.85067 41.3577 8.72924 41.1473 6.15507 38.6726C5.06741 37.6163 4.62146 37.1002 4.41942 36.6427C4.36185 36.5077 4.25716 36.1267 4.19959 35.7917C4.13573 35.464 4.0143 35.0474 3.92741 34.8715C3.38934 33.7859 1.68823 33.6048 0.774347 34.5313C0.357708 34.9479 0.236275 35.2703 0.236275 35.9267C0.236275 36.4135 0.259305 36.5307 0.398534 36.8364C0.595339 37.2646 0.948122 37.6446 1.33545 37.8518C1.58983 37.9869 1.68823 38.0047 2.17501 38.0047C2.47545 38.0047 2.9214 37.9932 3.15799 37.9816C3.49297 37.9628 3.63744 37.9816 3.79446 38.0633C3.90438 38.123 4.32102 38.5155 4.71986 38.9374C5.11871 39.353 5.85986 40.1392 6.36863 40.6741C7.37463 41.7293 7.60703 42.0748 7.75149 42.7385C7.88444 43.3299 7.90747 44.0753 7.82686 45.3367L7.75777 46.5092L7.02918 45.8298C6.11529 44.9734 5.76251 44.5746 5.52488 44.1224C5.34587 43.7821 5.33435 43.7172 5.29353 42.8965C5.23595 41.8403 5.14278 41.5765 4.68636 41.1546C4.28124 40.7735 3.92846 40.6553 3.33804 40.6908C2.97898 40.7149 2.82928 40.7568 2.52779 40.9138C1.56157 41.4362 1.11038 42.5333 1.47468 43.5016C1.74057 44.2176 2.18024 44.517 3.50554 44.897C3.96824 45.0321 4.46548 45.2142 4.61623 45.3022C5.21187 45.6487 6.97684 47.3843 7.38196 48.0187C7.68868 48.5002 7.7986 48.8227 8.01215 49.8308C8.35342 51.467 8.68318 51.8595 10.9684 53.4203C11.5588 53.8202 12.6925 54.6347 13.485 55.2272C16.1754 57.234 18.6396 59.0167 19.2761 59.4218C21.6189 60.9115 22.3025 61.504 22.5506 62.2787C22.5914 62.4137 22.6082 63.6751 22.5966 66.3257L22.5851 70.1864H28.9488L28.9719 57.7333C28.9834 50.8881 28.9771 44.852 28.9541 44.3192C28.908 43.1823 28.8787 43.0651 28.3992 42.303ZM27.2885 2.55785C26.8897 2.159 26.9295 1.5487 27.3639 1.25559C27.6131 1.09123 28.0402 1.12054 28.2495 1.32049C28.573 1.62616 28.6547 2.06583 28.4463 2.41129C28.3082 2.65101 28.059 2.78082 27.7471 2.78082C27.5429 2.78082 27.4676 2.74523 27.2885 2.55785ZM27.5136 16.0013C27.1493 16.3122 26.6625 16.2473 26.3453 15.8432C25.7958 15.1628 26.5359 14.2248 27.3231 14.6059C27.8381 14.8519 27.9418 15.638 27.5136 16.0013ZM23.2551 8.64623C22.6825 8.64623 22.2135 7.94276 22.4459 7.43818C22.6657 6.98072 23.319 6.84568 23.7534 7.1681C24.3951 7.64336 24.0601 8.64623 23.2551 8.64623ZM18.6323 28.2785C18.0366 28.355 17.5792 27.528 17.9152 26.9763C18.135 26.613 18.6438 26.4895 18.9976 26.7125C19.2353 26.859 19.3734 27.1291 19.3734 27.4631C19.3734 27.8734 19.0615 28.2199 18.6323 28.2785ZM18.7778 18.1075C18.9809 17.6616 19.542 17.515 19.9471 17.8018C20.1261 17.9306 20.2884 18.3001 20.2884 18.5765C20.2884 19.0455 19.8948 19.4391 19.4143 19.4391C19.1829 19.4391 19.1138 19.4098 18.9631 19.2632C18.6679 18.9575 18.5988 18.5179 18.7778 18.1075ZM17.1343 4.71014C17.0243 4.04749 17.776 3.48953 18.3266 3.81823C18.581 3.97107 18.7485 4.36363 18.7139 4.72793C18.6909 4.96242 18.6448 5.06187 18.4763 5.22623C18.3088 5.39686 18.2219 5.44397 17.978 5.46595C17.5279 5.50782 17.2211 5.23251 17.1343 4.71014ZM10.4063 8.99169C10.4523 8.5227 10.7706 8.27565 11.2793 8.31124C11.4992 8.32904 11.5976 8.37615 11.7598 8.53422C12.2686 9.03251 12.1011 9.74227 11.4301 9.94221C10.892 10.1066 10.3476 9.60827 10.4063 8.99169ZM5.51755 17.1811C5.11243 16.9874 4.90934 16.3719 5.10614 15.9489C5.30818 15.5093 5.87557 15.3617 6.22835 15.6621C6.47645 15.8736 6.58741 16.1248 6.58741 16.4598C6.58741 17.0628 6.03783 17.4323 5.51755 17.1811ZM3.70653 22.2006C3.61441 22.3943 3.23755 22.5995 2.9884 22.6058C2.80311 22.6058 2.50267 22.4184 2.38124 22.231C2.23677 22.0132 2.20746 21.6678 2.31215 21.4155C2.47964 21.0167 3.00096 20.8471 3.39981 21.0512C3.7641 21.2449 3.9138 21.8028 3.70653 22.2006ZM2.44509 28.5601C2.27132 28.6774 1.85573 28.6952 1.67567 28.5947C1.47363 28.489 1.24752 28.1435 1.2182 27.9027C1.17738 27.5803 1.33964 27.2987 1.65788 27.1344C1.9468 26.9878 2.1614 26.9993 2.4095 27.1762C2.58328 27.2998 2.81463 27.7331 2.81463 27.9446C2.81567 28.132 2.62934 28.4366 2.44509 28.5601ZM13.4086 48.8247C13.2474 49.3701 12.4999 49.5586 12.0959 49.1482C11.9106 48.9598 11.8184 48.5798 11.899 48.3327C12.0676 47.824 12.7271 47.5947 13.1081 47.9171C13.2003 47.9998 13.3227 48.1872 13.3803 48.3327C13.4599 48.5494 13.4662 48.6321 13.4086 48.8247ZM2.90256 36.2732C2.6241 36.8186 1.84945 36.8772 1.54272 36.3789C1.37418 36.1089 1.40978 35.6346 1.60658 35.4169C1.89551 35.1008 2.30691 35.0181 2.63038 35.218C2.95385 35.4169 3.08052 35.9204 2.90256 36.2732ZM4.05931 43.2535C3.60184 43.734 2.90779 43.5707 2.66493 42.9248C2.58432 42.7081 2.57804 42.6264 2.63038 42.438C2.78113 41.945 3.34851 41.7461 3.83948 42.0099C4.0478 42.1271 4.2268 42.4788 4.2268 42.796C4.2268 43.0242 4.19749 43.1059 4.05931 43.2535ZM58.8317 26.9344C58.4842 26.7585 58.3973 26.7407 57.9231 26.7407C57.4719 26.7407 57.362 26.7638 57.0783 26.9051C56.6899 27.0925 56.2565 27.5437 56.089 27.931C55.9268 28.2942 55.9268 28.9046 56.0943 29.6436C56.1874 30.0487 56.2042 30.2068 56.1529 30.2246C56.1183 30.2361 55.864 30.3942 55.5855 30.5826C55.0705 30.9344 54.3073 31.6619 53.4165 32.6533C53.1328 32.9642 52.8784 33.2049 52.8606 33.1809C52.7915 33.1044 52.6701 29.8143 52.7161 29.316C52.8083 28.2838 52.982 27.6798 53.3589 27.0747C53.474 26.8936 54.0184 26.2833 54.5617 25.7138C55.2097 25.0386 55.6494 24.5288 55.8169 24.2535L56.0712 23.8368L56.4188 23.8777C56.6104 23.907 57.004 23.9248 57.2866 23.9195C57.9053 23.9133 58.212 23.7897 58.6234 23.3856C58.994 23.0287 59.1908 22.5702 59.2128 22.0195C59.2421 21.4919 59.1782 21.2156 58.9239 20.7874C58.548 20.1593 57.7378 19.7374 57.0259 19.8076C56.3204 19.8725 55.7069 20.3006 55.3939 20.9518C55.2149 21.3161 55.2024 21.3862 55.1741 22.1598C55.128 23.3092 55.0757 23.4034 53.4384 25.0983C51.6567 26.9459 51.6274 27.0579 51.6567 31.2809L51.6745 34.0728L51.5186 34.3962C51.304 34.8359 50.992 35.1824 50.2341 35.8451C49.8813 36.1507 48.9789 37.0175 48.2273 37.7807L46.8622 39.1593L46.8099 38.168C46.7282 36.6427 46.746 34.7197 46.8382 34.3376C46.9889 33.7273 47.1857 33.4049 47.7981 32.7538C48.5445 31.9686 48.8104 31.6043 49.0941 30.9877C49.6029 29.8854 49.6437 29.4343 49.5966 25.6269C49.5557 22.4477 49.5683 22.1786 49.7934 21.7264C50.1294 21.0575 51.5353 19.4977 52.3738 18.8759C52.9757 18.4237 53.294 18.2886 54.1733 18.1127C55.0003 17.9547 55.3992 17.7662 55.6431 17.4271C56.0419 16.8639 56.1288 16.0191 55.8451 15.4329C55.6305 14.9869 55.2264 14.5881 54.769 14.3714C54.4455 14.2133 54.3293 14.1892 53.9011 14.1892C53.4615 14.1892 53.3683 14.207 53.0218 14.3829C52.5706 14.6059 52.2231 14.9754 52.1079 15.3449C52.0671 15.4852 52.0158 15.9667 51.998 16.4179C51.9394 17.6731 51.8295 17.8605 50.233 19.4684C48.8502 20.8586 48.5152 21.3506 48.3414 22.2781C48.266 22.6769 48.2723 24.1195 48.3592 25.874C48.4691 28.1561 48.3299 29.3348 47.8327 30.3785C47.595 30.8831 47.2077 31.4044 46.8842 31.6577L46.6822 31.8106L46.2655 31.2421C45.5422 30.2623 45.606 30.702 45.583 26.5377C45.5715 24.555 45.56 22.6256 45.56 22.2561C45.5485 21.0177 45.7568 20.6199 47.1627 19.147C48.2734 17.9913 48.5571 17.6396 48.8062 17.0942C49.1883 16.2672 49.2228 15.8924 49.1642 13.223C49.1412 12.1374 49.2051 11.6046 49.3903 11.235C49.4479 11.1178 49.6971 10.8006 49.9399 10.5316C50.5125 9.90348 50.635 9.64596 50.635 9.02937C50.635 8.64204 50.6057 8.50177 50.479 8.2254C50.277 7.78573 49.8771 7.39212 49.4029 7.16391C49.0554 6.99328 48.9632 6.97653 48.4943 6.97653C47.818 6.97653 47.4882 7.11681 47.0538 7.59835C46.5095 8.19086 46.3598 8.8713 46.6424 9.44601C46.7241 9.61036 46.9952 9.99141 47.2506 10.2971C47.505 10.6017 47.8002 11.0184 47.8986 11.2235C48.0671 11.5638 48.0839 11.6517 48.1069 12.2787C48.1362 13.1413 48.0316 14.8184 47.9101 15.3941C47.685 16.4619 47.2161 17.3119 46.4351 18.0562C45.8793 18.5901 45.7463 18.6718 45.7463 18.5084C45.7463 18.2446 45.4344 17.3119 45.1569 16.7424C44.8785 16.1855 44.7811 16.0557 44.0976 15.3344C43.2067 14.3965 42.9753 14.1201 42.7723 13.7098C42.5231 13.2052 42.5001 12.8179 42.5179 9.79147L42.5357 6.97653L42.6917 6.65411C42.7785 6.47824 43.0392 6.09091 43.2643 5.80303C43.4956 5.50992 43.7333 5.15713 43.8023 5.01058C44.1666 4.20138 43.6579 3.04567 42.7429 2.61124C42.4655 2.48143 42.3441 2.4584 41.8699 2.4584C41.3611 2.4584 41.2858 2.47619 40.933 2.65206C40.2672 2.98077 39.8505 3.6141 39.7993 4.36468C39.7647 4.89229 39.9207 5.23879 40.4755 5.86061C41.0021 6.44788 41.2282 6.7703 41.3266 7.10424C41.4658 7.57323 41.4888 8.64728 41.3789 10.026C41.1643 12.7352 41.2742 13.8909 41.8249 14.7713C41.9285 14.9356 42.4551 15.5344 42.9994 16.0976C44.0641 17.2114 44.2315 17.4522 44.4221 18.1913C44.5613 18.7021 44.5896 19.7929 44.509 21.159L44.4629 21.9033L44.0515 21.5401C43.1031 20.6953 42.5472 20.0211 42.3567 19.4872C42.2991 19.3344 42.2468 18.9188 42.2237 18.408C42.1829 17.6574 42.1661 17.5569 42.0269 17.3109C41.8416 16.9884 41.6155 16.8063 41.1476 16.5833C40.4357 16.2546 39.6087 16.4127 38.989 17C38.1212 17.8207 38.0929 19.0706 38.9314 19.8913C39.2497 20.2085 39.4873 20.3017 40.2735 20.443C40.7309 20.5194 41.0314 20.6136 41.3203 20.7539C42.408 21.2993 43.9814 22.9774 44.3519 23.9855C44.5372 24.4838 44.6011 25.4573 44.5309 26.7544C44.4964 27.3647 44.4786 28.3319 44.4849 28.9129C44.4912 29.6112 44.4671 30.0571 44.421 30.233C44.3802 30.3795 44.1666 30.7899 43.952 31.1427C43.3616 32.0932 43.3449 32.1979 43.3564 34.1806L43.3679 35.8116L43.1533 35.6409C42.4823 35.0955 41.6029 34.1984 41.2962 33.7409C41.001 33.2897 40.9434 33.0552 40.9434 32.2335C40.9434 31.5646 40.9256 31.4651 40.7927 31.172C40.6137 30.7732 40.3122 30.4507 39.9312 30.2455C39.6705 30.1053 39.5836 30.0875 39.034 30.0875C38.4666 30.0875 38.4028 30.099 38.0385 30.2811C37.559 30.5209 37.1183 30.9846 36.9801 31.4138C36.9048 31.6368 36.888 31.8357 36.9048 32.1644C36.9571 32.8972 37.2691 33.4426 37.8186 33.7242C37.9694 33.8006 38.4143 33.9294 38.8079 34.011C39.6757 34.1932 39.9479 34.3282 40.6252 34.8799C42.1002 36.0816 43.0204 37.2321 43.3271 38.2287C43.4946 38.7929 43.46 39.4556 43.2287 39.9235C42.8811 40.6396 42.2855 41.163 40.6828 42.1418C40.1447 42.4747 39.4444 42.9457 39.1324 43.1907C37.6972 44.3108 37.1937 44.606 36.6797 44.606C36.0778 44.606 35.8757 44.359 36.0484 43.8136C36.1992 43.3205 36.598 42.9269 37.6742 42.2119C38.1829 41.8727 38.8487 41.432 39.1492 41.2268C40.174 40.5474 40.845 39.8837 41.1748 39.2274C41.2899 39.0044 41.3193 38.8568 41.3193 38.5239C41.3193 38.1533 41.3015 38.078 41.1455 37.855C40.8042 37.3556 40.151 37.0971 39.5428 37.2154C39.0853 37.3033 38.6519 37.5326 37.4711 38.3124C36.8807 38.6935 36.239 39.1101 36.0422 39.2274C35.6601 39.4629 35.1628 39.7016 35.1283 39.667C35.1168 39.6545 35.099 37.7838 35.099 35.5143C35.0875 30.9982 35.0812 31.1385 35.4287 30.6339C35.5104 30.5114 35.8401 30.1942 36.1636 29.9304C36.4818 29.6604 37.0314 29.1736 37.379 28.8396C38.8372 27.4317 39.2245 27.2087 40.5383 27.0098C41.6668 26.8391 42.2855 26.165 42.297 25.1035C42.3022 24.7047 42.2792 24.5874 42.141 24.3058C41.9442 23.8944 41.5108 23.4725 41.0712 23.2674C40.7875 23.1323 40.666 23.1093 40.1918 23.1093C39.7113 23.1093 39.6014 23.1271 39.324 23.2674C38.8958 23.4788 38.5431 23.8483 38.4331 24.1875C38.3871 24.3341 38.3232 24.78 38.2939 25.1726C38.2478 25.7766 38.207 25.9472 38.0626 26.2582C37.7558 26.9145 36.9812 27.7007 35.7365 28.6104L35.1293 29.0563L35.0885 28.1058C35.0309 26.8559 35.1063 25.9054 35.3199 25.2783C35.5051 24.7329 35.748 24.3456 36.2861 23.7238C37.3214 22.5335 37.5412 22.1054 37.6459 21.0847C37.6689 20.8439 37.6627 18.8382 37.6281 16.6273C37.5936 14.0877 37.5936 12.24 37.6281 11.6067C37.692 10.3986 37.738 10.2866 38.4844 9.3183C39.0916 8.52689 39.2769 8.15736 39.2832 7.70513C39.2884 6.60281 37.9694 5.55912 36.8357 5.77581C36.3782 5.86375 36.0778 6.03438 35.7417 6.39135C35.2445 6.92524 35.0875 7.47064 35.3261 7.85796C35.39 7.96893 35.4183 8.10397 35.4067 8.21598C35.3649 8.49967 35.4811 8.83361 35.8045 9.32667C36.3259 10.1359 36.3363 10.183 36.3604 11.3146C36.3719 11.86 36.3604 12.4002 36.3311 12.5059L36.285 12.6996L35.4633 11.8904C34.5902 11.0215 34.1265 10.4007 33.9705 9.85532C33.803 9.30992 33.7684 8.65879 33.8145 6.97548C33.8606 5.38534 33.8668 5.32044 34.0061 5.01058C34.0982 4.81691 34.3473 4.48297 34.6248 4.17835C35.1461 3.61515 35.3073 3.33983 35.3879 2.88236C35.4926 2.35999 35.278 1.67432 34.8844 1.22209C34.3578 0.624345 33.5308 0.371012 32.7781 0.577238C31.9857 0.794979 31.4016 1.48694 31.3032 2.32545C31.2456 2.85305 31.3555 3.19327 31.8349 3.90303C32.5981 5.04094 32.5761 4.92892 32.5813 7.47482C32.5876 9.80403 32.5991 9.8972 33.1372 10.9357C33.5245 11.6862 34.0511 12.3259 35.0864 13.3287C36.1919 14.3902 36.285 14.5493 36.3772 15.6276C36.418 16.0861 36.4232 16.7424 36.3939 17.358C36.3709 17.9034 36.3478 19.012 36.3478 19.8222C36.3363 21.4291 36.3248 21.4993 35.9657 22.1033C35.8611 22.2791 35.5261 22.7188 35.2194 23.0883C34.3463 24.1383 34.1202 24.5665 34.004 25.3757C33.9747 25.5871 33.9694 28.0744 33.9862 31.0778L34.0145 36.4156L33.8176 36.2753C33.7077 36.1989 33.3194 35.8294 32.9498 35.4598C32.1971 34.703 31.8444 34.1576 31.6015 33.4007C31.3817 32.7318 31.3293 32.3151 31.3178 31.1835C31.3063 29.9106 31.3293 29.8341 32.0694 29.0427C32.7467 28.3267 32.8106 28.1917 32.8106 27.4474C32.8106 26.9082 32.7991 26.8371 32.6368 26.5502C32.1856 25.7117 31.1733 25.2595 30.317 25.5055C29.3969 25.7693 28.7782 26.6026 28.7782 27.5646C28.7719 28.1979 28.9342 28.5444 29.5131 29.183C30.2019 29.9399 30.2019 29.9399 30.2134 31.9048C30.2186 33.9398 30.2825 34.2445 30.9022 35.1897C31.2498 35.7173 31.9082 36.3978 32.8985 37.2541C33.4659 37.7472 33.5926 37.8937 33.7601 38.2224C33.9391 38.5804 33.9569 38.6684 33.9862 39.2787C34.0385 40.4804 33.8124 40.8615 32.5625 41.7178C31.4466 42.4862 31.1859 42.862 31.1043 43.8062C31.0812 44.0993 31.0749 50.1532 31.0927 57.2622L31.122 70.1791H37.6543L37.6365 66.2315C37.625 61.8442 37.6082 62.0661 38.0238 61.4925C38.4122 60.9586 39.0885 60.4247 40.553 59.5087C41.4669 58.934 41.716 58.7582 45.4825 55.9966C46.8183 55.0115 48.2598 53.972 48.6932 53.68C49.8562 52.8927 50.7125 52.2301 51.0998 51.8082C51.574 51.2921 51.8284 50.7645 52.1351 49.6674C52.5926 48.0428 52.7256 47.802 53.8886 46.5112C55.1385 45.1273 55.5028 44.8866 56.5957 44.7452C56.9715 44.6981 57.4007 44.6165 57.5389 44.5631C57.8802 44.4406 58.1816 44.1475 58.3722 43.7706C58.8118 42.8913 58.6559 41.9648 57.944 41.2551C57.5106 40.8207 57.1055 40.6511 56.4983 40.6511C56.1225 40.6511 56.0126 40.6741 55.6766 40.8395C55.2317 41.0625 54.8778 41.431 54.7742 41.8005C54.7281 41.9418 54.6758 42.4464 54.658 42.9332C54.6172 43.7842 54.6119 43.8251 54.4204 44.1946C54.189 44.6343 53.4835 45.3796 52.7653 45.9365L52.2964 46.3008L52.2555 45.4675C52.1864 44.0711 52.2032 43.2033 52.3016 42.7636C52.4576 42.0947 52.6889 41.7377 53.5798 40.7987C54.0257 40.3234 54.6214 39.6723 54.9051 39.3425C55.8943 38.1994 56.0681 38.1052 57.5148 37.9534C58.8108 37.8121 59.1814 37.6299 59.4933 36.9913C59.6441 36.6867 59.6556 36.5988 59.6556 36.0115C59.6556 35.4609 59.6378 35.3195 59.5164 35.061C59.3656 34.7208 58.9553 34.2978 58.6025 34.1167C57.6771 33.6362 56.4272 34.0058 55.9927 34.8851C55.9236 35.0264 55.7907 35.4483 55.7038 35.8116C55.4201 36.961 55.2411 37.2133 53.4583 39.0023C51.1448 41.3252 51.127 41.3661 51.2139 44.1056C51.3008 46.8619 51.283 48.4929 51.1616 49.0205C50.8549 50.328 50.1891 51.0859 48.0546 52.5222C47.6557 52.7922 46.7063 53.4779 45.9431 54.0474C42.6801 56.4813 41.1235 57.614 38.9419 59.1497L37.6689 60.0426L37.6281 59.6731C37.6051 59.4669 37.5821 58.8639 37.5758 58.33C37.5643 56.6875 37.738 56.3766 39.2539 55.3497C39.7166 55.0325 40.7121 54.2997 41.4585 53.7187C43.5584 52.0825 44.7047 51.3016 45.6699 50.8315C46.0687 50.6389 46.1504 50.6211 47.0695 50.5562C47.9551 50.4861 48.0651 50.4683 48.3425 50.3165C49.2218 49.836 49.6091 48.7033 49.1988 47.8177C48.9967 47.3717 48.6544 47.0085 48.2147 46.7667C47.8672 46.5793 47.8222 46.5688 47.2716 46.5688C46.7565 46.5688 46.6644 46.5856 46.3985 46.7258C45.7327 47.0776 45.5129 47.4304 45.2993 48.45C45.1255 49.277 45.0387 49.4654 44.6042 49.8925C44.1645 50.3217 43.9102 50.5154 42.8686 51.2073C42.3944 51.5245 41.2544 52.3275 40.329 52.9901C39.4088 53.6527 38.4258 54.3635 38.1536 54.5562L37.6553 54.9142L37.6145 54.4682C37.5507 53.7114 37.5737 52.8551 37.6669 52.497C37.8228 51.8878 38.2112 51.4533 39.2863 50.685C39.6045 50.4568 40.8827 49.4884 42.1211 48.5327C43.3648 47.5759 44.6901 46.5793 45.0774 46.3155C46.5409 45.3126 46.7785 44.8489 46.7785 42.9719C46.7785 41.7345 46.8601 41.3053 47.1899 40.7903C47.415 40.4323 51.5238 36.2554 52.6858 35.2002C52.9873 34.9238 53.7504 34.144 54.3754 33.4698C55.8566 31.8692 56.736 31.1176 57.4248 30.86C57.5693 30.8014 57.9461 30.7072 58.2644 30.6433C59.2421 30.4434 59.5834 30.2445 59.8377 29.7221C59.9822 29.4165 60 29.3233 60 28.7957C60 28.2733 59.9822 28.1739 59.844 27.9153C59.6357 27.4987 59.2777 27.1574 58.8317 26.9344ZM56.5402 21.3098C56.8061 21.0051 57.3442 20.935 57.6624 21.1517C57.9691 21.3694 58.0906 21.5746 58.0906 21.897C58.0906 22.4069 57.7556 22.724 57.2175 22.724C56.9631 22.724 56.8825 22.6947 56.7203 22.5482C56.6104 22.454 56.4889 22.2959 56.4481 22.1964C56.3497 21.9546 56.402 21.4626 56.5402 21.3098ZM53.8959 15.3973C53.942 15.3973 54.0875 15.4444 54.2204 15.5082C54.8339 15.8076 54.8747 16.711 54.2895 16.9916C54.0236 17.1214 53.8038 17.1151 53.5546 16.9801C53.3296 16.8565 53.0919 16.4577 53.0919 16.1991C53.0919 15.7961 53.4573 15.4329 53.8959 15.3973ZM47.8452 8.52899C48.0881 8.16469 48.4995 8.03593 48.892 8.20028C49.1579 8.31124 49.3956 8.65251 49.4301 8.95714C49.4992 9.58524 48.7015 10.0479 48.1687 9.68469C47.729 9.38529 47.5908 8.90375 47.8452 8.52899ZM41.2837 5.06187C40.8618 4.59813 40.9487 4.02969 41.492 3.7303C41.671 3.62457 41.9945 3.6476 42.2038 3.77636C42.4697 3.94071 42.6205 4.22231 42.6205 4.55102C42.6205 5.25554 41.7642 5.58424 41.2837 5.06187ZM40.642 19.1805C40.1615 19.4328 39.6349 19.1104 39.5302 18.5001C39.4151 17.8605 40.2766 17.3559 40.7686 17.7725C41.2722 18.207 41.2146 18.8811 40.642 19.1805ZM38.9461 32.871C38.5588 32.871 38.1651 32.4491 38.1651 32.0325C38.1651 31.417 38.8414 31.0527 39.368 31.3876C39.5239 31.4871 39.7207 31.8922 39.727 32.1089C39.727 32.49 39.3397 32.871 38.9461 32.871ZM39.5302 24.6241C39.7616 24.2723 40.3174 24.1488 40.6524 24.378C40.9476 24.5832 41.0691 24.7832 41.0691 25.0815C41.0753 25.4039 40.9413 25.6269 40.6472 25.7798C40.3698 25.9211 40.1552 25.9211 39.9008 25.7798C39.4842 25.5568 39.2999 24.9821 39.5302 24.6241ZM32.6054 2.99752C32.4662 2.68661 32.4662 2.45212 32.5991 2.19355C32.7907 1.8303 33.2879 1.67746 33.6522 1.87112C33.8658 1.98209 34.0574 2.35162 34.0574 2.64578C34.0574 3.46126 32.9404 3.73658 32.6054 2.99752ZM37.2104 7.00375C37.3381 7.00375 37.5224 7.05609 37.626 7.12099C37.9966 7.35025 38.1296 7.9302 37.8867 8.2767C37.6208 8.65775 37.0419 8.75196 36.7352 8.45885C36.1584 7.91345 36.4525 7.00375 37.2104 7.00375ZM30.0019 27.6682C29.7821 26.9878 30.6269 26.3785 31.2288 26.7889C31.524 26.9878 31.6863 27.2694 31.6863 27.5751C31.6863 27.798 31.6517 27.8745 31.4947 28.0325C31.0373 28.4952 30.204 28.2901 30.0019 27.6682ZM55.8755 42.2496C56.0608 41.8916 56.7088 41.7869 57.027 42.0559C57.2646 42.2611 57.3745 42.4904 57.3745 42.795C57.3745 43.1185 57.2761 43.3058 57.0333 43.4702C56.6344 43.7403 56.1309 43.5927 55.8996 43.13C55.8001 42.9363 55.7823 42.4202 55.8755 42.2496ZM57.0437 35.5048C57.3044 35.106 57.8247 34.995 58.1775 35.2588C58.5418 35.5352 58.6286 36.1277 58.3512 36.4323C57.9116 36.9013 57.2751 36.8197 57.0259 36.2565C56.8762 35.933 56.8815 35.7446 57.0437 35.5048ZM46.6351 48.1276C46.8266 47.757 47.4977 47.6575 47.8033 47.9517C48.0232 48.1558 48.1163 48.3725 48.1163 48.6782C48.1163 49.4581 46.9994 49.6465 46.6351 48.9305C46.5314 48.7253 46.5314 48.338 46.6351 48.1276ZM58.6988 29.2573C58.1953 29.9032 57.2583 29.5211 57.2583 28.6763C57.2583 28.3487 57.362 28.1781 57.6342 28.0367C57.8833 27.9017 58.19 27.9195 58.4214 28.0786C58.8024 28.3372 58.9479 28.9412 58.6988 29.2573Z" fill="black"/>
</svg>
