<svg width="256" height="68" viewBox="0 0 256 68" fill="none" xmlns="http://www.w3.org/2000/svg">
<path d="M27.1278 40.4104C26.9448 40.1194 26.7568 39.7714 26.7128 39.6374C26.5358 39.1054 26.4918 38.1414 26.5418 36.1084C26.6028 33.6814 26.6028 32.3984 26.5418 28.9924C26.4918 25.9944 26.5468 24.4254 26.7238 23.8484C26.9228 23.1984 27.3758 22.6664 28.6478 21.5904C29.5928 20.7834 29.9188 20.4244 30.2058 19.8594C30.6818 18.9404 30.7868 18.0884 30.7478 15.5454C30.7198 13.5894 30.6868 13.3774 30.2838 12.5194C30.0348 11.9984 30.0078 11.9644 28.8028 10.7544C27.4098 9.34741 27.2888 9.17441 27.1448 8.33941C26.9458 7.15141 26.9398 5.25741 27.1448 4.48941C27.2608 4.04741 27.3718 3.83341 27.8408 3.21741C28.3548 2.52841 28.4658 2.28141 28.4658 1.81641C28.4708 1.06641 27.9678 0.371413 27.2338 0.107413C26.9188 -0.00458687 26.3998 -0.0325869 26.0678 0.0404131C25.0788 0.264413 24.4598 1.18341 24.6308 2.15841C24.7248 2.67441 24.9178 3.00441 25.4598 3.58141C25.7518 3.90041 25.9738 4.18641 26.0178 4.31541C26.0788 4.48341 26.0898 4.79741 26.0728 5.65441C26.0558 6.27041 26.0448 7.25141 26.0448 7.83941C26.0448 8.81441 26.0558 8.93841 26.1718 9.26841C26.4088 9.95241 26.6358 10.2434 27.8628 11.4814C28.5038 12.1264 29.1228 12.8094 29.2448 12.9884C29.8028 13.8574 29.9248 15.0114 29.7198 17.5154L29.6868 17.9474L29.3278 17.6394C28.6038 17.0174 28.0068 16.3724 27.8578 16.0644C27.7308 15.8014 27.7028 15.6444 27.6418 14.8144C27.5808 13.9624 27.5588 13.8454 27.4268 13.6214C27.2498 13.3074 27.0118 13.1004 26.6198 12.9154C26.3658 12.7914 26.2388 12.7694 25.8458 12.7694C25.2768 12.7694 24.8948 12.9264 24.4638 13.3354C23.7398 14.0244 23.6508 15.1394 24.2648 15.9524C24.5248 16.2994 24.9108 16.4734 25.7348 16.6074C26.1598 16.6804 26.5298 16.7754 26.7018 16.8594C27.7238 17.3634 29.0288 18.8654 28.9128 19.3974C28.8518 19.7004 28.5698 20.0424 27.9618 20.5854C27.6358 20.8714 27.0778 21.4034 26.7298 21.7564C25.5468 22.9614 25.3648 23.6504 25.5138 26.3174C25.5468 26.9894 25.5688 27.5554 25.5468 27.5724C25.4968 27.6234 24.5738 26.8614 24.0768 26.3564C23.5188 25.7904 23.1148 25.2024 22.9378 24.6814C22.7668 24.1714 22.6728 23.2754 22.7228 22.6024C22.7448 22.3104 22.7778 19.4364 22.7998 16.2144L22.8328 10.3594L22.9548 10.0514C23.0268 9.88341 23.2478 9.44041 23.4578 9.07141C23.9608 8.16341 24.0878 7.84941 24.1208 7.41241C24.1428 7.09341 24.1268 6.99241 24.0048 6.72341C23.8338 6.34241 23.4238 5.92241 23.0538 5.73741C22.8218 5.61941 22.6998 5.59741 22.2528 5.59741C21.7718 5.59741 21.6938 5.61441 21.3568 5.78241C20.6708 6.12441 20.2628 6.76241 20.2628 7.49141C20.2628 7.94541 20.4178 8.27641 20.9208 8.90341C21.6448 9.81641 21.7388 10.2314 21.6668 12.3214C21.6388 13.0894 21.6228 14.9834 21.6338 16.5234C21.6448 18.0644 21.6228 20.1044 21.5898 21.0624C21.4958 23.9374 21.6508 25.0074 22.3138 26.0044C22.4078 26.1504 23.0548 26.8394 23.7398 27.5344C25.0218 28.8284 25.2318 29.0974 25.4698 29.7534C25.6078 30.1344 25.6028 29.8484 25.5858 35.5924L25.5688 39.1954L25.1428 38.9544C23.9378 38.2994 23.3738 37.8004 23.2198 37.2734C23.1208 36.9204 23.1148 36.2314 23.2028 34.3594C23.3408 31.3734 23.0978 30.7124 21.2358 28.9914C20.4348 28.2514 19.9208 27.6794 19.7378 27.3154C19.6658 27.1694 19.6438 26.9624 19.6378 26.3634C19.6268 25.6514 19.6158 25.5784 19.4718 25.2874C19.0798 24.4694 18.1128 23.9764 17.6198 24.3354C17.5258 24.3974 17.3928 24.4534 17.3218 24.4534C17.2448 24.4534 17.0568 24.4924 16.8968 24.5424C15.8188 24.8614 15.4538 26.5594 16.2558 27.4674C16.5648 27.8154 16.8968 27.9604 17.6868 28.1064C18.0188 28.1684 18.4218 28.2634 18.5708 28.3254C19.1678 28.5554 20.9198 30.1914 21.4668 31.0264C21.8928 31.6764 22.0858 32.4434 22.0858 33.4914C22.0858 34.0914 21.9758 36.2434 21.9308 36.5124L21.8918 36.7194L21.3938 36.4114C20.3048 35.7224 19.8468 35.5594 19.3158 35.6594C18.6198 35.7944 18.2158 36.3434 18.2158 37.1394C18.2158 38.0184 18.9118 38.7414 21.2278 40.2544C22.4988 41.0824 22.6648 41.2114 22.8688 41.5374C23.0898 41.8904 23.0848 42.2094 22.8578 42.4054C22.5148 42.6964 22.1558 42.6574 21.4258 42.2654C20.8178 41.9344 20.1878 41.5084 19.0438 40.6514C18.4798 40.2254 17.7618 39.6934 17.4408 39.4574C16.0098 38.4104 15.8108 37.9224 15.8108 35.4354C15.8108 34.6514 15.8328 33.3904 15.8608 32.6344C15.9158 31.1104 15.8718 30.6224 15.6508 30.1794C15.5788 30.0334 15.4578 29.8604 15.3858 29.7984C15.2368 29.6584 14.8828 29.4734 14.6668 29.4174L14.5118 29.3834V26.4194C14.5118 24.0834 14.5288 23.4104 14.5898 23.2094C14.7218 22.7614 15.3358 21.9484 16.1758 21.1084C17.1428 20.1394 17.5848 19.8814 18.6568 19.6574C19.4808 19.4834 19.7508 19.3604 20.0388 19.0354C20.4758 18.5314 20.6078 17.7414 20.3648 17.0854C20.2158 16.6814 19.8068 16.2284 19.3648 15.9864C19.0388 15.8074 18.9838 15.7964 18.4918 15.7964C18.0278 15.7964 17.9328 15.8134 17.6738 15.9534C17.5138 16.0374 17.2868 16.2054 17.1658 16.3284C16.7788 16.7214 16.7568 16.8054 16.7238 17.8974C16.6958 18.8554 16.6908 18.8834 16.5298 19.1864C16.3308 19.5504 15.5958 20.3124 14.9768 20.7944L14.5288 21.1424L14.4958 20.4644C14.3798 18.2794 14.5238 17.3544 15.1038 16.5314C15.2148 16.3744 15.6348 15.8924 16.0378 15.4614C16.8668 14.5764 17.0878 14.2954 17.2978 13.8814C17.6238 13.2204 17.6238 13.2484 17.6078 9.60641L17.5968 6.27241L17.8948 6.16641C18.3368 6.00341 18.8398 5.47741 18.9618 5.04041C19.0998 4.57541 19.0498 4.06041 18.8398 3.59441C18.6128 3.10741 18.3308 2.81041 17.8948 2.59141C17.5848 2.43441 17.4748 2.41241 17.1268 2.41241C16.7788 2.41741 16.6688 2.44641 16.3088 2.62541C15.6228 2.96741 15.2258 3.61141 15.2198 4.39041C15.2148 5.06841 15.3908 5.44341 16.0108 6.04841C16.5468 6.57541 16.5798 6.68741 16.5958 7.98141C16.6068 8.58141 16.6348 9.52741 16.6618 10.0824C16.6948 10.6654 16.6948 11.3264 16.6678 11.6514C16.5628 12.9014 16.4188 13.2034 15.3748 14.3124C14.0318 15.7354 13.6448 16.4584 13.4898 17.8094L13.4508 18.1404L12.9808 17.6694C12.0248 16.7054 11.4658 15.8824 11.2788 15.1254C11.0848 14.3464 11.0578 13.1474 11.2008 11.7914C11.2788 11.0974 11.3778 10.8834 11.8698 10.3464C12.4668 9.70141 12.5498 9.50641 12.5498 8.71041C12.5498 8.14441 12.5328 8.03241 12.4168 7.79741C12.2398 7.43341 11.8418 7.04141 11.4828 6.87241C10.2338 6.29541 8.72479 7.49441 8.82979 8.98441C8.86279 9.44341 8.98479 9.68541 9.44879 10.2454C9.64779 10.4804 9.83579 10.7224 9.86879 10.7784C10.0128 11.0584 10.0458 11.5064 10.0568 13.3334C10.0678 15.0984 10.0788 15.2714 10.1898 15.6754C10.4168 16.5154 10.6208 16.8074 11.8038 18.0454C13.5558 19.8724 13.4838 19.6644 13.5118 22.9704C13.5228 24.3544 13.5338 26.1694 13.5398 27.0044C13.5398 28.6914 13.5068 28.9204 13.1588 29.7504C13.0538 29.9974 12.9208 30.3384 12.8658 30.5064L12.7608 30.8144L12.2078 30.2544C11.7268 29.7664 11.6218 29.6214 11.3948 29.1614C10.8478 28.0234 10.7538 27.1384 10.8918 24.5444C10.9918 22.7344 10.9798 21.7264 10.8588 21.0654C10.7648 20.5444 10.5268 20.1354 9.96379 19.5304C9.68179 19.2274 9.13479 18.6344 8.74179 18.2134C8.29979 17.7374 7.87979 17.3394 7.64779 17.1824C7.44279 17.0424 7.27179 16.9244 7.27179 16.9134C7.27179 16.9074 7.33779 16.6554 7.41579 16.3474C7.66479 15.4004 7.53179 14.7894 6.95179 14.2514C6.07279 13.4274 4.62479 13.5734 3.98379 14.5544C3.69579 14.9914 3.59079 15.5014 3.66879 16.0284C3.81279 16.9644 4.12779 17.2274 5.36579 17.4514C5.72479 17.5184 6.15079 17.6194 6.31079 17.6804C6.76879 17.8544 7.36079 18.3134 8.10179 19.0704C8.88679 19.8654 9.42279 20.5604 9.67179 21.0924L9.84279 21.4564V22.5494C9.84279 23.1494 9.83179 24.6504 9.81479 25.8834C9.77079 29.2794 9.81479 29.4304 11.2848 31.0444C12.0358 31.8734 12.3348 32.2884 12.5338 32.7984C12.6558 33.1004 12.6608 33.1684 12.6558 34.6974C12.6508 35.5724 12.6338 36.3004 12.6118 36.3174C12.5898 36.3394 12.4578 36.2394 12.3138 36.0984C12.1698 35.9574 11.5848 35.4374 11.0038 34.9334C8.81479 33.0334 7.95879 32.0024 7.62679 30.8704C7.49979 30.4444 7.48879 29.0044 7.59879 27.4524C7.70879 25.8784 7.59879 25.1824 7.14579 24.4884C7.04079 24.3314 6.54879 23.7884 6.04579 23.2784C4.88579 22.1014 4.84679 22.0284 4.79179 20.9424C4.75279 20.2304 4.73679 20.1354 4.59279 19.8664C4.40979 19.5304 4.11679 19.2564 3.74179 19.0654C3.52579 18.9584 3.39879 18.9364 2.90679 18.9364C2.39279 18.9364 2.28779 18.9534 2.01679 19.0824C1.30379 19.4244 0.916789 20.0124 0.916789 20.7634C0.916789 21.3574 1.03879 21.7214 1.34179 22.0524C1.63479 22.3654 1.86179 22.4674 2.82279 22.6914C3.18779 22.7754 3.67379 22.9324 3.90079 23.0384C4.25979 23.2124 4.41479 23.3354 5.07279 24.0134C5.72979 24.6854 5.85779 24.8424 6.05079 25.2514C6.38279 25.9404 6.47079 26.4564 6.47079 27.7054C6.47079 28.2774 6.44879 29.1124 6.42079 29.5714L6.37679 30.3944L5.97879 30.0474C4.72379 28.9264 4.07179 28.1644 3.88379 27.5934C3.83979 27.4534 3.78379 27.0274 3.76179 26.6404C3.70079 25.5764 3.49079 25.2114 2.71779 24.8414C2.44179 24.7074 2.30879 24.6794 1.98279 24.6794C1.41379 24.6794 1.02679 24.8364 0.639789 25.2344C-0.173211 26.0634 -0.217211 27.1904 0.534789 28.0134C0.821789 28.3264 1.13679 28.4554 1.96079 28.5964C2.33679 28.6634 2.75679 28.7644 2.88979 28.8254C3.34279 29.0274 4.60879 30.2034 7.18979 32.8204C8.04079 33.6834 9.31179 34.8994 10.0138 35.5274C11.4398 36.7944 12.1638 37.5494 12.4118 38.0264C12.6998 38.5694 12.7488 38.9564 12.7318 40.5814C12.7148 42.1104 12.7428 42.3414 13.0198 42.8904C13.3628 43.5744 14.4958 44.5484 16.9988 46.3084C18.3798 47.2834 20.2488 48.6784 20.7628 49.1214C21.1778 49.4754 21.4538 49.8944 21.5638 50.3434C21.6408 50.6414 21.6518 50.8694 21.6248 51.5714C21.6078 52.0424 21.5808 52.4394 21.5638 52.4564C21.5248 52.4954 20.9008 52.2044 20.3148 51.8684C19.6458 51.4934 18.9558 50.9884 17.6338 49.9244C15.8098 48.4564 15.1308 47.9634 14.2738 47.4864L13.8368 47.2454L13.8868 46.9874C13.9088 46.8474 13.9308 46.5164 13.9308 46.2544C13.9248 45.8514 13.9028 45.7334 13.7818 45.4974C13.6108 45.1614 13.2238 44.7804 12.9258 44.6574C11.9198 44.2254 10.6488 44.6784 10.2068 45.6324C9.87479 46.3494 10.1408 47.4424 10.7488 47.8904C11.0308 48.0974 11.4448 48.2044 12.2188 48.2714C13.0918 48.3494 13.3628 48.4124 13.7938 48.6474C14.5898 49.0844 16.0928 50.1314 18.4748 51.9144C19.1158 52.3964 19.9228 52.9674 20.2598 53.1804C20.9778 53.6294 21.3318 53.9534 21.4808 54.2954C21.6638 54.7104 21.7128 55.3324 21.6468 56.3184C21.6138 56.7994 21.5858 57.2424 21.5858 57.3044C21.5858 57.3994 21.5748 57.3994 21.3818 57.3204C20.9508 57.1364 20.2598 56.6814 19.3198 55.9704C18.4358 55.2984 16.3408 53.7454 13.2398 51.4654C12.5878 50.9844 11.5928 50.2774 11.0288 49.8964C8.53579 48.2054 8.19879 47.4194 8.38179 43.7944C8.42579 42.9424 8.45979 41.8444 8.45979 41.3514C8.45379 39.5074 8.33779 39.3064 5.87879 36.9424C4.83979 35.9334 4.41379 35.4404 4.22079 35.0034C4.16579 34.8744 4.06579 34.5104 4.01079 34.1904C3.94979 33.8774 3.83379 33.4794 3.75079 33.3114C3.23679 32.2744 1.61179 32.1014 0.738789 32.9864C0.340789 33.3844 0.224789 33.6924 0.224789 34.3194C0.224789 34.7844 0.246789 34.8964 0.379789 35.1884C0.567789 35.5974 0.904789 35.9604 1.27479 36.1584C1.51779 36.2874 1.61179 36.3044 2.07679 36.3044C2.36379 36.3044 2.78979 36.2934 3.01579 36.2824C3.33579 36.2644 3.47379 36.2824 3.62379 36.3604C3.72879 36.4174 4.12679 36.7924 4.50779 37.1954C4.88879 37.5924 5.59679 38.3434 6.08279 38.8544C7.04379 39.8624 7.26579 40.1924 7.40379 40.8264C7.53079 41.3914 7.55279 42.1034 7.47579 43.3084L7.40979 44.4284L6.71379 43.7794C5.84079 42.9614 5.50379 42.5804 5.27679 42.1484C5.10579 41.8234 5.09479 41.7614 5.05579 40.9774C5.00079 39.9684 4.91179 39.7164 4.47579 39.3134C4.08879 38.9494 3.75179 38.8364 3.18779 38.8704C2.84479 38.8934 2.70179 38.9334 2.41379 39.0834C1.49079 39.5824 1.05979 40.6304 1.40779 41.5554C1.66179 42.2394 2.08179 42.5254 3.34779 42.8884C3.78979 43.0174 4.26479 43.1914 4.40879 43.2754C4.97779 43.6064 6.66379 45.2644 7.05079 45.8704C7.34379 46.3304 7.44879 46.6384 7.65279 47.6014C7.97879 49.1644 8.29379 49.5394 10.4768 51.0304C11.0408 51.4124 12.1238 52.1904 12.8808 52.7564C15.4508 54.6734 17.8048 56.3764 18.4128 56.7634C20.6508 58.1864 21.3038 58.7524 21.5408 59.4924C21.5798 59.6214 21.5958 60.8264 21.5848 63.3584L21.5738 67.0464H27.6528L27.6748 55.1504C27.6858 48.6114 27.6798 42.8454 27.6578 42.3364C27.6138 41.2504 27.5858 41.1384 27.1278 40.4104ZM26.0668 2.44341C25.6858 2.06241 25.7238 1.47941 26.1388 1.19941C26.3768 1.04241 26.7848 1.07041 26.9848 1.26141C27.2938 1.55341 27.3718 1.97341 27.1728 2.30341C27.0408 2.53241 26.8028 2.65641 26.5048 2.65641C26.3098 2.65641 26.2378 2.62241 26.0668 2.44341ZM26.2818 15.2854C25.9338 15.5824 25.4688 15.5204 25.1658 15.1344C24.6408 14.4844 25.3478 13.5884 26.0998 13.9524C26.5918 14.1874 26.6908 14.9384 26.2818 15.2854ZM22.2138 8.25941C21.6668 8.25941 21.2188 7.58741 21.4408 7.10541C21.6508 6.66841 22.2748 6.53941 22.6898 6.84741C23.3028 7.30141 22.9828 8.25941 22.2138 8.25941ZM17.7978 27.0134C17.2288 27.0864 16.7918 26.2964 17.1128 25.7694C17.3228 25.4224 17.8088 25.3044 18.1468 25.5174C18.3738 25.6574 18.5058 25.9154 18.5058 26.2344C18.5058 26.6264 18.2078 26.9574 17.7978 27.0134ZM17.9368 17.2974C18.1308 16.8714 18.6668 16.7314 19.0538 17.0054C19.2248 17.1284 19.3798 17.4814 19.3798 17.7454C19.3798 18.1934 19.0038 18.5694 18.5448 18.5694C18.3238 18.5694 18.2578 18.5414 18.1138 18.4014C17.8318 18.1094 17.7658 17.6894 17.9368 17.2974ZM16.3668 4.49941C16.2618 3.86641 16.9798 3.33341 17.5058 3.64741C17.7488 3.79341 17.9088 4.16841 17.8758 4.51641C17.8538 4.74041 17.8098 4.83541 17.6488 4.99241C17.4888 5.15541 17.4058 5.20041 17.1728 5.22141C16.7428 5.26141 16.4498 4.99841 16.3668 4.49941ZM9.93979 8.58941C9.98379 8.14141 10.2878 7.90541 10.7738 7.93941C10.9838 7.95641 11.0778 8.00141 11.2328 8.15241C11.7188 8.62841 11.5588 9.30641 10.9178 9.49741C10.4038 9.65441 9.88379 9.17841 9.93979 8.58941ZM5.26979 16.4124C4.88279 16.2274 4.68879 15.6394 4.87679 15.2354C5.06979 14.8154 5.61179 14.6744 5.94879 14.9614C6.18579 15.1634 6.29179 15.4034 6.29179 15.7234C6.29179 16.2994 5.76679 16.6524 5.26979 16.4124ZM3.53979 21.2074C3.45179 21.3924 3.09179 21.5884 2.85379 21.5944C2.67679 21.5944 2.38979 21.4154 2.27379 21.2364C2.13579 21.0284 2.10779 20.6984 2.20779 20.4574C2.36779 20.0764 2.86579 19.9144 3.24679 20.1094C3.59479 20.2944 3.73779 20.8274 3.53979 21.2074ZM2.33479 27.2824C2.16879 27.3944 1.77179 27.4114 1.59979 27.3154C1.40679 27.2144 1.19079 26.8844 1.16279 26.6544C1.12379 26.3464 1.27879 26.0774 1.58279 25.9204C1.85879 25.7804 2.06379 25.7914 2.30079 25.9604C2.46679 26.0784 2.68779 26.4924 2.68779 26.6944C2.68879 26.8734 2.51079 27.1644 2.33479 27.2824ZM12.8078 46.6404C12.6538 47.1614 11.9398 47.3414 11.5538 46.9494C11.3768 46.7694 11.2888 46.4064 11.3658 46.1704C11.5268 45.6844 12.1568 45.4654 12.5208 45.7734C12.6088 45.8524 12.7258 46.0314 12.7808 46.1704C12.8568 46.3774 12.8628 46.4564 12.8078 46.6404ZM2.77179 34.6504C2.50579 35.1714 1.76579 35.2274 1.47279 34.7514C1.31179 34.4934 1.34579 34.0404 1.53379 33.8324C1.80979 33.5304 2.20279 33.4514 2.51179 33.6424C2.82079 33.8324 2.94179 34.3134 2.77179 34.6504ZM3.87679 41.3184C3.43979 41.7774 2.77679 41.6214 2.54479 41.0044C2.46779 40.7974 2.46179 40.7194 2.51179 40.5394C2.65579 40.0684 3.19779 39.8784 3.66679 40.1304C3.86579 40.2424 4.03679 40.5784 4.03679 40.8814C4.03679 41.0994 4.00879 41.1774 3.87679 41.3184ZM56.1988 25.7294C55.8668 25.5614 55.7838 25.5444 55.3308 25.5444C54.8998 25.5444 54.7948 25.5664 54.5238 25.7014C54.1528 25.8804 53.7388 26.3114 53.5788 26.6814C53.4238 27.0284 53.4238 27.6114 53.5838 28.3174C53.6728 28.7044 53.6888 28.8554 53.6398 28.8724C53.6068 28.8834 53.3638 29.0344 53.0978 29.2144C52.6058 29.5504 51.8768 30.2454 51.0258 31.1924C50.7548 31.4894 50.5118 31.7194 50.4948 31.6964C50.4288 31.6234 50.3128 28.4804 50.3568 28.0044C50.4448 27.0184 50.6108 26.4414 50.9708 25.8634C51.0808 25.6904 51.6008 25.1074 52.1198 24.5634C52.7388 23.9184 53.1588 23.4314 53.3188 23.1684L53.5618 22.7704L53.8938 22.8094C54.0768 22.8374 54.4528 22.8544 54.7228 22.8494C55.3138 22.8434 55.6068 22.7254 55.9998 22.3394C56.3538 21.9984 56.5418 21.5604 56.5628 21.0344C56.5908 20.5304 56.5298 20.2664 56.2868 19.8574C55.9278 19.2574 55.1538 18.8544 54.4738 18.9214C53.7998 18.9834 53.2138 19.3924 52.9148 20.0144C52.7438 20.3624 52.7318 20.4294 52.7048 21.1684C52.6608 22.2664 52.6108 22.3564 51.0468 23.9754C49.3448 25.7404 49.3168 25.8474 49.3448 29.8814L49.3618 32.5484L49.2128 32.8574C49.0078 33.2774 48.7098 33.6084 47.9858 34.2414C47.6488 34.5334 46.7868 35.3614 46.0688 36.0904L44.7648 37.4074L44.7148 36.4604C44.6368 35.0034 44.6538 33.1664 44.7418 32.8014C44.8858 32.2184 45.0738 31.9104 45.6588 31.2884C46.3718 30.5384 46.6258 30.1904 46.8968 29.6014C47.3828 28.5484 47.4218 28.1174 47.3768 24.4804C47.3378 21.4434 47.3498 21.1864 47.5648 20.7544C47.8858 20.1154 49.2288 18.6254 50.0298 18.0314C50.6048 17.5994 50.9088 17.4704 51.7488 17.3024C52.5388 17.1514 52.9198 16.9714 53.1528 16.6474C53.5338 16.1094 53.6168 15.3024 53.3458 14.7424C53.1408 14.3164 52.7548 13.9354 52.3178 13.7284C52.0088 13.5774 51.8978 13.5544 51.4888 13.5544C51.0688 13.5544 50.9798 13.5714 50.6488 13.7394C50.2178 13.9524 49.8858 14.3054 49.7758 14.6584C49.7368 14.7924 49.6878 15.2524 49.6708 15.6834C49.6148 16.8824 49.5098 17.0614 47.9848 18.5974C46.6638 19.9254 46.3438 20.3954 46.1778 21.2814C46.1058 21.6624 46.1118 23.0404 46.1948 24.7164C46.2998 26.8964 46.1668 28.0224 45.6918 29.0194C45.4648 29.5014 45.0948 29.9994 44.7858 30.2414L44.5928 30.3874L44.1948 29.8444C43.5038 28.9084 43.5648 29.3284 43.5428 25.3504C43.5318 23.4564 43.5208 21.6134 43.5208 21.2604C43.5098 20.0774 43.7088 19.6974 45.0518 18.2904C46.1128 17.1864 46.3838 16.8504 46.6218 16.3294C46.9868 15.5394 47.0198 15.1814 46.9638 12.6314C46.9418 11.5944 47.0028 11.0854 47.1798 10.7324C47.2348 10.6204 47.4728 10.3174 47.7048 10.0604C48.2518 9.46041 48.3688 9.21441 48.3688 8.62541C48.3688 8.25541 48.3408 8.12141 48.2198 7.85741C48.0268 7.43741 47.6448 7.06141 47.1918 6.84341C46.8598 6.68041 46.7718 6.66441 46.3238 6.66441C45.6778 6.66441 45.3628 6.79841 44.9478 7.25841C44.4278 7.82441 44.2848 8.47441 44.5548 9.02341C44.6328 9.18041 44.8918 9.54441 45.1358 9.83641C45.3788 10.1274 45.6608 10.5254 45.7548 10.7214C45.9158 11.0464 45.9318 11.1304 45.9538 11.7294C45.9818 12.5534 45.8818 14.1554 45.7658 14.7054C45.5508 15.7254 45.1028 16.5374 44.3568 17.2484C43.8258 17.7584 43.6988 17.8364 43.6988 17.6804C43.6988 17.4284 43.4008 16.5374 43.1358 15.9934C42.8698 15.4614 42.7768 15.3374 42.1238 14.6484C41.2728 13.7524 41.0518 13.4884 40.8578 13.0964C40.6198 12.6144 40.5978 12.2444 40.6148 9.35341L40.6318 6.66441L40.7808 6.35641C40.8638 6.18841 41.1128 5.81841 41.3278 5.54341C41.5488 5.26341 41.7758 4.92641 41.8418 4.78641C42.1898 4.01341 41.7038 2.90941 40.8298 2.49441C40.5648 2.37041 40.4488 2.34841 39.9958 2.34841C39.5098 2.34841 39.4378 2.36541 39.1008 2.53341C38.4648 2.84741 38.0668 3.45241 38.0178 4.16941C37.9848 4.67341 38.1338 5.00441 38.6638 5.59841C39.1668 6.15941 39.3828 6.46741 39.4768 6.78641C39.6098 7.23441 39.6318 8.26041 39.5268 9.57741C39.3218 12.1654 39.4268 13.2694 39.9528 14.1104C40.0518 14.2674 40.5548 14.8394 41.0748 15.3774C42.0918 16.4414 42.2518 16.6714 42.4338 17.3774C42.5668 17.8654 42.5938 18.9074 42.5168 20.2124L42.4728 20.9234L42.0798 20.5764C41.1738 19.7694 40.6428 19.1254 40.4608 18.6154C40.4058 18.4694 40.3558 18.0724 40.3338 17.5844C40.2948 16.8674 40.2788 16.7714 40.1458 16.5364C39.9688 16.2284 39.7528 16.0544 39.3058 15.8414C38.6258 15.5274 37.8358 15.6784 37.2438 16.2394C36.4148 17.0234 36.3878 18.2174 37.1888 19.0014C37.4928 19.3044 37.7198 19.3934 38.4708 19.5284C38.9078 19.6014 39.1948 19.6914 39.4708 19.8254C40.5098 20.3464 42.0128 21.9494 42.3668 22.9124C42.5438 23.3884 42.6048 24.3184 42.5378 25.5574C42.5048 26.1404 42.4878 27.0644 42.4938 27.6194C42.4998 28.2864 42.4768 28.7124 42.4328 28.8804C42.3938 29.0204 42.1898 29.4124 41.9848 29.7494C41.4208 30.6574 41.4048 30.7574 41.4158 32.6514L41.4268 34.2094L41.2218 34.0464C40.5808 33.5254 39.7408 32.6684 39.4478 32.2314C39.1658 31.8004 39.1108 31.5764 39.1108 30.7914C39.1108 30.1524 39.0938 30.0574 38.9668 29.7774C38.7958 29.3964 38.5078 29.0884 38.1438 28.8924C37.8948 28.7584 37.8118 28.7414 37.2868 28.7414C36.7448 28.7414 36.6838 28.7524 36.3358 28.9264C35.8778 29.1554 35.4568 29.5984 35.3248 30.0084C35.2528 30.2214 35.2368 30.4114 35.2528 30.7254C35.3028 31.4254 35.6008 31.9464 36.1258 32.2154C36.2698 32.2884 36.6948 32.4114 37.0708 32.4894C37.8998 32.6634 38.1598 32.7924 38.8068 33.3194C40.2158 34.4674 41.0948 35.5664 41.3878 36.5184C41.5478 37.0574 41.5148 37.6904 41.2938 38.1374C40.9618 38.8214 40.3928 39.3214 38.8618 40.2564C38.3478 40.5744 37.6788 41.0244 37.3808 41.2584C36.0098 42.3284 35.5288 42.6104 35.0378 42.6104C34.4628 42.6104 34.2698 42.3744 34.4348 41.8534C34.5788 41.3824 34.9598 41.0064 35.9878 40.3234C36.4738 39.9994 37.1098 39.5784 37.3968 39.3824C38.3758 38.7334 39.0168 38.0994 39.3318 37.4724C39.4418 37.2594 39.4698 37.1184 39.4698 36.8004C39.4698 36.4464 39.4528 36.3744 39.3038 36.1614C38.9778 35.6844 38.3538 35.4374 37.7728 35.5504C37.3358 35.6344 36.9218 35.8534 35.7938 36.5984C35.2298 36.9624 34.6168 37.3604 34.4288 37.4724C34.0638 37.6974 33.5888 37.9254 33.5558 37.8924C33.5448 37.8804 33.5278 36.0934 33.5278 33.9254C33.5168 29.6114 33.5108 29.7454 33.8428 29.2634C33.9208 29.1464 34.2358 28.8434 34.5448 28.5914C34.8488 28.3334 35.3738 27.8684 35.7058 27.5494C37.0988 26.2044 37.4688 25.9914 38.7238 25.8014C39.8018 25.6384 40.3928 24.9944 40.4038 23.9804C40.4088 23.5994 40.3868 23.4874 40.2548 23.2184C40.0668 22.8254 39.6528 22.4224 39.2328 22.2264C38.9618 22.0974 38.8458 22.0754 38.3928 22.0754C37.9338 22.0754 37.8288 22.0924 37.5638 22.2264C37.1548 22.4284 36.8178 22.7814 36.7128 23.1054C36.6688 23.2454 36.6078 23.6714 36.5798 24.0464C36.5358 24.6234 36.4968 24.7864 36.3588 25.0834C36.0658 25.7104 35.3258 26.4614 34.1368 27.3304L33.5568 27.7564L33.5178 26.8484C33.4628 25.6544 33.5348 24.7464 33.7388 24.1474C33.9158 23.6264 34.1478 23.2564 34.6618 22.6624C35.6508 21.5254 35.8608 21.1164 35.9608 20.1414C35.9828 19.9114 35.9768 17.9954 35.9438 15.8834C35.9108 13.4574 35.9108 11.6924 35.9438 11.0874C36.0048 9.93341 36.0488 9.82641 36.7618 8.90141C37.3418 8.14541 37.5188 7.79241 37.5248 7.36041C37.5298 6.30741 36.2698 5.31041 35.1868 5.51741C34.7498 5.60141 34.4628 5.76441 34.1418 6.10541C33.6668 6.61541 33.5168 7.13641 33.7448 7.50641C33.8058 7.61241 33.8328 7.74141 33.8218 7.84841C33.7818 8.11941 33.8928 8.43841 34.2018 8.90941C34.6998 9.68241 34.7098 9.72741 34.7328 10.8084C34.7438 11.3294 34.7328 11.8454 34.7048 11.9464L34.6608 12.1314L33.8758 11.3584C33.0418 10.5284 32.5988 9.93541 32.4498 9.41441C32.2898 8.89341 32.2568 8.27141 32.3008 6.66341C32.3448 5.14441 32.3508 5.08241 32.4838 4.78641C32.5718 4.60141 32.8098 4.28241 33.0748 3.99141C33.5728 3.45341 33.7268 3.19041 33.8038 2.75341C33.9038 2.25441 33.6988 1.59941 33.3228 1.16741C32.8198 0.596413 32.0298 0.354413 31.3108 0.551413C30.5538 0.759413 29.9958 1.42041 29.9018 2.22141C29.8468 2.72541 29.9518 3.05041 30.4098 3.72841C31.1388 4.81541 31.1178 4.70841 31.1228 7.14041C31.1288 9.36541 31.1398 9.45441 31.6538 10.4464C32.0238 11.1634 32.5268 11.7744 33.5158 12.7324C34.5718 13.7464 34.6608 13.8984 34.7488 14.9284C34.7878 15.3664 34.7928 15.9934 34.7648 16.5814C34.7428 17.1024 34.7208 18.1614 34.7208 18.9354C34.7098 20.4704 34.6988 20.5374 34.3558 21.1144C34.2558 21.2824 33.9358 21.7024 33.6428 22.0554C32.8088 23.0584 32.5928 23.4674 32.4818 24.2404C32.4538 24.4424 32.4488 26.8184 32.4648 29.6874L32.4918 34.7864L32.3038 34.6524C32.1988 34.5794 31.8278 34.2264 31.4748 33.8734C30.7558 33.1504 30.4188 32.6294 30.1868 31.9064C29.9768 31.2674 29.9268 30.8694 29.9158 29.7884C29.9048 28.5724 29.9268 28.4994 30.6338 27.7434C31.2808 27.0594 31.3418 26.9304 31.3418 26.2194C31.3418 25.7044 31.3308 25.6364 31.1758 25.3624C30.7448 24.5614 29.7778 24.1294 28.9598 24.3644C28.0808 24.6164 27.4898 25.4124 27.4898 26.3314C27.4838 26.9364 27.6388 27.2674 28.1918 27.8774C28.8498 28.6004 28.8498 28.6004 28.8608 30.4774C28.8658 32.4214 28.9268 32.7124 29.5188 33.6154C29.8508 34.1194 30.4798 34.7694 31.4258 35.5874C31.9678 36.0584 32.0888 36.1984 32.2488 36.5124C32.4198 36.8544 32.4368 36.9384 32.4648 37.5214C32.5148 38.6694 32.2988 39.0334 31.1048 39.8514C30.0388 40.5854 29.7898 40.9444 29.7118 41.8464C29.6898 42.1264 29.6838 47.9094 29.7008 54.7004L29.7288 67.0394H35.9688L35.9518 63.2684C35.9408 59.0774 35.9248 59.2894 36.3218 58.7414C36.6928 58.2314 37.3388 57.7214 38.7378 56.8464C39.6108 56.2974 39.8488 56.1294 43.4468 53.4914C44.7228 52.5504 46.0998 51.5574 46.5138 51.2784C47.6248 50.5264 48.4428 49.8934 48.8128 49.4904C49.2658 48.9974 49.5088 48.4934 49.8018 47.4454C50.2388 45.8934 50.3658 45.6634 51.4768 44.4304C52.6708 43.1084 53.0188 42.8784 54.0628 42.7434C54.4218 42.6984 54.8318 42.6204 54.9638 42.5694C55.2898 42.4524 55.5778 42.1724 55.7598 41.8124C56.1798 40.9724 56.0308 40.0874 55.3508 39.4094C54.9368 38.9944 54.5498 38.8324 53.9698 38.8324C53.6108 38.8324 53.5058 38.8544 53.1848 39.0124C52.7598 39.2254 52.4218 39.5774 52.3228 39.9304C52.2788 40.0654 52.2288 40.5474 52.2118 41.0124C52.1728 41.8254 52.1678 41.8644 51.9848 42.2174C51.7638 42.6374 51.0898 43.3494 50.4038 43.8814L49.9558 44.2294L49.9168 43.4334C49.8508 42.0994 49.8668 41.2704 49.9608 40.8504C50.1098 40.2114 50.3308 39.8704 51.1818 38.9734C51.6078 38.5194 52.1768 37.8974 52.4478 37.5824C53.3928 36.4904 53.5588 36.4004 54.9408 36.2554C56.1788 36.1204 56.5328 35.9464 56.8308 35.3364C56.9748 35.0454 56.9858 34.9614 56.9858 34.4004C56.9858 33.8744 56.9688 33.7394 56.8528 33.4924C56.7088 33.1674 56.3168 32.7634 55.9798 32.5904C55.0958 32.1314 53.9018 32.4844 53.4868 33.3244C53.4208 33.4594 53.2938 33.8624 53.2108 34.2094C52.9398 35.3074 52.7688 35.5484 51.0658 37.2574C48.8558 39.4764 48.8388 39.5154 48.9218 42.1324C49.0048 44.7654 48.9878 46.3234 48.8718 46.8274C48.5788 48.0764 47.9428 48.8004 45.9038 50.1724C45.5228 50.4304 44.6158 51.0854 43.8868 51.6294C40.7698 53.9544 39.2828 55.0364 37.1988 56.5034L35.9828 57.3564L35.9438 57.0034C35.9218 56.8064 35.8998 56.2304 35.8938 55.7204C35.8828 54.1514 36.0488 53.8544 37.4968 52.8734C37.9388 52.5704 38.8898 51.8704 39.6028 51.3154C41.6088 49.7524 42.7038 49.0064 43.6258 48.5574C44.0068 48.3734 44.0848 48.3564 44.9628 48.2944C45.8088 48.2274 45.9138 48.2104 46.1788 48.0654C47.0188 47.6064 47.3888 46.5244 46.9968 45.6784C46.8038 45.2524 46.4768 44.9054 46.0568 44.6744C45.7248 44.4954 45.6818 44.4854 45.1558 44.4854C44.6638 44.4854 44.5758 44.5014 44.3218 44.6354C43.6858 44.9714 43.4758 45.3084 43.2718 46.2824C43.1058 47.0724 43.0228 47.2524 42.6078 47.6604C42.1878 48.0704 41.9448 48.2554 40.9498 48.9164C40.4968 49.2194 39.4078 49.9864 38.5238 50.6194C37.6448 51.2524 36.7058 51.9314 36.4458 52.1154L35.9698 52.4574L35.9308 52.0314C35.8698 51.3084 35.8918 50.4904 35.9808 50.1484C36.1298 49.5664 36.5008 49.1514 37.5278 48.4174C37.8318 48.1994 39.0528 47.2744 40.2358 46.3614C41.4238 45.4474 42.6898 44.4954 43.0598 44.2434C44.4578 43.2854 44.6848 42.8424 44.6848 41.0494C44.6848 39.8674 44.7628 39.4574 45.0778 38.9654C45.2928 38.6234 49.2178 34.6334 50.3278 33.6254C50.6158 33.3614 51.3448 32.6164 51.9418 31.9724C53.3568 30.4434 54.1968 29.7254 54.8548 29.4794C54.9928 29.4234 55.3528 29.3334 55.6568 29.2724C56.5908 29.0814 56.9168 28.8914 57.1598 28.3924C57.2978 28.1004 57.3148 28.0114 57.3148 27.5074C57.3148 27.0084 57.2978 26.9134 57.1658 26.6664C56.9668 26.2684 56.6248 25.9424 56.1988 25.7294ZM54.0098 20.3564C54.2638 20.0654 54.7778 19.9984 55.0818 20.2054C55.3748 20.4134 55.4908 20.6094 55.4908 20.9174C55.4908 21.4044 55.1708 21.7074 54.6568 21.7074C54.4138 21.7074 54.3368 21.6794 54.1818 21.5394C54.0768 21.4494 53.9608 21.2984 53.9218 21.2034C53.8278 20.9724 53.8778 20.5024 54.0098 20.3564ZM51.4838 14.7084C51.5278 14.7084 51.6668 14.7534 51.7938 14.8144C52.3798 15.1004 52.4188 15.9634 51.8598 16.2314C51.6058 16.3554 51.3958 16.3494 51.1578 16.2204C50.9428 16.1024 50.7158 15.7214 50.7158 15.4744C50.7158 15.0894 51.0648 14.7424 51.4838 14.7084ZM45.7038 8.14741C45.9358 7.79941 46.3288 7.67641 46.7038 7.83341C46.9578 7.93941 47.1848 8.26541 47.2178 8.55641C47.2838 9.15641 46.5218 9.59841 46.0128 9.25141C45.5928 8.96541 45.4608 8.50541 45.7038 8.14741ZM39.4358 4.83541C39.0328 4.39241 39.1158 3.84941 39.6348 3.56341C39.8058 3.46241 40.1148 3.48441 40.3148 3.60741C40.5688 3.76441 40.7128 4.03341 40.7128 4.34741C40.7128 5.02041 39.8948 5.33441 39.4358 4.83541ZM38.8228 18.3224C38.3638 18.5634 37.8608 18.2554 37.7608 17.6724C37.6508 17.0614 38.4738 16.5794 38.9438 16.9774C39.4248 17.3924 39.3698 18.0364 38.8228 18.3224ZM37.2028 31.4004C36.8328 31.4004 36.4568 30.9974 36.4568 30.5994C36.4568 30.0114 37.1028 29.6634 37.6058 29.9834C37.7548 30.0784 37.9428 30.4654 37.9488 30.6724C37.9488 31.0364 37.5788 31.4004 37.2028 31.4004ZM37.7608 23.5224C37.9818 23.1864 38.5128 23.0684 38.8328 23.2874C39.1148 23.4834 39.2308 23.6744 39.2308 23.9594C39.2368 24.2674 39.1088 24.4804 38.8278 24.6264C38.5628 24.7614 38.3578 24.7614 38.1148 24.6264C37.7168 24.4134 37.5408 23.8644 37.7608 23.5224ZM31.1458 2.86341C31.0128 2.56641 31.0128 2.34241 31.1398 2.09541C31.3228 1.74841 31.7978 1.60241 32.1458 1.78741C32.3498 1.89341 32.5328 2.24641 32.5328 2.52741C32.5328 3.30641 31.4658 3.56941 31.1458 2.86341ZM35.5448 6.69041C35.6668 6.69041 35.8428 6.74041 35.9418 6.80241C36.2958 7.02141 36.4228 7.57541 36.1908 7.90641C35.9368 8.27041 35.3838 8.36041 35.0908 8.08041C34.5398 7.55941 34.8208 6.69041 35.5448 6.69041ZM28.6588 26.4304C28.4488 25.7804 29.2558 25.1984 29.8308 25.5904C30.1128 25.7804 30.2678 26.0494 30.2678 26.3414C30.2678 26.5544 30.2348 26.6274 30.0848 26.7784C29.6478 27.2204 28.8518 27.0244 28.6588 26.4304ZM53.3748 40.3594C53.5518 40.0174 54.1708 39.9174 54.4748 40.1744C54.7018 40.3704 54.8068 40.5894 54.8068 40.8804C54.8068 41.1894 54.7128 41.3684 54.4808 41.5254C54.0998 41.7834 53.6188 41.6424 53.3978 41.2004C53.3028 41.0154 53.2858 40.5224 53.3748 40.3594ZM54.4908 33.9164C54.7398 33.5354 55.2368 33.4294 55.5738 33.6814C55.9218 33.9454 56.0048 34.5114 55.7398 34.8024C55.3198 35.2504 54.7118 35.1724 54.4738 34.6344C54.3308 34.3254 54.3358 34.1454 54.4908 33.9164ZM44.5478 45.9744C44.7308 45.6204 45.3718 45.5254 45.6638 45.8064C45.8738 46.0014 45.9628 46.2084 45.9628 46.5004C45.9628 47.2454 44.8958 47.4254 44.5478 46.7414C44.4488 46.5454 44.4488 46.1754 44.5478 45.9744ZM56.0718 27.9484C55.5908 28.5654 54.6958 28.2004 54.6958 27.3934C54.6958 27.0804 54.7948 26.9174 55.0548 26.7824C55.2928 26.6534 55.5858 26.6704 55.8068 26.8224C56.1708 27.0694 56.3098 27.6464 56.0718 27.9484ZM79.6748 19.0114C80.1998 19.5884 80.8848 19.8574 81.8518 19.8574C83.2778 19.8574 84.2008 19.2184 84.6538 17.9134L84.8088 17.4764V9.29541L84.6648 8.86341C84.3168 7.83841 83.6208 7.18841 82.6368 6.97541C82.2388 6.89141 81.3438 6.90241 80.9458 7.00341C79.9458 7.25041 79.2048 8.06241 78.9558 9.19341C78.8788 9.54141 78.8678 10.1124 78.8678 13.4014C78.8678 17.0324 78.8738 17.2224 78.9788 17.6494C79.1338 18.2554 79.3208 18.6244 79.6748 19.0114ZM80.6978 9.68241C80.8248 8.96541 81.1678 8.65141 81.8138 8.65141C82.0188 8.65141 82.2668 8.68541 82.3668 8.73041C82.6158 8.83141 82.8308 9.10541 82.9308 9.44741C83.0578 9.87841 83.0578 16.8934 82.9308 17.3254C82.7648 17.8914 82.4448 18.1214 81.8258 18.1214C81.1678 18.1214 80.8258 17.8074 80.6988 17.0904C80.6148 16.6304 80.6148 10.1364 80.6978 9.68241ZM121.066 11.2284C121.641 11.2284 121.691 11.2174 121.801 11.0994C121.906 10.9874 121.923 10.9034 121.923 10.4944C121.923 9.53041 122.122 8.97541 122.542 8.75741C122.852 8.59541 123.548 8.61741 123.786 8.79741C124.195 9.10541 124.322 9.54741 124.289 10.6344C124.272 11.2964 124.256 11.4024 124.129 11.6494C124.035 11.8454 123.913 11.9804 123.731 12.0914C123.504 12.2314 123.405 12.2544 122.935 12.2814C122.194 12.3154 122.2 12.3094 122.2 13.1334C122.2 13.9514 122.2 13.9514 122.907 13.9904C123.593 14.0244 123.858 14.1584 124.101 14.5904C124.272 14.8984 124.272 14.8984 124.289 15.8844C124.311 16.9664 124.256 17.3854 124.062 17.6774C123.835 18.0134 123.675 18.0924 123.178 18.1084C122.785 18.1204 122.692 18.1084 122.504 17.9964C122.073 17.7444 121.924 17.2344 121.924 16.0354C121.924 15.1274 121.946 15.1504 121.056 15.1504C120.144 15.1504 120.188 15.0834 120.227 16.3944C120.254 17.5204 120.315 17.8514 120.602 18.4344C120.917 19.0734 121.553 19.5774 122.282 19.7734C122.702 19.8794 123.625 19.8854 124.04 19.7734C125.09 19.4984 125.809 18.7084 126.04 17.5874C126.156 17.0324 126.156 15.1284 126.04 14.6734C125.902 14.1244 125.653 13.6764 125.322 13.3684L125.018 13.0884L125.339 12.7574C125.914 12.1634 126.124 11.5304 126.124 10.3474C126.124 9.46241 126.03 8.93541 125.765 8.39141C125.428 7.69141 124.826 7.20341 124.041 6.99641C123.637 6.89041 122.659 6.89041 122.256 7.00241C121.272 7.26541 120.603 7.98241 120.349 9.04741C120.299 9.24341 120.244 9.75341 120.227 10.1794C120.194 10.9304 120.199 10.9524 120.321 11.0874C120.443 11.2224 120.48 11.2284 121.066 11.2284ZM71.5838 18.4004H72.1808V18.9774C72.1808 19.7564 72.1698 19.7454 73.0768 19.7454C73.9608 19.7454 73.9498 19.7564 73.9498 18.9724V18.4004H74.5468C75.9058 18.4004 76.7738 17.9184 77.2438 16.9214C77.5758 16.2154 77.6088 15.8674 77.5868 13.2004C77.5648 11.2004 77.5478 10.8134 77.4708 10.5274C77.0738 9.11541 76.0778 8.43741 74.4088 8.42641H73.9498V7.85041C73.9498 7.31841 73.9388 7.26241 73.8228 7.15041C73.7068 7.03841 73.6348 7.02641 73.0268 7.02641C72.4578 7.02641 72.3528 7.04341 72.2758 7.12741C72.1978 7.21141 72.1818 7.35141 72.1818 7.82241V8.41041L71.5078 8.44441C70.1368 8.51141 69.3578 8.94341 68.8938 9.90141C68.5568 10.5904 68.5348 10.8154 68.5348 13.4034C68.5348 15.2974 68.5518 15.7964 68.6228 16.1434C68.9258 17.6554 69.9088 18.4004 71.5838 18.4004ZM73.9488 10.1534L74.5178 10.1754C74.9938 10.1924 75.1148 10.2144 75.2968 10.3264C75.4458 10.4214 75.5508 10.5564 75.6558 10.7754L75.7998 11.0884L75.8168 13.1504C75.8388 15.3914 75.7998 15.8624 75.5798 16.2494C75.3748 16.6024 75.0928 16.7204 74.4578 16.7204H73.9488V10.1534ZM70.3618 11.2014C70.4668 10.6244 70.6718 10.3384 71.0698 10.2214C71.1478 10.1934 71.4288 10.1704 71.6998 10.1704L72.1798 10.1644V16.7204H71.6658C70.8038 16.7204 70.4888 16.4624 70.3608 15.6554C70.2848 15.1674 70.2848 11.6264 70.3618 11.2014ZM87.0588 19.7464C87.6558 19.7464 87.7608 19.7344 87.8378 19.6454C87.9208 19.5504 87.9318 19.2814 87.9318 16.8994V14.2544H90.4188V19.5044L90.5458 19.6224C90.6618 19.7344 90.7338 19.7464 91.3698 19.7464C91.9668 19.7464 92.0718 19.7344 92.1488 19.6454C92.2368 19.5504 92.2428 19.0344 92.2428 13.3754C92.2428 7.47541 92.2378 7.20641 92.1428 7.12241C92.0598 7.04341 91.9158 7.02641 91.3468 7.02641C90.3188 7.02641 90.4188 6.71841 90.4188 9.92941V12.5744H87.9318V9.89541C87.9318 7.36841 87.9268 7.20641 87.8318 7.12241C87.7488 7.04341 87.6048 7.02641 87.0368 7.02641C86.3898 7.02641 86.3398 7.03241 86.2298 7.15541L86.1078 7.28441V19.5054L86.2348 19.6234C86.3518 19.7344 86.4228 19.7464 87.0588 19.7464ZM94.2718 21.4264C95.1448 21.4264 95.1178 21.4544 95.1178 20.4854V19.7464H99.5948V21.4274H100.386C101.088 21.4274 101.193 21.4164 101.27 21.3264C101.353 21.2364 101.364 21.0404 101.364 19.7294C101.364 18.2554 101.364 18.2384 101.242 18.1544C101.165 18.0984 100.999 18.0654 100.8 18.0654H100.479V7.26741L100.352 7.14941C100.225 7.02541 100.214 7.02541 97.6988 7.02541C95.7198 7.02541 95.1678 7.04241 95.1508 7.09241C95.1398 7.13141 95.0238 9.32241 94.8968 11.9564C94.7698 14.5894 94.6428 16.9094 94.6148 17.1114C94.5818 17.3134 94.4988 17.6104 94.4268 17.7674L94.2938 18.0644H93.9398C93.6468 18.0644 93.5698 18.0864 93.4698 18.1934C93.3538 18.3224 93.3478 18.3614 93.3478 19.7514C93.3488 21.5394 93.2878 21.4264 94.2718 21.4264ZM96.2498 17.7904C96.2938 17.6664 96.3548 17.4154 96.3878 17.2354C96.4318 16.9714 96.8298 9.56941 96.8298 8.94741V8.76341H98.5988V18.0644H97.3828C96.7138 18.0644 96.1668 18.0534 96.1668 18.0424C96.1668 18.0314 96.2058 17.9184 96.2498 17.7904ZM106.624 19.7464C107.221 19.7464 107.326 19.7344 107.403 19.6454C107.486 19.5504 107.497 19.3034 107.497 17.2364V14.9274H108.26C108.697 14.9274 109.172 14.8944 109.382 14.8494C110.443 14.6204 111.162 13.8744 111.394 12.7704C111.51 12.1984 111.51 9.81741 111.389 9.22341C111.206 8.31541 110.737 7.65441 110.04 7.32441C109.482 7.05541 109.233 7.02741 107.503 7.02741H105.912L105.796 7.15641L105.674 7.28541V19.5064L105.801 19.6244C105.917 19.7344 105.988 19.7464 106.624 19.7464ZM107.497 8.75741L108.293 8.77441C109.001 8.79141 109.111 8.80241 109.249 8.90841C109.636 9.20041 109.73 9.70941 109.697 11.2844C109.675 12.2364 109.658 12.4104 109.559 12.6344C109.354 13.0994 108.99 13.2454 108.017 13.2454H107.497V8.75741ZM113.112 19.7464C113.521 19.7464 113.853 19.7404 113.858 19.7294C113.858 19.7244 113.963 19.1744 114.09 18.5134L114.322 17.3084H116.975L117.185 18.4004C117.296 19.0004 117.406 19.5494 117.417 19.6164C117.444 19.7454 117.461 19.7454 118.24 19.7454C119.036 19.7454 119.036 19.7454 119.13 19.5994C119.218 19.4594 119.191 19.2744 118.107 13.5364C117.494 10.2754 116.963 7.47941 116.936 7.31641L116.875 7.02441H114.532L114.471 7.31641C114.443 7.47941 113.912 10.2744 113.299 13.5364C112.216 19.2744 112.188 19.4584 112.277 19.5994C112.372 19.7464 112.378 19.7464 113.112 19.7464ZM115.605 10.2484L115.644 10.1364L115.666 10.2484C115.677 10.3104 115.909 11.5144 116.18 12.9264C116.451 14.3324 116.672 15.5264 116.672 15.5714C116.672 15.6444 116.517 15.6554 115.65 15.6554C114.661 15.6554 114.628 15.6504 114.628 15.5434C114.627 15.4194 115.55 10.4274 115.605 10.2484ZM129.395 19.7464C130.904 19.7464 131.125 19.7344 131.517 19.6344C132.28 19.4324 132.838 18.9894 133.159 18.3234C133.413 17.8024 133.473 17.3764 133.473 16.1324C133.473 14.8714 133.412 14.4624 133.153 13.9414C132.999 13.6274 132.446 13.0224 132.313 13.0224C132.28 13.0224 132.385 12.8884 132.551 12.7254C133.131 12.1484 133.275 11.5994 133.236 10.0804C133.219 9.18441 133.198 8.95441 133.098 8.64641C132.877 7.96241 132.407 7.46941 131.716 7.20641C131.352 7.06041 131.328 7.06041 129.522 7.03841L127.698 7.02141L127.571 7.15041L127.449 7.28441V19.5054L127.576 19.6234C127.703 19.7464 127.736 19.7464 129.395 19.7464ZM129.274 8.76341H130.036C130.661 8.76341 130.827 8.78041 130.987 8.86441C131.114 8.93141 131.224 9.06041 131.319 9.24541C131.451 9.50341 131.457 9.57041 131.457 10.4444C131.457 11.3184 131.451 11.3854 131.319 11.6494C131.108 12.0754 130.838 12.1924 129.959 12.2264L129.274 12.2544V8.76341ZM129.274 13.9744H130.036C130.738 13.9744 130.821 13.9854 131.075 14.1144C131.561 14.3614 131.706 14.8094 131.706 16.0804C131.706 17.2234 131.573 17.6664 131.153 17.8794C130.931 17.9974 130.833 18.0084 130.091 18.0084H129.274V13.9744ZM135.733 19.7344L136.523 19.7174L137.701 15.9914C138.353 13.9404 138.961 12.0524 139.05 11.7884L139.21 11.3124L139.215 15.4364C139.221 19.3584 139.227 19.5654 139.32 19.6494C139.403 19.7284 139.547 19.7454 140.06 19.7454C140.608 19.7454 140.706 19.7284 140.785 19.6444C140.873 19.5494 140.879 19.0334 140.879 13.3744C140.879 7.47441 140.873 7.20541 140.779 7.12141C140.691 7.04241 140.542 7.02541 139.823 7.02541H138.972L137.91 10.1744C137.324 11.9114 136.739 13.6534 136.611 14.0574L136.374 14.7864L136.357 11.0094C136.346 7.59241 136.335 7.22141 136.252 7.12641C136.175 7.04241 136.075 7.02541 135.545 7.02541C134.97 7.02541 134.92 7.03741 134.81 7.15441L134.689 7.28341V19.5044L134.816 19.6274C134.943 19.7404 134.987 19.7464 135.733 19.7344ZM142.128 8.76341H144.084V14.1594C144.084 19.3204 144.09 19.5664 144.184 19.6504C144.268 19.7294 144.411 19.7464 144.981 19.7464C145.627 19.7464 145.676 19.7404 145.788 19.6174L145.909 19.4884V8.76341H146.893C148.159 8.76341 148.12 8.79141 148.12 7.85541C148.12 7.30041 148.103 7.19941 148.02 7.12141C147.926 7.03741 147.639 7.02541 144.986 7.02541H142.057L141.941 7.15441C141.831 7.27241 141.819 7.34541 141.819 7.87141C141.819 8.44341 141.825 8.46541 141.974 8.61141L142.128 8.76341ZM150.158 19.7344L150.949 19.7174L152.126 15.9914C152.778 13.9404 153.387 12.0524 153.475 11.7884L153.635 11.3124L153.641 15.4364C153.647 19.3584 153.652 19.5654 153.746 19.6494C153.828 19.7284 153.973 19.7454 154.486 19.7454C155.033 19.7454 155.132 19.7284 155.21 19.6444C155.299 19.5494 155.305 19.0334 155.305 13.3744C155.305 7.47441 155.299 7.20541 155.205 7.12141C155.116 7.04241 154.967 7.02541 154.248 7.02541H153.397L152.335 10.1744C151.749 11.9114 151.163 13.6534 151.036 14.0574L150.799 14.7864L150.782 11.0094C150.77 7.59241 150.761 7.22141 150.677 7.12641C150.6 7.04241 150.501 7.02541 149.97 7.02541C149.396 7.02541 149.345 7.03741 149.236 7.15441L149.114 7.28341V19.5044L149.241 19.6274C149.368 19.7404 149.412 19.7464 150.158 19.7344ZM156.658 19.7514L157.426 19.7344L158.2 19.7174L158.31 19.4094C158.41 19.1344 158.421 18.9164 158.449 17.3024L158.482 15.5094L158.648 15.1784C158.786 14.9044 158.863 14.8254 159.089 14.7074C159.327 14.5784 159.443 14.5614 160.04 14.5394L160.72 14.5224V17.0384C160.72 19.4084 160.726 19.5654 160.82 19.6494C160.902 19.7284 161.051 19.7454 161.643 19.7454C162.267 19.7454 162.372 19.7334 162.45 19.6444C162.539 19.5494 162.545 19.0334 162.545 13.4024V7.26741L162.417 7.14941C162.29 7.02541 162.257 7.02541 160.66 7.03141C159.488 7.03141 158.935 7.05941 158.681 7.11541C157.652 7.33941 156.99 8.02841 156.763 9.08741C156.658 9.59741 156.658 11.5134 156.763 12.0184C156.89 12.6234 157.177 13.1054 157.576 13.4084L157.791 13.5654L157.57 13.7224C157.205 13.9794 156.928 14.4224 156.763 15.0224C156.691 15.2744 156.663 15.7514 156.63 17.1684C156.603 18.6194 156.574 19.0344 156.508 19.2194C156.425 19.4374 156.425 19.4544 156.536 19.6004L156.658 19.7514ZM158.996 8.87541C159.168 8.78641 159.322 8.76941 159.963 8.76341H160.721V12.7974H160.168C159.189 12.7974 158.83 12.6404 158.604 12.1254C158.51 11.9174 158.483 11.7224 158.465 10.9934C158.427 9.63741 158.56 9.11041 158.996 8.87541ZM252.996 27.7024C254.135 27.7024 254.875 27.1474 255.062 26.1444C255.128 25.8084 255.128 25.7864 255.007 25.6574C254.886 25.5284 254.841 25.5174 254.333 25.5174H253.791V25.6854C253.791 25.9824 253.647 26.2404 253.437 26.3304C253.05 26.4984 252.437 26.3924 252.304 26.1404C252.271 26.0784 252.227 25.9104 252.21 25.7704L252.171 25.5184H251.636C251.144 25.5184 251.094 25.5294 250.978 25.6524C250.868 25.7704 250.857 25.8264 250.89 26.0334C251.067 27.1194 251.803 27.7024 252.996 27.7024ZM97.6698 27.9884C97.2718 27.9044 96.3768 27.9154 95.9788 28.0164C94.9788 28.2634 94.2378 29.0754 93.9888 30.2074C93.9108 30.5544 93.9008 31.1264 93.9008 34.4154C93.9008 38.0464 93.9058 38.2364 94.0108 38.6624C94.1658 39.2674 94.3538 39.6374 94.7068 40.0234C95.2318 40.6004 95.9168 40.8694 96.8848 40.8694C98.3108 40.8694 99.2338 40.2304 99.6868 38.9264L99.8418 38.4884V30.3074L99.6978 29.8764C99.3508 28.8514 98.6538 28.2014 97.6698 27.9884ZM97.9628 38.3364C97.7968 38.9024 97.4768 39.1324 96.8578 39.1324C96.1998 39.1324 95.8578 38.8184 95.7308 38.1014C95.6478 37.6424 95.6478 31.1484 95.7308 30.6944C95.8578 29.9774 96.2008 29.6634 96.8478 29.6634C97.0528 29.6634 97.3008 29.6974 97.3998 29.7424C97.6488 29.8434 97.8638 30.1174 97.9638 30.4594C98.0898 30.8904 98.0898 37.9064 97.9628 38.3364ZM146.832 38.9254L146.986 38.4874V30.3064L146.842 29.8754C146.493 28.8504 145.797 28.2004 144.814 27.9874C144.416 27.9034 143.521 27.9144 143.123 28.0154C142.123 28.2624 141.382 29.0744 141.133 30.2064C141.057 30.5534 141.045 31.1254 141.045 34.4144C141.045 38.0454 141.051 38.2354 141.155 38.6614C141.31 39.2664 141.498 39.6364 141.851 40.0224C142.376 40.5994 143.062 40.8684 144.029 40.8684C145.455 40.8694 146.379 40.2304 146.832 38.9254ZM142.874 38.1014C142.791 37.6424 142.791 31.1484 142.874 30.6944C143.002 29.9774 143.344 29.6634 143.99 29.6634C144.195 29.6634 144.443 29.6974 144.543 29.7424C144.643 29.7814 144.792 29.8994 144.875 29.9944C145.185 30.3754 145.189 30.4144 145.189 34.3984C145.189 38.3824 145.184 38.4214 144.875 38.8034C144.676 39.0434 144.433 39.1334 144.002 39.1334C143.344 39.1324 143.002 38.8184 142.874 38.1014ZM216.884 27.9884C216.487 27.9044 215.59 27.9154 215.194 28.0164C214.193 28.2634 213.452 29.0754 213.204 30.2074C213.126 30.5544 213.116 31.1264 213.116 34.4154C213.116 38.0464 213.121 38.2364 213.225 38.6624C213.38 39.2674 213.569 39.6374 213.922 40.0234C214.446 40.6004 215.132 40.8694 216.1 40.8694C217.526 40.8694 218.448 40.2304 218.901 38.9264L219.056 38.4884V30.3074L218.912 29.8764C218.565 28.8514 217.867 28.2014 216.884 27.9884ZM216.945 38.8024C216.746 39.0424 216.502 39.1324 216.071 39.1324C215.414 39.1324 215.071 38.8184 214.943 38.1014C214.861 37.6424 214.861 31.1484 214.943 30.6944C215.071 29.9774 215.414 29.6634 216.06 29.6634C216.264 29.6634 216.513 29.6974 216.613 29.7424C216.713 29.7814 216.861 29.8994 216.945 29.9944C217.254 30.3754 217.259 30.4144 217.259 34.3984C217.259 38.3824 217.254 38.4204 216.945 38.8024ZM232.193 27.9884C231.795 27.9044 230.9 27.9154 230.502 28.0164C229.502 28.2634 228.761 29.0754 228.512 30.2074C228.436 30.5544 228.424 31.1264 228.424 34.4154C228.424 38.0464 228.43 38.2364 228.534 38.6624C228.689 39.2674 228.877 39.6374 229.23 40.0234C229.755 40.6004 230.441 40.8694 231.408 40.8694C232.834 40.8694 233.758 40.2304 234.211 38.9264L234.365 38.4884V30.3074L234.221 29.8764C233.873 28.8514 233.177 28.2014 232.193 27.9884ZM232.254 38.8024C232.055 39.0424 231.812 39.1324 231.381 39.1324C230.723 39.1324 230.381 38.8184 230.253 38.1014C230.17 37.6424 230.17 31.1484 230.253 30.6944C230.381 29.9774 230.723 29.6634 231.369 29.6634C231.574 29.6634 231.822 29.6974 231.922 29.7424C232.022 29.7814 232.171 29.8994 232.254 29.9944C232.564 30.3754 232.568 30.4144 232.568 34.3984C232.568 38.3824 232.564 38.4204 232.254 38.8024ZM72.8718 28.0384L71.8108 31.1874C71.2248 32.9244 70.6388 34.6664 70.5118 35.0704L70.2738 35.7994L70.2568 32.0234C70.2458 28.6054 70.2348 28.2354 70.1518 28.1404C70.0748 28.0564 69.9748 28.0394 69.4438 28.0394C68.8688 28.0394 68.8188 28.0504 68.7088 28.1684L68.5868 28.2974V40.5174L68.7138 40.6414C68.8408 40.7524 68.8848 40.7584 69.6308 40.7464L70.4218 40.7294L71.5988 37.0034C72.2508 34.9524 72.8588 33.0644 72.9478 32.8004L73.1078 32.3244L73.1128 36.4484C73.1188 40.3704 73.1238 40.5774 73.2178 40.6614C73.3008 40.7394 73.4448 40.7574 73.9588 40.7574C74.5058 40.7574 74.6048 40.7394 74.6828 40.6554C74.7708 40.5604 74.7768 40.0454 74.7768 34.3854C74.7768 28.4854 74.7718 28.2164 74.6768 28.1324C74.5888 28.0534 74.4398 28.0374 73.7208 28.0374L72.8718 28.0384ZM76.2818 28.1674L76.1598 28.2964V40.5164L76.2868 40.6344C76.4028 40.7454 76.4748 40.7574 77.1108 40.7574C77.7078 40.7574 77.8128 40.7454 77.8898 40.6554C77.9728 40.5604 77.9838 40.2924 77.9838 37.9104V35.2654H80.4708V40.5154L80.5978 40.6334C80.7138 40.7444 80.7858 40.7564 81.4218 40.7564C82.0188 40.7564 82.1238 40.7444 82.2008 40.6544C82.2888 40.5594 82.2948 40.0444 82.2948 34.3844C82.2948 28.4844 82.2898 28.2154 82.1948 28.1314C82.1118 28.0524 81.9678 28.0364 81.3988 28.0364C80.3708 28.0364 80.4708 27.7284 80.4708 30.9384V33.5834H77.9838V30.9054C77.9838 28.3784 77.9788 28.2164 77.8838 28.1324C77.8008 28.0534 77.6568 28.0374 77.0888 28.0374C76.4418 28.0384 76.3918 28.0434 76.2818 28.1674ZM87.2688 39.4134V39.9904C87.2688 40.7694 87.2578 40.7584 88.1648 40.7584C89.0488 40.7584 89.0378 40.7704 89.0378 39.9854V39.4144H89.6348C90.9938 39.4144 91.8618 38.9334 92.3318 37.9354C92.6638 37.2294 92.6968 36.8824 92.6748 34.2154C92.6528 32.2154 92.6358 31.8284 92.5588 31.5424C92.1608 30.1304 91.1658 29.4524 89.4968 29.4414H89.0378V28.8644C89.0378 28.3324 89.0268 28.2764 88.9108 28.1634C88.7948 28.0514 88.7228 28.0404 88.1148 28.0404C87.5458 28.0404 87.4408 28.0574 87.3628 28.1414C87.2858 28.2254 87.2688 28.3654 87.2688 28.8364V29.4244L86.5948 29.4584C85.2238 29.5254 84.4448 29.9574 83.9808 30.9154C83.6438 31.6044 83.6218 31.8284 83.6218 34.4174C83.6218 36.3114 83.6388 36.8104 83.7098 37.1564C84.0138 38.6704 84.9978 39.4154 86.6718 39.4154H87.2688V39.4134ZM89.0378 31.1654L89.6068 31.1874C90.0818 31.2044 90.2038 31.2264 90.3858 31.3384C90.5348 31.4334 90.6398 31.5674 90.7448 31.7864L90.8888 32.0994L90.9058 34.1614C90.9278 36.4034 90.8888 36.8734 90.6678 37.2604C90.4628 37.6134 90.1818 37.7314 89.5458 37.7314H89.0378V31.1654ZM85.4508 36.6674C85.3738 36.1794 85.3738 32.6384 85.4508 32.2124C85.5558 31.6354 85.7608 31.3494 86.1588 31.2324C86.2358 31.2044 86.5178 31.1814 86.7888 31.1814L87.2698 31.1764V37.7324H86.7558C85.8928 37.7324 85.5778 37.4744 85.4508 36.6674ZM106.856 30.2074C106.657 29.3054 106.193 28.6604 105.507 28.3354C104.949 28.0664 104.7 28.0384 102.97 28.0384H101.378L101.262 28.1674L101.14 28.2964V40.5164L101.267 40.6344C101.383 40.7454 101.455 40.7574 102.09 40.7574C102.687 40.7574 102.792 40.7454 102.869 40.6554C102.952 40.5604 102.963 40.3134 102.963 38.2474V35.9394H103.726C104.163 35.9394 104.638 35.9054 104.848 35.8604C105.91 35.6314 106.628 34.8854 106.86 33.7814C106.983 33.2044 106.978 30.7614 106.856 30.2074ZM105.165 32.2964C105.143 33.2494 105.126 33.4224 105.027 33.6474C104.822 34.1124 104.458 34.2574 103.485 34.2574H102.965V29.7694L103.761 29.7864C104.468 29.8034 104.579 29.8144 104.717 29.9204C105.104 30.2124 105.198 30.7224 105.165 32.2964ZM114.185 34.1454L114.34 33.3894L114.345 36.9524L114.351 40.5154L114.478 40.6334C114.594 40.7444 114.666 40.7564 115.274 40.7564C115.843 40.7564 115.948 40.7384 116.025 40.6544C116.113 40.5594 116.119 40.0444 116.119 34.3844C116.119 28.4844 116.113 28.2154 116.019 28.1314C115.931 28.0474 115.765 28.0364 114.864 28.0364H113.814L112.974 32.3064C112.51 34.6604 112.118 36.6214 112.101 36.6664C112.073 36.7384 111.764 35.2704 110.586 29.4494L110.299 28.0374H109.238C108.281 28.0374 108.166 28.0484 108.088 28.1384C108 28.2334 107.994 28.7494 107.994 34.4084C107.994 40.3084 107.999 40.5774 108.094 40.6614C108.177 40.7394 108.315 40.7574 108.807 40.7574C109.365 40.7574 109.42 40.7454 109.531 40.6284L109.653 40.4994L109.664 36.9304L109.681 33.3614L110.422 36.9924C110.831 38.9874 111.173 40.6514 111.19 40.6854C111.207 40.7404 111.433 40.7574 112.052 40.7574H112.898L113.467 37.8264C113.776 36.2184 114.102 34.5604 114.185 34.1454ZM117.252 40.6114C117.346 40.7574 117.352 40.7574 118.086 40.7574C118.495 40.7574 118.827 40.7514 118.832 40.7394C118.832 40.7344 118.937 40.1844 119.064 39.5244L119.296 38.3194L120.628 38.3024L121.955 38.2914L122.165 39.4224C122.281 40.0504 122.386 40.6054 122.397 40.6544C122.424 40.7444 122.513 40.7564 123.22 40.7564C124.011 40.7564 124.011 40.7564 124.105 40.6104C124.193 40.4704 124.166 40.2864 123.082 34.5484C122.469 31.2874 121.938 28.4914 121.911 28.3294L121.85 28.0374H119.507L119.446 28.3294C119.418 28.4914 118.888 31.2874 118.274 34.5484C117.191 40.2874 117.164 40.4714 117.252 40.6114ZM120.579 31.2604L120.618 31.1484L120.64 31.2604C120.651 31.3224 120.883 32.5264 121.154 33.9384C121.425 35.3454 121.646 36.5394 121.646 36.5844C121.646 36.6564 121.491 36.6684 120.624 36.6684C119.635 36.6684 119.602 36.6624 119.602 36.5554C119.601 36.4314 120.524 31.4394 120.579 31.2604ZM125.404 34.4094C125.404 40.3094 125.409 40.5784 125.503 40.6624C125.597 40.7464 125.857 40.7584 128.101 40.7584H130.6V41.4474C130.6 42.1314 130.6 42.1414 130.754 42.2874C130.903 42.4334 130.931 42.4384 131.545 42.4384C132.479 42.4384 132.424 42.5444 132.424 40.7514C132.424 39.3284 132.424 39.3174 132.296 39.1994C132.196 39.1034 132.098 39.0754 131.854 39.0754H131.54V28.2794L131.413 28.1614C131.297 28.0494 131.225 28.0384 130.595 28.0384C129.943 28.0384 129.893 28.0434 129.782 28.1674L129.661 28.2964V39.0204H127.174V33.6244C127.174 28.4634 127.168 28.2174 127.074 28.1334C126.991 28.0544 126.847 28.0384 126.278 28.0384C125.681 28.0384 125.576 28.0494 125.499 28.1394C125.41 28.2344 125.404 28.7494 125.404 34.4094ZM136.596 37.0034C137.248 34.9524 137.856 33.0644 137.945 32.8004L138.105 32.3244L138.111 36.4484C138.116 40.3704 138.122 40.5774 138.215 40.6614C138.299 40.7394 138.442 40.7574 138.955 40.7574C139.503 40.7574 139.602 40.7394 139.68 40.6554C139.768 40.5604 139.774 40.0454 139.774 34.3854C139.774 28.4854 139.768 28.2164 139.674 28.1324C139.586 28.0534 139.437 28.0374 138.719 28.0374H137.867L136.805 31.1864C136.219 32.9234 135.634 34.6654 135.506 35.0694L135.269 35.7984L135.252 32.0224C135.241 28.6044 135.23 28.2344 135.148 28.1394C135.07 28.0554 134.97 28.0384 134.44 28.0384C133.865 28.0384 133.816 28.0494 133.705 28.1674L133.584 28.2964V40.5164L133.711 40.6404C133.838 40.7514 133.883 40.7574 134.629 40.7454L135.418 40.7284L136.596 37.0034ZM154.326 40.6564C154.414 40.5614 154.42 40.0464 154.42 34.3864C154.42 28.4864 154.414 28.2174 154.32 28.1334C154.237 28.0544 154.093 28.0384 153.524 28.0384C152.496 28.0384 152.595 27.7304 152.595 30.9404V33.5854H150.109V30.9074C150.109 28.3804 150.103 28.2184 150.009 28.1344C149.925 28.0554 149.782 28.0394 149.212 28.0394C148.566 28.0394 148.517 28.0444 148.405 28.1684L148.284 28.2974V40.5174L148.411 40.6354C148.527 40.7464 148.599 40.7584 149.235 40.7584C149.831 40.7584 149.936 40.7464 150.014 40.6564C150.096 40.5614 150.108 40.2934 150.108 37.9114V35.2664H152.594V40.5164L152.721 40.6344C152.838 40.7454 152.909 40.7574 153.545 40.7574C154.144 40.7574 154.248 40.7464 154.326 40.6564ZM161.842 40.6564C161.931 40.5614 161.936 40.0464 161.936 34.3864C161.936 28.4864 161.931 28.2174 161.837 28.1334C161.754 28.0544 161.61 28.0384 161.041 28.0384C160.013 28.0384 160.112 27.7304 160.112 30.9404V33.5854H157.625V30.9074C157.625 28.3804 157.619 28.2184 157.525 28.1344C157.443 28.0554 157.298 28.0394 156.73 28.0394C156.084 28.0394 156.033 28.0444 155.922 28.1684L155.801 28.2974V40.5174L155.928 40.6354C156.044 40.7464 156.116 40.7584 156.751 40.7584C157.349 40.7584 157.453 40.7464 157.53 40.6564C157.613 40.5614 157.624 40.2934 157.624 37.9114V35.2664H160.111V40.5164L160.239 40.6344C160.354 40.7454 160.427 40.7574 161.061 40.7574C161.66 40.7574 161.766 40.7464 161.842 40.6564ZM169.033 38.5604C169.154 37.9664 169.154 35.5854 169.038 35.0144C168.807 33.9104 168.088 33.1654 167.026 32.9354C166.816 32.8904 166.341 32.8574 165.904 32.8574H165.141V30.5434C165.141 28.3694 165.136 28.2184 165.042 28.1344C164.958 28.0554 164.815 28.0394 164.245 28.0394C163.599 28.0394 163.549 28.0444 163.438 28.1684L163.317 28.2974V40.5174L163.444 40.6354C163.571 40.7584 163.604 40.7584 165.173 40.7584C166.434 40.7584 166.848 40.7404 167.102 40.6744C168.154 40.3984 168.807 39.6814 169.033 38.5604ZM166.894 38.8744C166.756 38.9804 166.645 38.9914 165.938 39.0094L165.142 39.0264V34.5384H165.662C165.944 34.5384 166.314 34.5664 166.475 34.5944C166.857 34.6674 167.017 34.7844 167.188 35.1334C167.316 35.3904 167.327 35.4694 167.343 36.5004C167.375 38.0744 167.275 38.5834 166.894 38.8744ZM170.734 40.7574C171.332 40.7574 171.437 40.7454 171.513 40.6554C171.602 40.5604 171.608 40.0454 171.608 34.3854C171.608 28.4854 171.602 28.2164 171.508 28.1324C171.425 28.0534 171.281 28.0374 170.712 28.0374C170.114 28.0374 170.01 28.0484 169.933 28.1384C169.845 28.2334 169.839 28.7494 169.839 34.4084C169.839 40.3084 169.845 40.5774 169.939 40.6614C170.022 40.7404 170.166 40.7574 170.734 40.7574ZM177.151 38.3534L178.052 40.7294L178.847 40.7464C179.621 40.7584 179.65 40.7584 179.743 40.6354C179.798 40.5624 179.843 40.4724 179.843 40.4394C179.843 40.3994 179.323 38.9994 178.682 37.3294C178.046 35.6544 177.521 34.2484 177.521 34.2034C177.521 34.1584 178.019 32.8194 178.621 31.2334L179.722 28.3474L179.612 28.1904L179.501 28.0334L178.777 28.0504L178.053 28.0674L177.235 30.1964C176.788 31.3674 176.406 32.3644 176.383 32.4094C176.367 32.4544 175.975 31.5014 175.516 30.2804L174.676 28.0674L173.874 28.0564C173.084 28.0394 173.072 28.0454 172.978 28.1804C172.923 28.2534 172.878 28.3314 172.878 28.3484C172.878 28.3654 173.376 29.6814 173.983 31.2674C174.591 32.8524 175.088 34.1754 175.088 34.2034C175.088 34.2374 174.552 35.6484 173.9 37.3474L172.711 40.4344L172.806 40.5974L172.906 40.7654L173.652 40.7474L174.392 40.7304L175.304 38.3374C175.807 37.0214 176.227 35.9504 176.239 35.9614C176.245 35.9724 176.66 37.0484 177.151 38.3534ZM186.879 28.0384H183.949L183.834 28.1674C183.723 28.2854 183.712 28.3574 183.712 28.8844C183.712 29.4554 183.717 29.4784 183.867 29.6234L184.021 29.7744H185.978V35.1704C185.978 40.3304 185.983 40.5764 186.077 40.6604C186.16 40.7384 186.304 40.7564 186.873 40.7564C187.519 40.7564 187.57 40.7504 187.68 40.6274L187.802 40.4984V29.7754H188.785C190.051 29.7754 190.013 29.8034 190.013 28.8674C190.013 28.3124 189.996 28.2114 189.913 28.1334C189.818 28.0494 189.531 28.0384 186.879 28.0384ZM193.737 28.0384H191.245L191.129 28.1674L191.008 28.2964V40.5164L191.135 40.6344C191.262 40.7574 191.273 40.7574 193.748 40.7574H196.241L196.357 40.6284C196.467 40.5114 196.478 40.4384 196.478 39.8774C196.478 38.9644 196.611 39.0204 194.511 39.0204H192.83V35.1544H194.2C195.903 35.1544 195.814 35.1994 195.814 34.3084C195.814 33.4284 195.903 33.4734 194.195 33.4734H192.83V29.7754H194.511C196.611 29.7754 196.478 29.8374 196.478 28.9124C196.479 27.9544 196.75 28.0384 193.737 28.0384ZM202.227 34.2024C202.227 34.1574 202.725 32.8184 203.327 31.2324L204.427 28.3464L204.318 28.1894L204.207 28.0324L203.483 28.0494L202.759 28.0664L201.941 30.1954C201.494 31.3664 201.112 32.3634 201.089 32.4084C201.073 32.4534 200.681 31.5004 200.222 30.2794L199.382 28.0664L198.58 28.0554C197.79 28.0384 197.778 28.0444 197.684 28.1794C197.629 28.2524 197.584 28.3304 197.584 28.3474C197.584 28.3644 198.082 29.6804 198.689 31.2664C199.296 32.8514 199.794 34.1744 199.794 34.2024C199.794 34.2364 199.258 35.6474 198.606 37.3464L197.418 40.4334L197.512 40.5964L197.612 40.7644L198.358 40.7464L199.099 40.7294L200.01 38.3364C200.514 37.0204 200.934 35.9494 200.945 35.9604C200.951 35.9724 201.366 37.0484 201.857 38.3534L202.758 40.7294L203.553 40.7464C204.327 40.7584 204.355 40.7584 204.449 40.6354C204.505 40.5624 204.549 40.4724 204.549 40.4394C204.549 40.3994 204.029 38.9994 203.388 37.3294C202.752 35.6534 202.227 34.2474 202.227 34.2024ZM210.893 28.0384C209.866 28.0384 209.965 27.7304 209.965 30.9404V33.5854H207.477V30.9074C207.477 28.3804 207.472 28.2184 207.377 28.1344C207.295 28.0554 207.151 28.0394 206.582 28.0394C205.936 28.0394 205.885 28.0444 205.775 28.1684L205.653 28.2974V40.5174L205.78 40.6354C205.896 40.7464 205.968 40.7584 206.603 40.7584C207.201 40.7584 207.305 40.7464 207.382 40.6564C207.466 40.5614 207.476 40.2934 207.476 37.9114V35.2664H209.964V40.5164L210.091 40.6344C210.206 40.7454 210.279 40.7574 210.914 40.7574C211.511 40.7574 211.616 40.7454 211.693 40.6554C211.782 40.5604 211.787 40.0454 211.787 34.3854C211.787 28.4854 211.782 28.2164 211.687 28.1324C211.606 28.0554 211.462 28.0384 210.893 28.0384ZM224.268 28.0384H221.693L221.66 28.7784C221.638 29.1874 221.56 31.2994 221.489 33.4734C221.417 35.6474 221.339 37.6244 221.323 37.8674C221.267 38.6454 220.997 39.0204 220.488 39.0204C220.328 39.0204 220.233 39.0544 220.145 39.1494C220.035 39.2674 220.024 39.3394 220.024 39.9274C220.024 40.7694 220.035 40.7844 220.753 40.7454C222.069 40.6674 222.782 39.9674 223.042 38.5054C223.103 38.1574 223.396 31.0694 223.396 29.9714V29.7754H225.275V35.1714C225.275 40.3314 225.281 40.5774 225.375 40.6614C225.458 40.7394 225.602 40.7574 226.171 40.7574C226.817 40.7574 226.867 40.7514 226.978 40.6284L227.1 40.4994V28.2794L226.973 28.1614C226.844 28.0384 226.832 28.0384 224.268 28.0384ZM238.334 28.0384C236.051 28.0384 235.896 28.0434 235.813 28.1394C235.725 28.2344 235.719 28.7504 235.719 34.4094C235.719 40.3094 235.725 40.5784 235.819 40.6624C235.902 40.7404 236.046 40.7584 236.616 40.7584C237.212 40.7584 237.317 40.7464 237.395 40.6564C237.483 40.5614 237.489 40.1014 237.489 35.1664V29.7754H240.733L240.848 29.6464C240.959 29.5284 240.97 29.4564 240.97 28.8674C240.97 28.3124 240.953 28.2114 240.87 28.1334C240.776 28.0494 240.522 28.0384 238.334 28.0384ZM247.431 28.0384H246.58L245.517 31.1874C244.931 32.9244 244.346 34.6664 244.218 35.0704L243.982 35.7994L243.964 32.0234C243.953 28.6054 243.943 28.2354 243.86 28.1404C243.783 28.0564 243.683 28.0394 243.152 28.0394C242.578 28.0394 242.528 28.0504 242.418 28.1684L242.296 28.2974V40.5174L242.424 40.6414C242.551 40.7524 242.595 40.7584 243.341 40.7464L244.131 40.7294L245.309 37.0034C245.961 34.9524 246.569 33.0644 246.657 32.8004L246.817 32.3244L246.823 36.4484C246.829 40.3704 246.835 40.5774 246.928 40.6614C247.01 40.7394 247.155 40.7574 247.668 40.7574C248.215 40.7574 248.314 40.7394 248.393 40.6554C248.481 40.5604 248.487 40.0454 248.487 34.3854C248.487 28.4854 248.481 28.2164 248.387 28.1324C248.299 28.0554 248.149 28.0384 247.431 28.0384ZM255.902 28.1334C255.814 28.0544 255.666 28.0384 254.947 28.0384H254.095L253.062 31.1034C252.493 32.7954 251.907 34.5384 251.763 34.9864L251.497 35.7994L251.48 32.0234C251.469 28.6054 251.458 28.2354 251.376 28.1404C251.298 28.0564 251.198 28.0394 250.669 28.0394C250.093 28.0394 250.044 28.0504 249.933 28.1684L249.812 28.2974V40.5174L249.939 40.6414C250.066 40.7524 250.111 40.7584 250.857 40.7464L251.647 40.7294L252.686 37.4804C253.261 35.6924 253.858 33.8154 254.023 33.3054L254.316 32.3804L254.334 36.4654C254.345 40.1694 254.355 40.5614 254.438 40.6554C254.515 40.7394 254.621 40.7574 255.173 40.7574C255.732 40.7574 255.83 40.7394 255.907 40.6554C255.996 40.5604 256.001 40.0454 256.001 34.3854C256.002 28.4864 255.997 28.2174 255.902 28.1334ZM146.406 46.5294V46.6974C146.406 46.9944 146.261 47.2524 146.052 47.3424C145.665 47.5104 145.051 47.4034 144.919 47.1514C144.886 47.0904 144.841 46.9224 144.824 46.7824L144.786 46.5304H144.249C143.758 46.5304 143.708 46.5414 143.592 46.6654C143.482 46.7824 143.47 46.8384 143.503 47.0464C143.681 48.1324 144.415 48.7164 145.608 48.7164C146.747 48.7164 147.488 48.1614 147.676 47.1574C147.741 46.8214 147.741 46.7994 147.62 46.6704C147.498 46.5414 147.454 46.5304 146.945 46.5304L146.406 46.5294ZM109.94 48.9994C109.542 48.9154 108.647 48.9274 108.249 49.0264C107.249 49.2734 106.508 50.0864 106.259 51.2174C106.181 51.5654 106.171 52.1364 106.171 55.4254C106.171 59.0564 106.176 59.2464 106.281 59.6724C106.436 60.2774 106.624 60.6474 106.977 61.0334C107.502 61.6114 108.187 61.8804 109.155 61.8804C110.581 61.8804 111.504 61.2414 111.957 59.9364L112.112 59.4984V51.3184L111.968 50.8864C111.62 49.8634 110.924 49.2124 109.94 48.9994ZM110.233 59.3494C110.067 59.9144 109.747 60.1444 109.128 60.1444C108.47 60.1444 108.128 59.8314 108.001 59.1134C107.918 58.6544 107.918 52.1604 108.001 51.7064C108.128 50.9894 108.471 50.6764 109.118 50.6764C109.323 50.6764 109.571 50.7094 109.671 50.7544C109.92 50.8554 110.135 51.1294 110.234 51.4714C110.36 51.9024 110.36 58.9174 110.233 59.3494ZM125.586 56.8384C124.652 56.8384 124.696 56.7714 124.674 58.2104C124.657 59.2924 124.652 59.3494 124.514 59.6114C124.304 60.0264 124.061 60.1554 123.497 60.1324C122.983 60.1154 122.762 59.9914 122.59 59.6454C122.38 59.2354 122.363 58.8774 122.363 55.4094C122.363 51.9414 122.38 51.5824 122.59 51.1734C122.761 50.8254 122.983 50.7024 123.497 50.6864C124.06 50.6644 124.304 50.7924 124.514 51.2074C124.647 51.4654 124.658 51.5554 124.685 52.4184C124.724 53.6404 124.685 53.5894 125.597 53.5894C126.492 53.5894 126.453 53.6404 126.453 52.5084C126.453 51.4714 126.37 50.9894 126.088 50.4064C125.745 49.6954 125.171 49.2294 124.38 49.0224C123.988 48.9214 123.065 48.9164 122.656 49.0164C121.645 49.2694 120.909 50.0814 120.677 51.2064C120.555 51.7844 120.555 59.0344 120.677 59.6114C120.859 60.5034 121.401 61.2584 122.086 61.5844C122.55 61.8084 122.915 61.8814 123.54 61.8814C124.75 61.8814 125.623 61.3764 126.088 60.4134C126.381 59.8024 126.453 59.3594 126.453 58.1044C126.454 56.7594 126.509 56.8384 125.586 56.8384ZM138.955 48.9994C138.558 48.9154 137.662 48.9274 137.265 49.0264C136.264 49.2734 135.524 50.0864 135.276 51.2174C135.198 51.5654 135.187 52.1364 135.187 55.4254C135.187 59.0564 135.192 59.2464 135.297 59.6724C135.451 60.2774 135.64 60.6474 135.994 61.0334C136.518 61.6114 137.203 61.8804 138.171 61.8804C139.598 61.8804 140.52 61.2414 140.973 59.9364L141.128 59.4984V51.3184L140.984 50.8864C140.636 49.8634 139.94 49.2124 138.955 48.9994ZM139.017 59.8144C138.818 60.0544 138.575 60.1444 138.144 60.1444C137.487 60.1444 137.143 59.8314 137.016 59.1134C136.934 58.6544 136.934 52.1604 137.016 51.7064C137.143 50.9894 137.487 50.6764 138.133 50.6764C138.337 50.6764 138.586 50.7094 138.686 50.7544C138.786 50.7934 138.934 50.9104 139.017 51.0064C139.327 51.3874 139.332 51.4264 139.332 55.4104C139.332 59.3934 139.326 59.4334 139.017 59.8144ZM156.807 48.9994C156.411 48.9154 155.514 48.9274 155.117 49.0264C154.116 49.2734 153.376 50.0864 153.128 51.2174C153.05 51.5654 153.039 52.1364 153.039 55.4254C153.039 59.0564 153.044 59.2464 153.149 59.6724C153.303 60.2774 153.492 60.6474 153.846 61.0334C154.37 61.6114 155.056 61.8804 156.023 61.8804C157.45 61.8804 158.372 61.2414 158.825 59.9364L158.98 59.4984V51.3184L158.836 50.8864C158.487 49.8634 157.791 49.2124 156.807 48.9994ZM156.868 59.8144C156.669 60.0544 156.426 60.1444 155.995 60.1444C155.338 60.1444 154.994 59.8314 154.867 59.1134C154.785 58.6544 154.785 52.1604 154.867 51.7064C154.994 50.9894 155.338 50.6764 155.984 50.6764C156.188 50.6764 156.437 50.7094 156.537 50.7544C156.637 50.7934 156.785 50.9104 156.868 51.0064C157.178 51.3874 157.183 51.4264 157.183 55.4104C157.184 59.3934 157.178 59.4334 156.868 59.8144ZM188.482 56.8384C187.547 56.8384 187.592 56.7714 187.571 58.2104C187.553 59.2924 187.548 59.3494 187.41 59.6114C187.2 60.0264 186.957 60.1554 186.393 60.1324C185.879 60.1154 185.658 59.9914 185.487 59.6454C185.276 59.2354 185.26 58.8774 185.26 55.4094C185.26 51.9414 185.276 51.5824 185.487 51.1734C185.658 50.8254 185.88 50.7024 186.393 50.6864C186.956 50.6644 187.2 50.7924 187.41 51.2074C187.543 51.4654 187.554 51.5554 187.581 52.4184C187.62 53.6404 187.581 53.5894 188.493 53.5894C189.389 53.5894 189.35 53.6404 189.35 52.5084C189.35 51.4714 189.267 50.9894 188.985 50.4064C188.642 49.6954 188.067 49.2294 187.278 49.0224C186.885 48.9214 185.962 48.9164 185.553 49.0164C184.541 49.2694 183.806 50.0814 183.574 51.2064C183.452 51.7844 183.452 59.0344 183.574 59.6114C183.756 60.5034 184.298 61.2584 184.982 61.5844C185.447 61.8084 185.812 61.8814 186.436 61.8814C187.646 61.8814 188.519 61.3764 188.984 60.4134C189.277 59.8024 189.349 59.3594 189.349 58.1044C189.35 56.7594 189.404 56.8384 188.482 56.8384ZM74.2698 49.0504C73.8168 49.0504 73.4518 49.0614 73.4518 49.0714C73.4518 49.0894 73.2138 50.0244 72.9208 51.1624C72.6278 52.2944 72.2798 53.7004 72.1468 54.2884C72.0148 54.8714 71.8818 55.3974 71.8598 55.4544C71.8318 55.5204 71.7328 55.2294 71.5558 54.5584C71.4068 54.0094 70.9978 52.5524 70.6388 51.3204L69.9928 49.0784L68.4338 49.0454L68.3288 49.1964L68.2238 49.3424L69.5998 53.8084L70.9758 58.2684L70.7708 58.9014C70.4778 59.8094 70.2788 60.0104 69.5938 60.0734C69.0078 60.1234 68.9748 60.1744 68.9748 61.0534V61.7704L69.2668 61.7764C70.1898 61.7884 70.6318 61.7194 71.1298 61.4734C71.7048 61.1934 72.1858 60.5654 72.4508 59.7374C72.5388 59.4514 73.2138 56.9974 73.9488 54.2794C75.2758 49.3654 75.2858 49.3374 75.1818 49.1974C75.0828 49.0564 75.0708 49.0564 74.2698 49.0504ZM80.1838 49.0504H77.6088L77.5758 49.7894C77.5538 50.1984 77.4758 52.3104 77.4048 54.4844C77.3328 56.6594 77.2558 58.6364 77.2388 58.8784C77.1838 59.6564 76.9128 60.0324 76.4048 60.0324C76.2448 60.0324 76.1508 60.0654 76.0618 60.1614C75.9518 60.2784 75.9398 60.3504 75.9398 60.9394C75.9398 61.7804 75.9508 61.7964 76.6688 61.7564C77.9838 61.6784 78.6968 60.9784 78.9568 59.5164C79.0118 59.1794 79.3108 52.0754 79.3108 50.9884V50.7864H81.1898V56.1824C81.1898 61.3424 81.1948 61.5884 81.2898 61.6724C81.3728 61.7514 81.5168 61.7684 82.0858 61.7684C82.7318 61.7684 82.7818 61.7624 82.8928 61.6394L83.0148 61.5104V49.2914L82.8878 49.1744C82.7588 49.0504 82.7478 49.0504 80.1838 49.0504ZM88.1038 53.9474C87.8938 53.9024 87.4188 53.8694 86.9818 53.8694H86.2188V51.5554C86.2188 49.3814 86.2138 49.2304 86.1198 49.1464C86.0368 49.0684 85.8928 49.0514 85.3238 49.0514C84.6768 49.0514 84.6268 49.0574 84.5168 49.1804L84.3948 49.3094V61.5294L84.5218 61.6464C84.6488 61.7694 84.6818 61.7694 86.2508 61.7694C87.5108 61.7694 87.9258 61.7524 88.1798 61.6854C89.2298 61.4114 89.8818 60.6934 90.1088 59.5734C90.2308 58.9794 90.2308 56.5974 90.1138 56.0264C89.8828 54.9214 89.1648 54.1774 88.1038 53.9474ZM87.9708 59.8864C87.8328 59.9924 87.7218 60.0044 87.0148 60.0214L86.2188 60.0384V55.5514H86.7388C87.0208 55.5514 87.3908 55.5784 87.5518 55.6064C87.9328 55.6794 88.0938 55.7974 88.2648 56.1454C88.3918 56.4034 88.4028 56.4814 88.4198 57.5124C88.4518 59.0854 88.3518 59.5954 87.9708 59.8864ZM95.4988 49.0564C94.3268 49.0564 93.7738 49.0834 93.5198 49.1404C92.4918 49.3644 91.8288 50.0524 91.6018 51.1124C91.4968 51.6224 91.4968 53.5394 91.6018 54.0434C91.7288 54.6434 92.0168 55.1304 92.4148 55.4274L92.6298 55.5904L92.3868 55.7644C91.9398 56.0884 91.6358 56.7004 91.5308 57.4784C91.4978 57.7194 91.4698 58.5424 91.4698 59.3164C91.4698 60.4254 91.4528 60.7954 91.3758 61.1044C91.2928 61.4574 91.2928 61.4964 91.3808 61.6294L91.4748 61.7754L92.2538 61.7574L93.0388 61.7414L93.1488 61.4324C93.2488 61.1574 93.2598 60.9394 93.2868 59.3254L93.3198 57.5324L93.4858 57.2024C93.6238 56.9274 93.7008 56.8484 93.9278 56.7314C94.1658 56.6024 94.2818 56.5854 94.8788 56.5634L95.5588 56.5454V59.0624C95.5588 61.4324 95.5648 61.5884 95.6588 61.6724C95.7418 61.7514 95.8908 61.7684 96.4828 61.7684C97.1078 61.7684 97.2118 61.7564 97.2898 61.6674C97.3778 61.5724 97.3838 61.0574 97.3838 55.4254V49.2894L97.2568 49.1724C97.1288 49.0504 97.0958 49.0504 95.4988 49.0564ZM95.5588 54.8224H95.0058C94.0278 54.8224 93.6688 54.6654 93.4418 54.1494C93.3478 53.9414 93.3198 53.7464 93.3038 53.0174C93.2648 51.6624 93.3978 51.1344 93.8348 50.8994C94.0058 50.8094 94.1608 50.7934 94.8018 50.7874H95.5588V54.8224ZM103.949 49.0504C102.921 49.0504 103.021 48.7414 103.021 51.9524V54.5974H100.534V51.9194C100.534 49.3924 100.529 49.2294 100.435 49.1454C100.352 49.0674 100.208 49.0504 99.6388 49.0504C98.9918 49.0504 98.9418 49.0564 98.8318 49.1794L98.7098 49.3084V61.5294L98.8368 61.6464C98.9528 61.7574 99.0248 61.7694 99.6608 61.7694C100.258 61.7694 100.363 61.7574 100.44 61.6684C100.523 61.5734 100.534 61.3044 100.534 58.9234V56.2774H103.021V61.5284L103.148 61.6454C103.264 61.7564 103.336 61.7684 103.972 61.7684C104.569 61.7684 104.674 61.7564 104.751 61.6674C104.839 61.5724 104.845 61.0574 104.845 55.3964C104.845 49.4964 104.84 49.2274 104.745 49.1434C104.662 49.0674 104.518 49.0504 103.949 49.0504ZM118.274 55.0454C118.241 55.0454 118.346 54.9104 118.512 54.7484C119.092 54.1714 119.236 53.6224 119.197 52.1024C119.18 51.2064 119.158 50.9774 119.059 50.6684C118.838 49.9844 118.368 49.4914 117.678 49.2284C117.313 49.0824 117.291 49.0824 115.484 49.0604L113.66 49.0434L113.533 49.1724L113.411 49.3074V61.5294L113.538 61.6464C113.665 61.7694 113.698 61.7694 115.356 61.7694C116.865 61.7694 117.086 61.7574 117.478 61.6584C118.241 61.4564 118.799 61.0134 119.12 60.3464C119.374 59.8254 119.435 59.3994 119.435 58.1554C119.435 56.8944 119.374 56.4864 119.115 55.9654C118.96 55.6504 118.407 55.0454 118.274 55.0454ZM115.235 50.7874H115.998C116.623 50.7874 116.788 50.8054 116.949 50.8894C117.076 50.9554 117.186 51.0844 117.281 51.2704C117.413 51.5284 117.419 51.5944 117.419 52.4694C117.419 53.3424 117.413 53.4104 117.281 53.6734C117.071 54.0994 116.8 54.2174 115.921 54.2504L115.236 54.2784L115.235 50.7874ZM117.114 59.9044C116.893 60.0214 116.794 60.0334 116.053 60.0334H115.235V55.9984H115.998C116.7 55.9984 116.783 56.0104 117.037 56.1394C117.523 56.3854 117.667 56.8334 117.667 58.1064C117.667 59.2484 117.534 59.6914 117.114 59.9044ZM131.097 54.8774C131.097 54.8374 131.754 53.5994 132.561 52.1324C133.369 50.6574 134.026 49.4194 134.026 49.3744C134.026 49.3354 133.988 49.2394 133.938 49.1734C133.86 49.0564 133.817 49.0504 133.092 49.0504H132.329L130.926 51.6384L129.522 54.2334L129.505 51.7464C129.494 49.5274 129.483 49.2404 129.401 49.1514C129.323 49.0614 129.218 49.0504 128.61 49.0504C127.952 49.0504 127.903 49.0564 127.792 49.1794L127.67 49.3084V61.5294L127.797 61.6464C127.913 61.7574 127.985 61.7694 128.621 61.7694C129.218 61.7694 129.322 61.7574 129.4 61.6684C129.482 61.5734 129.494 61.3434 129.494 59.5384V57.5164L129.726 57.1244L129.963 56.7264L131.19 59.2474L132.412 61.7684H133.185C133.943 61.7684 133.958 61.7684 134.047 61.6274C134.097 61.5554 134.136 61.4654 134.136 61.4324C134.136 61.3994 133.45 59.9304 132.616 58.1604C131.781 56.3964 131.097 54.9164 131.097 54.8774ZM147.561 49.0504H146.71L145.676 52.1144C145.108 53.8064 144.522 55.5504 144.377 55.9974L144.112 56.8104L144.095 53.0344C144.083 49.6164 144.074 49.2464 143.99 49.1514C143.914 49.0674 143.814 49.0504 143.283 49.0504C142.709 49.0504 142.658 49.0614 142.549 49.1794L142.427 49.3084V61.5294L142.554 61.6524C142.681 61.7634 142.725 61.7694 143.471 61.7574L144.262 61.7414L145.301 58.4914C145.875 56.7034 146.473 54.8264 146.639 54.3164L146.932 53.3914L146.948 57.4764C146.96 61.1804 146.97 61.5734 147.053 61.6674C147.13 61.7514 147.235 61.7684 147.787 61.7684C148.346 61.7684 148.445 61.7514 148.523 61.6674C148.611 61.5724 148.617 61.0574 148.617 55.3964C148.617 49.4964 148.611 49.2274 148.517 49.1434C148.429 49.0674 148.279 49.0504 147.561 49.0504ZM165.031 54.5194C164.49 54.2274 164.064 54.1494 163.003 54.1494H162.102V50.7874H165.623L165.738 50.6584C165.849 50.5414 165.86 50.4684 165.86 49.8804C165.86 49.3254 165.843 49.2254 165.76 49.1464C165.666 49.0624 165.401 49.0514 163.085 49.0514C160.664 49.0514 160.509 49.0574 160.427 49.1524C160.338 49.2474 160.333 49.7624 160.333 55.4234C160.333 61.3224 160.338 61.5914 160.433 61.6754C160.521 61.7594 160.731 61.7714 162.246 61.7714C163.556 61.7714 164.037 61.7494 164.302 61.6874C165.341 61.4354 166.027 60.7184 166.27 59.6034C166.385 59.0654 166.391 56.8244 166.281 56.2694C166.109 55.4554 165.69 54.8674 165.031 54.5194ZM164.219 59.7634C163.976 59.9984 163.811 60.0334 162.926 60.0334H162.102V55.8184L162.948 55.8414C163.534 55.8584 163.849 55.8914 163.982 55.9524C164.462 56.1654 164.529 56.4014 164.534 57.8804C164.533 59.1924 164.484 59.5114 164.219 59.7634ZM171.598 49.0504H169.022L168.989 49.7894C168.968 50.1984 168.889 52.3104 168.818 54.4844C168.746 56.6594 168.669 58.6364 168.652 58.8784C168.596 59.6564 168.326 60.0324 167.817 60.0324C167.657 60.0324 167.563 60.0654 167.475 60.1614C167.364 60.2784 167.353 60.3504 167.353 60.9394C167.353 61.7804 167.364 61.7964 168.082 61.7564C169.397 61.6784 170.11 60.9784 170.37 59.5164C170.432 59.1684 170.724 52.0804 170.724 50.9824V50.7864H172.603V56.1824C172.603 61.3424 172.608 61.5884 172.703 61.6724C172.785 61.7514 172.93 61.7684 173.498 61.7684C174.144 61.7684 174.195 61.7624 174.305 61.6394L174.427 61.5104V49.2914L174.3 49.1744C174.173 49.0504 174.162 49.0504 171.598 49.0504ZM180.219 49.3414L180.158 49.0504H177.814L177.753 49.3414C177.726 49.5034 177.194 52.3004 176.581 55.5614C175.498 61.2984 175.471 61.4844 175.56 61.6244C175.654 61.7704 175.659 61.7704 176.394 61.7704C176.802 61.7704 177.134 61.7644 177.14 61.7534C177.14 61.7474 177.245 61.1984 177.372 60.5374L177.603 59.3324L178.935 59.3154L180.262 59.3044L180.471 60.4354C180.588 61.0634 180.693 61.6184 180.703 61.6684C180.73 61.7574 180.819 61.7694 181.527 61.7694C182.317 61.7694 182.317 61.7694 182.411 61.6234C182.5 61.4834 182.472 61.2984 181.389 55.5604C180.777 52.3004 180.246 49.5034 180.219 49.3414ZM178.932 57.6794C177.942 57.6794 177.909 57.6734 177.909 57.5674C177.909 57.4434 178.833 52.4514 178.888 52.2724L178.927 52.1604L178.948 52.2724C178.96 52.3344 179.192 53.5394 179.463 54.9514C179.734 56.3574 179.954 57.5514 179.954 57.5964C179.953 57.6674 179.799 57.6794 178.932 57.6794ZM193.346 49.0504H190.416L190.3 49.1794C190.19 49.2964 190.178 49.3684 190.178 49.8964C190.178 50.4674 190.184 50.4904 190.333 50.6364L190.488 50.7864H192.444V56.1824C192.444 61.3424 192.449 61.5884 192.544 61.6724C192.627 61.7514 192.771 61.7684 193.34 61.7684C193.986 61.7684 194.036 61.7624 194.147 61.6394L194.268 61.5104V50.7874H195.252C196.518 50.7874 196.479 50.8154 196.479 49.8804C196.479 49.3254 196.463 49.2254 196.379 49.1464C196.285 49.0614 195.998 49.0504 193.346 49.0504ZM202.607 49.0504H201.756L200.694 52.1984C200.108 53.9354 199.522 55.6774 199.395 56.0814L199.158 56.8104L199.141 53.0344C199.13 49.6164 199.12 49.2464 199.036 49.1514C198.96 49.0674 198.86 49.0504 198.329 49.0504C197.755 49.0504 197.704 49.0614 197.595 49.1794L197.473 49.3084V61.5294L197.6 61.6524C197.728 61.7634 197.771 61.7694 198.517 61.7574L199.308 61.7414L200.486 58.0144C201.137 55.9634 201.746 54.0754 201.834 53.8114L201.994 53.3354L202 57.4594C202.006 61.3814 202.012 61.5884 202.105 61.6724C202.187 61.7514 202.332 61.7684 202.845 61.7684C203.392 61.7684 203.491 61.7514 203.57 61.6674C203.658 61.5724 203.664 61.0574 203.664 55.3964C203.664 49.4964 203.658 49.2274 203.564 49.1434C203.476 49.0674 203.326 49.0504 202.607 49.0504Z" fill="white"/>
</svg>
