<svg width="245" height="245" viewBox="0 0 245 245" fill="none" xmlns="http://www.w3.org/2000/svg">
<g clip-path="url(#clip0_212_155)">
<path d="M245 122.5C245 54.8451 190.155 0 122.5 0C54.8451 0 0 54.8451 0 122.5C0 190.155 54.8451 245 122.5 245C190.155 245 245 190.155 245 122.5Z" fill="#5F5F5F"/>
<path fill-rule="evenodd" clip-rule="evenodd" d="M111 171.5V194.5H135V171.5H111ZM111 156.5H135V88.75H159.5C163 88.75 165 90.75 165 94.25V102.75H185V83.5C185 72.25 180.25 68 169 68H77C65.75 68 61 72.25 61 83.5V102.75H81V94.25C81 90.75 83 88.75 86.5 88.75H111V156.5Z" fill="white"/>
<path d="M135 171H111V195H135V171Z" fill="#D9D9D9"/>
<path d="M135 171H111V195H135V171Z" fill="url(#paint0_linear_212_155)"/>
</g>
<defs>
<linearGradient id="paint0_linear_212_155" x1="129.48" y1="172.608" x2="115.104" y2="193.608" gradientUnits="userSpaceOnUse">
<stop stop-color="#0057A8"/>
<stop offset="0.53125" stop-color="#D000D4"/>
</linearGradient>
<clipPath id="clip0_212_155">
<rect width="245" height="245" fill="white"/>
</clipPath>
</defs>
</svg>
